<svg xmlns="http://www.w3.org/2000/svg" viewBox="0 0 361.1 81.89"><defs><style>.cls-1{fill:#000062;}.cls-2{fill:#00d2ff;}.cls-3{fill:#7f92ff;}.cls-4{fill:#5e1ad5;}.cls-5{fill:blue;}</style></defs><g id="Layer_2" data-name="Layer 2"><g id="Layer_1-2" data-name="Layer 1"><rect class="cls-1" x="95.87" width="1.09" height="81.89"/><path class="cls-1" d="M119,38.07l-1.59,1a3.45,3.45,0,1,0-2.67,5.7,3.46,3.46,0,0,0,2.67-1.32l1.59,1a5.29,5.29,0,1,1,0-6.41Z"/><path class="cls-1" d="M129.09,42.75a4.09,4.09,0,1,1-4.1-3.82A3.89,3.89,0,0,1,129.09,42.75Zm-6.41,0a2.32,2.32,0,1,0,2.31-2.3A2.25,2.25,0,0,0,122.68,42.75Z"/><path class="cls-1" d="M138.34,40.12a4.47,4.47,0,0,1,3.1-1.19,2.42,2.42,0,0,1,2.62,2.61v4.88h-1.79V42.06a1.47,1.47,0,0,0-1.52-1.68,3.42,3.42,0,0,0-2.19.79,4.23,4.23,0,0,1,.11,1v4.22h-1.78V42.06a1.47,1.47,0,0,0-1.53-1.68,3.07,3.07,0,0,0-2.07.79v5.25H131.5V39.07h1.79v1a4.23,4.23,0,0,1,2.85-1.14A2.34,2.34,0,0,1,138.34,40.12Z"/><path class="cls-1" d="M153.53,40.12a4.48,4.48,0,0,1,3.11-1.19,2.41,2.41,0,0,1,2.61,2.61v4.88h-1.79V42.06c0-1.11-.6-1.68-1.52-1.68a3.4,3.4,0,0,0-2.18.79,4.8,4.8,0,0,1,.1,1v4.22h-1.78V42.06a1.47,1.47,0,0,0-1.53-1.68,3.09,3.09,0,0,0-2.07.79v5.25h-1.79V39.07h1.79v1a4.23,4.23,0,0,1,2.85-1.14A2.34,2.34,0,0,1,153.53,40.12Z"/><path class="cls-1" d="M169.27,39.07v7.35h-1.79v-.94a5,5,0,0,1-3,1.09A2.44,2.44,0,0,1,161.78,44V39.07h1.78v4.37a1.5,1.5,0,0,0,1.64,1.66,3.51,3.51,0,0,0,2.28-.91V39.07Z"/><path class="cls-1" d="M179.53,41.54v4.88h-1.78V42.06a1.51,1.51,0,0,0-1.65-1.68,3.46,3.46,0,0,0-2.27.93v5.11H172V39.07h1.8V40a5,5,0,0,1,3-1.07A2.43,2.43,0,0,1,179.53,41.54Z"/><path class="cls-1" d="M184.15,37.21a1,1,0,0,1-2,0,1,1,0,0,1,2,0Zm-.07,9.21H182.3V39.07h1.78Z"/><path class="cls-1" d="M193.75,40.45l-1.37.77A2.3,2.3,0,1,0,190.61,45a2.27,2.27,0,0,0,1.82-.83l1.38.77a4.07,4.07,0,0,1-3.23,1.59,3.82,3.82,0,1,1,0-7.64A4,4,0,0,1,193.75,40.45Z"/><path class="cls-1" d="M203.3,39.07v7.35h-1.78v-.85a3.21,3.21,0,0,1-2.39,1,3.83,3.83,0,0,1,0-7.64,3.2,3.2,0,0,1,2.39,1v-.85Zm-1.78,5V41.45a2.41,2.41,0,0,0-2-1,2.3,2.3,0,0,0,0,4.59A2.41,2.41,0,0,0,201.52,44Z"/><path class="cls-1" d="M210.93,46.05a4,4,0,0,1-1.93.52A2.37,2.37,0,0,1,206.5,44V40.5h-1.16V39.07h1.16V37h1.78v2h2.09V40.5h-2.09v3.23a1.21,1.21,0,0,0,1.28,1.32,2.48,2.48,0,0,0,1.13-.26Z"/><path class="cls-1" d="M215.11,37.21a1,1,0,1,1-1-.91A.94.94,0,0,1,215.11,37.21ZM215,46.42h-1.78V39.07H215Z"/><path class="cls-1" d="M225.75,42.75a4.09,4.09,0,1,1-4.1-3.82A3.88,3.88,0,0,1,225.75,42.75Zm-6.41,0a2.33,2.33,0,1,0,2.31-2.3A2.25,2.25,0,0,0,219.34,42.75Z"/><path class="cls-1" d="M235.67,41.54v4.88h-1.78V42.06a1.51,1.51,0,0,0-1.65-1.68,3.46,3.46,0,0,0-2.27.93v5.11h-1.8V39.07H230V40a5,5,0,0,1,3-1.07A2.43,2.43,0,0,1,235.67,41.54Z"/><path class="cls-1" d="M244,39.73l-.6,1.16A5.25,5.25,0,0,0,241,40.2c-.79,0-1.2.27-1.2.81s.25.59,1.26.87l.82.22c1.74.47,2.38,1.06,2.38,2.14,0,1.47-1.13,2.33-3.07,2.33a6.24,6.24,0,0,1-3.42-1l.62-1.13a5.56,5.56,0,0,0,2.86.84c.9,0,1.34-.3,1.34-.91,0-.44-.22-.61-1.15-.87l-.92-.25c-1.8-.5-2.43-1-2.43-2.09,0-1.41,1.12-2.24,3-2.24A5.9,5.9,0,0,1,244,39.73Z"/><path class="cls-1" d="M259.09,44.38l1.06,1.11-1.26,1.08-.93-1a5.15,5.15,0,0,1-3.22,1c-2.26,0-3.7-1-3.7-2.8,0-1.23.71-2.08,2.6-3l-.16-.17A2.61,2.61,0,0,1,255.54,36a2.49,2.49,0,0,1,2.73,2.38c0,1.25-.69,2-2.26,2.74l2,2.14a8.43,8.43,0,0,0,1.07-1.89l1.31.59A10.26,10.26,0,0,1,259.09,44.38Zm-2.17,0-2.32-2.57c-1.31.67-1.72,1.14-1.72,1.8,0,.93.76,1.49,1.92,1.49A3.59,3.59,0,0,0,256.92,44.38Zm-2.78-5.9a2.17,2.17,0,0,0,.65,1.36l.25.26c1.42-.68,1.72-1,1.72-1.7a1.11,1.11,0,0,0-1.25-1.09A1.25,1.25,0,0,0,254.14,38.48Z"/><path class="cls-1" d="M269.66,46.42h-1.91V36.13h1.91Z"/><path class="cls-1" d="M280.21,41.54v4.88h-1.78V42.06a1.51,1.51,0,0,0-1.65-1.68,3.5,3.5,0,0,0-2.28.93v5.11h-1.79V39.07h1.79V40a5.06,5.06,0,0,1,3-1.07A2.43,2.43,0,0,1,280.21,41.54Z"/><path class="cls-1" d="M285,38.56v.51h2.15V40.5H285v5.92h-1.79V40.5h-1.09V39.07h1.09v-.54A2.37,2.37,0,0,1,285.83,36a5.37,5.37,0,0,1,1.65.25l-.27,1.23a3,3,0,0,0-1-.16A1.13,1.13,0,0,0,285,38.56Z"/><path class="cls-1" d="M297,42.75a4.09,4.09,0,1,1-4.09-3.82A3.88,3.88,0,0,1,297,42.75Zm-6.4,0a2.32,2.32,0,1,0,2.31-2.3A2.25,2.25,0,0,0,290.58,42.75Z"/><path class="cls-1" d="M304.2,40.48a4,4,0,0,0-3,1.37v4.57h-1.79V39.07h1.79v1.38a4,4,0,0,1,3-1.52Z"/><path class="cls-1" d="M313,40.12a4.46,4.46,0,0,1,3.1-1.19,2.42,2.42,0,0,1,2.62,2.61v4.88h-1.8V42.06c0-1.11-.6-1.68-1.51-1.68a3.42,3.42,0,0,0-2.19.79,4.8,4.8,0,0,1,.1,1v4.22h-1.77V42.06A1.47,1.47,0,0,0,310,40.38a3.07,3.07,0,0,0-2.07.79v5.25h-1.8V39.07h1.8v1a4.23,4.23,0,0,1,2.85-1.14A2.35,2.35,0,0,1,313,40.12Z"/><path class="cls-1" d="M328.74,39.07v7.35H327v-.85a3.21,3.21,0,0,1-2.4,1,3.83,3.83,0,0,1,0-7.64,3.21,3.21,0,0,1,2.4,1v-.85ZM327,44V41.45a2.42,2.42,0,0,0-2-1A2.3,2.3,0,0,0,325,45,2.42,2.42,0,0,0,327,44Z"/><path class="cls-1" d="M336.36,46.05a4,4,0,0,1-1.92.52,2.37,2.37,0,0,1-2.5-2.56V40.5h-1.16V39.07h1.16V37h1.78v2h2.08V40.5h-2.08v3.23A1.21,1.21,0,0,0,335,45.05a2.51,2.51,0,0,0,1.13-.26Z"/><path class="cls-1" d="M340.55,37.21a.94.94,0,0,1-1,.91.91.91,0,1,1,1-.91Zm-.07,9.21H338.7V39.07h1.78Z"/><path class="cls-1" d="M351.19,42.75a4.09,4.09,0,1,1-4.1-3.82A3.89,3.89,0,0,1,351.19,42.75Zm-6.41,0a2.32,2.32,0,1,0,2.31-2.3A2.25,2.25,0,0,0,344.78,42.75Z"/><path class="cls-1" d="M361.1,41.54v4.88h-1.77V42.06a1.51,1.51,0,0,0-1.65-1.68,3.5,3.5,0,0,0-2.28.93v5.11h-1.79V39.07h1.79V40a5.06,5.06,0,0,1,3-1.07A2.42,2.42,0,0,1,361.1,41.54Z"/><path class="cls-1" d="M117.76,58h-3.29v8.61h-1.91V58h-3.29V56.36h8.49Z"/><path class="cls-1" d="M126.25,63.53h-5.93a2.06,2.06,0,0,0,2.17,1.85,3,3,0,0,0,2.21-.78l1,.93a4.76,4.76,0,0,1-3.25,1.26A3.79,3.79,0,0,1,118.52,63a3.76,3.76,0,0,1,3.87-3.81A3.71,3.71,0,0,1,126.25,63Zm-1.73-1.11a2,2,0,0,0-2.12-1.89,2,2,0,0,0-2.08,1.89Z"/><path class="cls-1" d="M135.42,60.68l-1.36.77a2.3,2.3,0,1,0,0,3l1.38.77a4.07,4.07,0,0,1-3.23,1.58,3.82,3.82,0,1,1,0-7.64A4,4,0,0,1,135.42,60.68Z"/><path class="cls-1" d="M145.32,61.77v4.88h-1.77V62.28a1.51,1.51,0,0,0-1.65-1.67,3.54,3.54,0,0,0-2.28.92v5.12h-1.79V56.36h1.79v3.87a5.08,5.08,0,0,1,3-1.08A2.43,2.43,0,0,1,145.32,61.77Z"/><path class="cls-1" d="M155.46,61.77v4.88h-1.78V62.28A1.5,1.5,0,0,0,152,60.61a3.52,3.52,0,0,0-2.28.92v5.12H148V59.3h1.79v.93a5.08,5.08,0,0,1,3-1.08A2.44,2.44,0,0,1,155.46,61.77Z"/><path class="cls-1" d="M166,63a4.09,4.09,0,1,1-4.1-3.82A3.88,3.88,0,0,1,166,63Zm-6.4,0a2.32,2.32,0,1,0,2.3-2.29A2.25,2.25,0,0,0,159.55,63Z"/><path class="cls-1" d="M170.17,66.65h-1.79V56.36h1.79Z"/><path class="cls-1" d="M180.78,63a4.09,4.09,0,1,1-4.1-3.82A3.88,3.88,0,0,1,180.78,63Zm-6.41,0a2.33,2.33,0,1,0,2.31-2.29A2.25,2.25,0,0,0,174.37,63Z"/><path class="cls-1" d="M190.56,59.3v6.79c0,2.53-1.67,3.6-3.8,3.6a7.08,7.08,0,0,1-3.7-1l.57-1.25a5.33,5.33,0,0,0,2.88.81,2,2,0,0,0,2.28-2.2v-.32a3.21,3.21,0,0,1-2.41,1,3.81,3.81,0,0,1,0-7.61,3.22,3.22,0,0,1,2.41,1V59.3Zm-1.77,5V61.67a2.41,2.41,0,0,0-2-1,2.3,2.3,0,0,0,0,4.58A2.43,2.43,0,0,0,188.79,64.25Z"/><path class="cls-1" d="M197.31,67.37c-.63,1.57-1.56,2.29-2.91,2.29a5.61,5.61,0,0,1-2-.4L193,68a3.42,3.42,0,0,0,1.2.26c.69,0,1.13-.34,1.58-1.17l.11-.24-3.26-7.58h1.88l2.18,5.42,2-5.42h1.86Z"/><path class="cls-1" d="M216.35,58.3l-1.59,1a3.45,3.45,0,1,0-2.67,5.7,3.43,3.43,0,0,0,2.67-1.32l1.59,1a5.3,5.3,0,1,1,0-6.41Z"/><path class="cls-1" d="M226.49,63a4.09,4.09,0,1,1-4.1-3.82A3.88,3.88,0,0,1,226.49,63Zm-6.41,0a2.33,2.33,0,1,0,2.31-2.29A2.25,2.25,0,0,0,220.08,63Z"/><path class="cls-1" d="M235.74,60.34a4.53,4.53,0,0,1,3.11-1.19,2.42,2.42,0,0,1,2.61,2.62v4.88h-1.79V62.28a1.46,1.46,0,0,0-1.52-1.67,3.4,3.4,0,0,0-2.18.79,4.74,4.74,0,0,1,.1,1v4.22h-1.78V62.28a1.47,1.47,0,0,0-1.53-1.67,3.09,3.09,0,0,0-2.07.79v5.25H228.9V59.3h1.79v1a4.24,4.24,0,0,1,2.85-1.15A2.36,2.36,0,0,1,235.74,60.34Z"/><path class="cls-1" d="M250.94,60.34a4.5,4.5,0,0,1,3.1-1.19,2.42,2.42,0,0,1,2.61,2.62v4.88h-1.79V62.28a1.46,1.46,0,0,0-1.51-1.67,3.4,3.4,0,0,0-2.19.79,4.74,4.74,0,0,1,.1,1v4.22h-1.78V62.28A1.47,1.47,0,0,0,248,60.61a3.1,3.1,0,0,0-2.07.79v5.25h-1.79V59.3h1.79v1a4.24,4.24,0,0,1,2.85-1.15A2.38,2.38,0,0,1,250.94,60.34Z"/><path class="cls-1" d="M261.28,57.43a1,1,0,0,1-1.95,0,1,1,0,0,1,1.95,0Zm-.07,9.22h-1.78V59.3h1.78Z"/><path class="cls-1" d="M269.79,60l-.6,1.16a5.25,5.25,0,0,0-2.46-.69c-.79,0-1.2.27-1.2.81s.25.59,1.26.87l.82.22c1.74.47,2.38,1.05,2.38,2.14,0,1.47-1.13,2.32-3.07,2.32a6.23,6.23,0,0,1-3.42-1l.62-1.13a5.56,5.56,0,0,0,2.86.84c.9,0,1.34-.3,1.34-.92,0-.44-.22-.6-1.15-.86l-.92-.25c-1.8-.5-2.43-1-2.43-2.09,0-1.41,1.12-2.25,3-2.25A5.91,5.91,0,0,1,269.79,60Z"/><path class="cls-1" d="M278.1,60l-.6,1.16a5.21,5.21,0,0,0-2.45-.69c-.8,0-1.21.27-1.21.81s.25.59,1.27.87l.82.22c1.73.47,2.38,1.05,2.38,2.14,0,1.47-1.13,2.32-3.07,2.32a6.23,6.23,0,0,1-3.42-1l.61-1.13a5.63,5.63,0,0,0,2.87.84c.89,0,1.34-.3,1.34-.92,0-.44-.23-.6-1.15-.86l-.93-.25c-1.79-.5-2.42-1-2.42-2.09,0-1.41,1.12-2.25,2.95-2.25A5.91,5.91,0,0,1,278.1,60Z"/><path class="cls-1" d="M282.69,57.43a1,1,0,0,1-2,0,1,1,0,0,1,2,0Zm-.08,9.22h-1.77V59.3h1.77Z"/><path class="cls-1" d="M293.33,63a4.09,4.09,0,1,1-4.1-3.82A3.88,3.88,0,0,1,293.33,63Zm-6.41,0a2.32,2.32,0,1,0,2.31-2.29A2.25,2.25,0,0,0,286.92,63Z"/><path class="cls-1" d="M303.24,61.77v4.88h-1.77V62.28a1.51,1.51,0,0,0-1.65-1.67,3.54,3.54,0,0,0-2.28.92v5.12h-1.79V59.3h1.79v.93a5.08,5.08,0,0,1,3-1.08A2.44,2.44,0,0,1,303.24,61.77Z"/><path class="cls-1" d="M118.5,17.63a1.1,1.1,0,0,0,0-2.2,1.1,1.1,0,0,0,0,2.2Z"/><path class="cls-1" d="M115.52,17.63a1.1,1.1,0,1,0-1.12-1.1A1.09,1.09,0,0,0,115.52,17.63Z"/><path class="cls-1" d="M122.87,22.44a7.3,7.3,0,0,1-2.87.45h-6.18c-1.72,0-2.75-.68-2.75-2.34a7.06,7.06,0,0,1,.29-1.82l-1.66-.31a9.22,9.22,0,0,0-.43,2.66c0,2.83,1.85,3.69,4.43,3.69h6a10.91,10.91,0,0,0,5-.94V17.12h-1.82Z"/><path class="cls-1" d="M137.55,17.58a3.78,3.78,0,0,0-3.89,4,4.53,4.53,0,0,0,.11,1,5.21,5.21,0,0,1-2,.35,5.51,5.51,0,0,1-2.37-.49V13.61h-1.82v9.08a1.2,1.2,0,0,0,.73,1.25,6.89,6.89,0,0,0,6.17.18,3.9,3.9,0,0,0,6.9-2.56A3.78,3.78,0,0,0,137.55,17.58Zm0,6.19a2.05,2.05,0,0,1-2.05-2.21,2.08,2.08,0,1,1,4.14,0A2.06,2.06,0,0,1,137.52,23.77Z"/><path class="cls-1" d="M183.71,22.4a5.52,5.52,0,0,1-2.37.49,5,5,0,0,1-1.91-.35,4,4,0,0,0,.11-1,3.88,3.88,0,1,0-7.75,0,4.55,4.55,0,0,0,.1,1,5.06,5.06,0,0,1-1.89.34h-3.2a4,4,0,0,0,1.84-3.29c0-2-1.59-3-3.85-3a9.18,9.18,0,0,0-4,1l-.31,1.41,2.46,3.84h-3.25a5.37,5.37,0,0,1-2.36-.49V13.61h-1.82V22.4a5.42,5.42,0,0,1-2.37.49h-2.32V18.1a7.58,7.58,0,0,0-3.36-.84c-2.56,0-4.19,1.51-4.19,3.78s1.57,3.73,4.4,3.73H149c-.09,1.48-.86,2.23-2.64,2.23a7.53,7.53,0,0,1-2.47-.43l-.32,1.73a8.67,8.67,0,0,0,2.73.44c2.46,0,4.31-1.1,4.5-4h2.34a6.69,6.69,0,0,0,3.27-.84,6.79,6.79,0,0,0,3.09.84h10.73a5.35,5.35,0,0,0,2.46-.65,4,4,0,0,0,6.06,0,6.11,6.11,0,0,0,6.83-.94V13.61h-1.82ZM149,22.89h-1.62c-1.33,0-2.31-.69-2.31-2a2,2,0,0,1,2.28-2,3.72,3.72,0,0,1,1.65.38Zm15.61-.28-2.05-3.71a5.18,5.18,0,0,1,2.22-.52c1.29,0,2.09.58,2.09,1.63A3.08,3.08,0,0,1,164.56,22.61Zm11.08,1.16a2.05,2.05,0,0,1-2-2.21,2.08,2.08,0,1,1,4.14,0A2.06,2.06,0,0,1,175.64,23.77Z"/><rect class="cls-1" x="188.62" y="13.61" width="1.82" height="11.16"/><path class="cls-1" d="M202.38,15.64a1.1,1.1,0,0,0,0-2.2,1.1,1.1,0,0,0,0,2.2Z"/><path class="cls-1" d="M199.39,15.64a1.1,1.1,0,1,0-1.11-1.1A1.09,1.09,0,0,0,199.39,15.64Z"/><path class="cls-1" d="M208.35,25.88a1.1,1.1,0,1,0,1.09,1.1A1.09,1.09,0,0,0,208.35,25.88Z"/><path class="cls-1" d="M211.33,25.88a1.1,1.1,0,0,0,0,2.19,1.1,1.1,0,1,0,0-2.19Z"/><path class="cls-1" d="M216.39,15.73a1.08,1.08,0,0,0,1.09-1.08,1.1,1.1,0,0,0-1.09-1.13,1.12,1.12,0,0,0-1.13,1.13A1.1,1.1,0,0,0,216.39,15.73Z"/><path class="cls-1" d="M226.59,15a1.1,1.1,0,1,0-1.09-1.1A1.09,1.09,0,0,0,226.59,15Z"/><path class="cls-1" d="M223.61,15a1.1,1.1,0,0,0,0-2.2,1.1,1.1,0,1,0,0,2.2Z"/><path class="cls-1" d="M232.3,15.73a1.09,1.09,0,1,0,0-2.18,1.09,1.09,0,1,0,0,2.18Z"/><path class="cls-1" d="M232.93,22.49a6.9,6.9,0,0,1-2.61.4h-2.91A3.8,3.8,0,0,0,229,19.84c0-2.1-1.58-3.5-3.87-3.5s-3.88,1.38-3.88,3.5a3.82,3.82,0,0,0,1.54,3.05h-3.12a5.36,5.36,0,0,1-2.35-.49V17.12h-1.82V22.4a5.42,5.42,0,0,1-2.37.49,5.33,5.33,0,0,1-2.35-.49V17.12h-1.82V22.4a5.45,5.45,0,0,1-2.37.49h-2.33V17.81a7.25,7.25,0,0,0-3.34-.84c-2.51,0-4.18,1.5-4.18,3.9s1.73,3.9,4.39,3.9h5.48a6.75,6.75,0,0,0,3.25-.84,6.81,6.81,0,0,0,6.54,0,6.66,6.66,0,0,0,3.26.84h10.93a7.87,7.87,0,0,0,4.2-1.12V17.12h-1.82Zm-30.52.4h-1.58a2.11,2.11,0,1,1-.09-4.21,3.73,3.73,0,0,1,1.67.38Zm22.68-.25A3,3,0,0,1,223,20.07a2.06,2.06,0,0,1,4.11,0A3,3,0,0,1,225.09,22.64Z"/><path class="cls-1" d="M235.3,13.55a1.09,1.09,0,1,0,0,2.18,1.09,1.09,0,1,0,0-2.18Z"/><path class="cls-1" d="M237,21c0,2.17,1.57,3.73,4.4,3.73h1.33c-.09,1.48-.86,2.23-2.64,2.23a7.53,7.53,0,0,1-2.47-.43l-.32,1.73a8.67,8.67,0,0,0,2.73.44c2.61,0,4.52-1.24,4.52-4.51V18.1a7.58,7.58,0,0,0-3.36-.84C238.66,17.26,237,18.77,237,21Zm5.73,1.85h-1.62c-1.33,0-2.31-.69-2.31-2a2,2,0,0,1,2.28-2,3.72,3.72,0,0,1,1.65.38Z"/><path class="cls-1" d="M260.2,17.63a1.1,1.1,0,1,0,0-2.2,1.1,1.1,0,0,0,0,2.2Z"/><path class="cls-1" d="M257.22,17.63a1.1,1.1,0,1,0-1.12-1.1A1.09,1.09,0,0,0,257.22,17.63Z"/><path class="cls-1" d="M264.57,22.44a7.3,7.3,0,0,1-2.87.45h-6.18c-1.72,0-2.75-.68-2.75-2.34a7.06,7.06,0,0,1,.29-1.82l-1.66-.31a9.22,9.22,0,0,0-.43,2.66c0,2.83,1.85,3.69,4.43,3.69h6a10.91,10.91,0,0,0,4.95-.94V17.12h-1.82Z"/><path class="cls-1" d="M275.63,22.31a4.34,4.34,0,0,1-2.25.58l-1.71-7.33h-1.81l1.68,7.33h-2.93v1.88h4.69a6.06,6.06,0,0,0,4.14-1.59V13.61h-1.81Z"/><path class="cls-1" d="M302,15.73a1.09,1.09,0,1,0,0-2.18,1.09,1.09,0,1,0,0,2.18Z"/><path class="cls-1" d="M302.65,22.49a6.22,6.22,0,0,1-2.37.4h-2.23V20.84c0-2.83-1.61-4.22-3.81-4.22-1.94,0-3.57,1.1-5.33,2.92V17.7h-1.82v5.19h-2.37a5.51,5.51,0,0,1-2.37-.49V13.61h-1.82v9.08a1.19,1.19,0,0,0,.74,1.25,7.12,7.12,0,0,0,3.28.83h15.84a7.79,7.79,0,0,0,4.08-1.12V17.12h-1.82Zm-6.4.4h-7.34V21.77c1.94-2.26,3.45-3.38,5-3.38,1.75,0,2.3,1.36,2.3,2.74Z"/><path class="cls-1" d="M305,13.55a1.09,1.09,0,1,0,0,2.18,1.09,1.09,0,1,0,0-2.18Z"/><path class="cls-1" d="M313.7,22.31a4.27,4.27,0,0,1-2.24.58l-1.72-7.33h-1.8l1.68,7.33h-2.93v1.88h4.69a6.06,6.06,0,0,0,4.14-1.59V13.61H313.7Z"/><rect class="cls-1" x="318.61" y="13.61" width="1.82" height="11.16"/><path class="cls-1" d="M329.39,15.64a1.1,1.1,0,1,0-1.12-1.1A1.09,1.09,0,0,0,329.39,15.64Z"/><path class="cls-1" d="M332.37,15.64a1.1,1.1,0,1,0-1.09-1.1A1.1,1.1,0,0,0,332.37,15.64Z"/><path class="cls-1" d="M341.45,14.51h-.89c-.69,0-1-.32-1-.69a.56.56,0,0,1,.58-.58.73.73,0,0,1,.47.18l.67-.71a1.81,1.81,0,0,0-1.26-.51,1.38,1.38,0,0,0-1.46,1.39,1.4,1.4,0,0,0,.35.92h-.73V15.7h3.23Z"/><path class="cls-1" d="M347.87,25.88a1.1,1.1,0,0,0,0,2.19,1.1,1.1,0,1,0,0-2.19Z"/><path class="cls-1" d="M344.89,25.88A1.1,1.1,0,1,0,346,27,1.1,1.1,0,0,0,344.89,25.88Z"/><path class="cls-1" d="M356.81,22.89a3.2,3.2,0,1,0-5.66-2.17,3,3,0,0,0,.83,2.17h-2.35a5.37,5.37,0,0,1-2.36-.49V17.12h-1.82V22.4a5.42,5.42,0,0,1-2.37.49,5.36,5.36,0,0,1-2.35-.49V17.12h-1.82V22.4a5.42,5.42,0,0,1-2.37.49h-2.32V17.81a7.33,7.33,0,0,0-3.35-.84c-2.51,0-4.17,1.5-4.17,3.9s1.72,3.9,4.38,3.9h5.63a6.69,6.69,0,0,0,3.1-.84,6.81,6.81,0,0,0,6.54,0,6.79,6.79,0,0,0,3.09.84H361.1V21c0-4.62-2.84-6.36-6.42-6.36a13.33,13.33,0,0,0-1.91.14v1.68a11,11,0,0,1,1.87-.17c2.38,0,4.65,1.09,4.65,4.62v2Zm-24.41,0h-1.58a2.11,2.11,0,1,1-.09-4.21,3.73,3.73,0,0,1,1.67.38Zm22,0A1.79,1.79,0,0,1,352.8,21,1.58,1.58,0,1,1,356,21,1.77,1.77,0,0,1,354.38,22.89Z"/><path class="cls-2" d="M4.11,27.67l-.38-.17c-.08.18-.17.35-.25.52l.35.18Z"/><path class="cls-2" d="M4,22.64l-.57-.37-.26.39.54.36C3.75,22.89,3.85,22.77,4,22.64Z"/><path class="cls-2" d="M3.84,25.25l-.34-.19-.26.44.32.18C3.65,25.54,3.74,25.39,3.84,25.25Z"/><path class="cls-2" d="M5.13,26l-.43-.24-.28.47.42.25C4.93,26.28,5,26.12,5.13,26Z"/><path class="cls-2" d="M4.48,30.12,4.25,30c-.07.17-.13.33-.19.5l.19.09C4.32,30.45,4.4,30.28,4.48,30.12Z"/><path class="cls-2" d="M4.43,23.54l.41.28.31-.4-.44-.28C4.62,23.28,4.52,23.41,4.43,23.54Z"/><path class="cls-2" d="M2.12,24.3l-.23.4.46.27.26-.4Z"/><path class="cls-2" d="M5.43,20.83l-.64-.49c-.13.16-.26.32-.38.49L5,21.3l.2-.24A2.29,2.29,0,0,1,5.43,20.83Z"/><path class="cls-2" d="M3.13,29.61l-.28-.11c-.06.14-.11.29-.17.43l.26.11Z"/><path class="cls-2" d="M8.76,17.57,8,16.8c-.23.22-.46.43-.68.66l.71.72Z"/><path class="cls-2" d="M7.3,23.08l.44-.49-.56-.42-.4.5Z"/><path class="cls-2" d="M7.6,20.67l.56-.54-.6-.53L7,20.18Z"/><path class="cls-2" d="M6.75,25.11l.53.36L7.61,25l-.56-.37Z"/><path class="cls-2" d="M6.37,24.22l-.5-.33-.29.43.47.32Z"/><path class="cls-2" d="M6.07,21.32l-.22.26-.17.24.48.37.43-.47Z"/><path class="cls-2" d="M2.75,27.05l-.26-.12c-.08.16-.15.32-.22.48l.22.11C2.57,27.36,2.66,27.21,2.75,27.05Z"/><path class="cls-2" d="M5.82,19.1l.66.59L7,19.13l-.7-.62Z"/><path class="cls-2" d="M6.43,26.67,6,26.41l-.29.52.43.25Z"/><path class="cls-2" d="M5.44,28.28l-.37-.16-.27.58.32.16C5.22,28.66,5.33,28.47,5.44,28.28Z"/><path class="cls-2" d="M11.1,20l-.64.6.61.63.64-.6Z"/><path class="cls-2" d="M11.88,17.69l-.82.64L12.48,20c.25-.21.51-.41.77-.61Z"/><path class="cls-2" d="M1.73,29.08,1.57,29c-.05.12-.09.24-.14.37l.13.05C1.61,29.32,1.67,29.2,1.73,29.08Z"/><path class="cls-2" d="M11.73,13.76c-.35.24-.69.49-1,.75l.79,1c.35-.22.69-.44,1-.65Z"/><path class="cls-2" d="M9.62,21.44,9.11,22l.64.57.06-.06c.15-.17.31-.33.47-.5Z"/><path class="cls-2" d="M13.75,12.45c-.41.25-.81.5-1.22.77l3,4.51,1-.62Z"/><path class="cls-2" d="M30,8.11a32.74,32.74,0,0,0-13.58,2.94L19,15.93a27.44,27.44,0,0,1,20.54-.66l1.9-5.14A32.91,32.91,0,0,0,30,8.11Z"/><path class="cls-2" d="M15.88,11.32c-.48.23-1,.47-1.43.73l2.77,4.72c.39-.21.79-.41,1.19-.6Z"/><path class="cls-2" d="M12.77,15.22c-.33.22-.67.45-1,.69L14,18.79c.29-.21.59-.42.9-.62Z"/><path class="cls-2" d="M.31,28.89c0-.1.08-.2.13-.3l-.33-.12c0,.09-.07.19-.11.29Z"/><path class="cls-2" d="M8.63,20.55c-.18.19-.36.37-.53.56l.57.51.55-.53Z"/><path class="cls-2" d="M7.87,23.51l.6.47.43-.5L8.27,23Z"/><path class="cls-2" d="M.88,26.7l.38.19c.08-.14.15-.28.22-.42l-.41-.19Z"/><path class="cls-2" d="M10.92,16.55l-.83.67.67.76.86-.59Z"/><path class="cls-2" d="M9.18,18l-.67.63.62.62.71-.57Z"/><path class="cls-2" d="M10.82,19.71l-.63-.65-.66.61.6.61C10.36,20.08,10.59,19.9,10.82,19.71Z"/><path class="cls-2" d="M10.6,16.15l-.78-.94L9,15.93l.76.87C10,16.58,10.31,16.36,10.6,16.15Z"/><path class="cls-3" d="M49.55,67.09,49,66.38c-.21.15-.42.3-.64.44l.56.74Z"/><path class="cls-3" d="M48.56,65.78l-.44-.58-.65.42.47.63Z"/><path class="cls-3" d="M49.82,61l-.47-.48c-.13.13-.27.24-.41.36l.5.49Z"/><path class="cls-3" d="M47.08,65.11l.63-.45-.45-.6-.65.42Z"/><path class="cls-3" d="M47.74,68.4l-.56-.84-.81.46.57.9C47.21,68.75,47.48,68.58,47.74,68.4Z"/><path class="cls-3" d="M51.26,65.66l-.5-.58c-.1.08-.2.17-.3.24l-.19.15.52.59C51,65.93,51.11,65.8,51.26,65.66Z"/><path class="cls-3" d="M49.94,64.68l.27-.23-.4-.46-.5.38.42.48Z"/><path class="cls-3" d="M51.22,59.47l-.4-.36c-.13.14-.27.29-.41.42l.44.37Z"/><path class="cls-3" d="M50.79,62l-.39-.4c-.12.12-.25.23-.38.34l.41.41Z"/><path class="cls-3" d="M51.76,63l-.35-.35-.36.32.36.36Z"/><path class="cls-3" d="M47.38,62.18l.54.61.49-.42-.51-.6C47.73,61.91,47.56,62.05,47.38,62.18Z"/><path class="cls-3" d="M45,68.11l-.5-.89-1,.43.52,1Z"/><path class="cls-3" d="M42.11,69.92l.57,1.27c.39-.17.78-.36,1.17-.55l-.57-1.16C42.89,69.64,42.5,69.78,42.11,69.92Z"/><path class="cls-3" d="M37.87,67.16q-.66.2-1.32.36l1.52,5.26c.54-.13,1.06-.28,1.59-.44Z"/><path class="cls-3" d="M46,65.81l-.47-.72c-.26.15-.53.29-.79.42l.48.76Z"/><path class="cls-3" d="M49.3,63.39l-.42-.49c-.17.14-.34.26-.52.39l.45.51C49,63.67,49.14,63.53,49.3,63.39Z"/><path class="cls-3" d="M46.82,67l-.48-.73-.81.43.51.79Z"/><path class="cls-3" d="M45.84,69.59l-.57-1c-.33.16-.66.32-1,.46l.58,1.08Z"/><path class="cls-3" d="M44.55,65.18c.26-.15.51-.31.76-.47L44.82,64l-.75.46Z"/><path class="cls-3" d="M56.63,58.87l.29.18.15-.24-.27-.19Z"/><path class="cls-3" d="M55.56,61l.27-.35-.34-.26-.28.35Z"/><path class="cls-3" d="M46.29,64.05l.62-.45-.54-.7-.14.1h0l-.48.34Z"/><path class="cls-3" d="M55.8,57.91l-.12-.08-.21.3.13.09Z"/><path class="cls-3" d="M43.33,67.29c.31-.15.62-.3.93-.47l-1.07-1.88-.88.46Z"/><path class="cls-3" d="M52.27,60.41l-.33-.3c-.12.14-.25.27-.37.4l.36.3C52,60.68,52.16,60.55,52.27,60.41Z"/><path class="cls-3" d="M40.42,72.09l1.37-.52-2.08-5c-.38.15-.78.28-1.17.41Z"/><path class="cls-3" d="M42,69.55c.38-.15.76-.31,1.13-.48l-1.6-3.27c-.33.15-.67.3-1,.44Z"/><path class="cls-3" d="M36,67.65a27.43,27.43,0,0,1-20.28-3.4l-2.86,4.66a32.81,32.81,0,0,0,24.62,4Z"/><path class="cls-3" d="M53.29,61.32,53,61.08l-.34.36.29.25C53.08,61.57,53.19,61.45,53.29,61.32Z"/><path class="cls-3" d="M53.2,59.26l.34-.44-.27-.21L52.9,59Z"/><path class="cls-3" d="M52.86,64.12l-.45-.45-.34.3.47.47C52.65,64.33,52.76,64.23,52.86,64.12Z"/><path class="cls-3" d="M52.41,57.92l-.31-.24-.41.48.35.26C52.17,58.26,52.29,58.09,52.41,57.92Z"/><path class="cls-3" d="M54.68,57.13,54.49,57l-.26.36.22.13C54.52,57.37,54.6,57.25,54.68,57.13Z"/><path class="cls-3" d="M53.75,62.35l.42.36.29-.34L54.07,62Z"/><path class="cls-3" d="M54.31,60.07l.29-.41-.19-.15-.33.39Z"/><path class="cls-3" d="M53.27,56.15l-.3.42.25.15.27-.42Z"/><path class="cls-1" d="M33.9,44.81a5.47,5.47,0,1,1,0-7.73l3.87-3.87a10.95,10.95,0,1,0,0,15.47Z"/><path class="cls-1" d="M79.7,44.81a5.47,5.47,0,1,1,0-7.73l3.87-3.87a10.95,10.95,0,1,0,0,15.47Z"/><rect class="cls-1" x="40.3" y="31.1" width="5.47" height="19.69"/><polygon class="cls-1" points="63.51 31.1 48.9 31.1 48.9 36.57 56.6 36.57 53.47 38.36 53.47 50.79 58.94 50.79 58.94 36.57 63.51 36.57 63.51 31.1"/><path class="cls-4" d="M19.14,53.4,18.57,53l-.54.56c.18.18.36.36.55.53Z"/><path class="cls-4" d="M17.4,51.88l-.46.4c.16.21.33.4.5.6l.51-.47C17.76,52.24,17.58,52.06,17.4,51.88Z"/><path class="cls-4" d="M19.65,55.53,19,55.12l-.49.62.65.5Z"/><path class="cls-4" d="M15.55,52.12l-.44-.54-.23.16c.13.2.26.39.4.58Z"/><path class="cls-4" d="M18.14,54.54l-.63-.49-.41.43c.19.2.39.39.59.57Z"/><path class="cls-4" d="M16.45,53.79l.37-.35c-.19-.18-.38-.36-.57-.56l-.33.29C16.09,53.38,16.27,53.59,16.45,53.79Z"/><path class="cls-4" d="M39.13,54.61A16.29,16.29,0,0,1,30,57.36a16.08,16.08,0,0,1-3-.27L26,62.46a22.29,22.29,0,0,0,4,.37,21.86,21.86,0,0,0,12.13-3.66Z"/><path class="cls-4" d="M12.89,53.18l-.32.23L13,54l.35-.27C13.19,53.57,13,53.38,12.89,53.18Z"/><path class="cls-4" d="M25.48,56.72,24,61.94c.38.12.75.23,1.13.33l.41.09L26.61,57C26.23,56.92,25.85,56.82,25.48,56.72Z"/><path class="cls-4" d="M14.16,54.7l-.38.33c.19.23.38.46.58.68l.42-.38Z"/><path class="cls-4" d="M19.33,54.68l.6.45.57-.8L19.91,54Z"/><path class="cls-4" d="M20.76,57.25l.51-.92L20.46,56l-.52.81C20.21,56.94,20.48,57.09,20.76,57.25Z"/><path class="cls-4" d="M14.45,52.94,14,52.38l-.22.16c.13.2.27.4.41.59Z"/><path class="cls-4" d="M16.77,51.21c-.15-.17-.3-.34-.44-.52l-.34.25c.12.19.25.38.38.56Z"/><path class="cls-4" d="M21.75,59.77l-1.11-.45-.5,1c.38.21.76.4,1.14.59Z"/><path class="cls-4" d="M23.76,60.4c-.43-.11-.86-.23-1.28-.37L22,61.21c.44.19.89.36,1.34.52Z"/><path class="cls-4" d="M22.36,58.33c-.35-.11-.69-.24-1-.37l-.47.93q.53.27,1.05.51Z"/><path class="cls-4" d="M24.94,56.55c-.32-.1-.65-.22-1-.35l-1.36,3.49c.4.16.82.31,1.23.44Z"/><path class="cls-4" d="M20.67,55.63c.24.15.49.29.74.43l.48-.86c-.23-.13-.46-.27-.68-.42Z"/><path class="cls-4" d="M15.81,54.38c-.21-.19-.41-.39-.6-.59l-.31.26c.18.22.37.44.56.65Z"/><path class="cls-4" d="M21.5,57.63c.32.16.65.3,1,.43L23.37,56c-.28-.12-.55-.26-.82-.39Z"/><path class="cls-4" d="M18,57.89l-.37-.25c-.14-.08-.27-.18-.4-.27l-.49.62c.25.21.5.41.76.6Z"/><path class="cls-4" d="M17.21,55.59l-.66-.53-.38.39.63.6Z"/><path class="cls-4" d="M20.55,57.63c-.3-.14-.59-.28-.88-.44l-.46.73.87.54Z"/><path class="cls-4" d="M16.27,56.65c-.23-.18-.46-.38-.69-.58l-.44.47.67.64Z"/><path class="cls-4" d="M19.82,58.93c-.31-.15-.63-.32-.93-.5l-.51.8c.31.21.62.41.94.6Z"/><path class="cls-4" d="M18.38,57.34l.45-.64c-.24-.14-.48-.3-.72-.46l-.44.55.35.29Z"/><path class="cls-5" d="M27.64,22.89l-.05-.44c-.29,0-.58.06-.87.11l.08.52C27.08,23,27.36,22.94,27.64,22.89Z"/><path class="cls-5" d="M27.84,24.39l-.08-.6-.83.1.11.68C27.3,24.5,27.57,24.44,27.84,24.39Z"/><path class="cls-5" d="M16.37,23.92,17.26,25c.31-.29.64-.56,1-.83l-.74-1.06C17.11,23.37,16.74,23.64,16.37,23.92Z"/><path class="cls-5" d="M20.55,24.37,20,23.45c-.32.19-.65.38-1,.59l.64,1C20,24.79,20.26,24.57,20.55,24.37Z"/><path class="cls-5" d="M26.28,19.73l.09.58c.3-.07.61-.13.92-.18l-.06-.52Z"/><path class="cls-5" d="M21.49,22.06l-.39-.88c-.34.14-.68.3-1,.46l.48.93C20.87,22.39,21.17,22.22,21.49,22.06Z"/><path class="cls-5" d="M19.8,23l-.56-1c-.36.2-.72.41-1.07.63l.67,1C19.15,23.48,19.47,23.26,19.8,23Z"/><path class="cls-5" d="M28.49,19.52l0,.44.83-.07,0-.39Z"/><path class="cls-5" d="M29.4,21.26V21l-.81,0v.33C28.86,21.3,29.13,21.28,29.4,21.26Z"/><path class="cls-5" d="M15.85,24.32c-.25.2-.51.42-.75.64s-.25.23-.38.36l3.85,3.88c.26-.25.53-.49.8-.73Z"/><path class="cls-5" d="M29.52,24.13l0-.41c-.26,0-.52,0-.77,0l0,.5Z"/><path class="cls-5" d="M27.47,21.51l-.06-.42q-.45,0-.9.12l.08.48C26.88,21.62,27.17,21.56,27.47,21.51Z"/><path class="cls-5" d="M29.46,22.63v-.27c-.27,0-.53,0-.8,0l0,.35C28.93,22.68,29.19,22.65,29.46,22.63Z"/><path class="cls-5" d="M25.3,20.57l-.14-.64c-.32.06-.63.13-.94.21l.19.7Z"/><path class="cls-5" d="M25.92,23.33l-.13-.6-.82.2.17.66Z"/><path class="cls-5" d="M26.25,24.79l-.17-.74c-.26.05-.51.11-.77.18l.22.8Q25.89,24.9,26.25,24.79Z"/><path class="cls-5" d="M20.73,24.7a9.8,9.8,0,0,0-.87.55l1.26,1.91q.36-.24.75-.45Z"/><path class="cls-5" d="M22.09,23.42l-.37-.82-.91.43.45.88C21.53,23.74,21.81,23.57,22.09,23.42Z"/><path class="cls-5" d="M22.83,25.1l-.76.37.45.88c.24-.12.47-.24.71-.34Z"/><path class="cls-5" d="M14.36,25.68A21.81,21.81,0,0,0,8.15,41h5.47a16.36,16.36,0,0,1,4.62-11.42Z"/><path class="cls-5" d="M18.43,24.46c-.34.24-.68.48-1,.75l2.37,2.9c.25-.2.51-.39.78-.58Z"/><path class="cls-5" d="M23.07,21.33l.22-.08L23,20.47l-.93.31.32.83Z"/><path class="cls-5" d="M22.67,24.75l-.38-.86c-.28.12-.56.26-.83.4l.47.92C22.17,25.05,22.42,24.9,22.67,24.75Z"/><path class="cls-5" d="M23.74,22.62l-.23-.7-.19.06-.65.24L23,23Z"/><path class="cls-5" d="M24.65,25.37l-.29-.86-.71.25.35.91C24.21,25.56,24.43,25.47,24.65,25.37Z"/><path class="cls-5" d="M24.19,24l-.25-.74c-.26.08-.52.18-.77.28l.31.8Z"/><path class="cls-5" d="M25.61,22l-.12-.55-.88.2.17.62C25.05,22.12,25.33,22,25.61,22Z"/></g></g></svg>