<?xml version="1.0" encoding="UTF-8"?>
<svg id="Layer_2" data-name="Layer 2" xmlns="http://www.w3.org/2000/svg" viewBox="0 0 381.87 117.2">
  <defs>
    <style>
      .cls-1, .cls-2 {
        fill: #00080b;
      }

      .cls-1, .cls-3 {
        fill-rule: evenodd;
      }

      .cls-4, .cls-3 {
        fill: #d7a461;
      }
    </style>
  </defs>
  <rect class="cls-4" x="-.23" y="114.9" width="254.79" height="2.31"/>
  <rect class="cls-4" x="-.23" y="99.89" width="254.79" height="2.31"/>
  <path class="cls-3" d="M244.4,110.66c-.84-.4-1.28-1.56-1.46-2.12-.04-.12-.2-.13-.26-.03-.35.63-1.05,2.21.04,3.4-.06,0-.12,0-.18,0-.85-.05-1.65-.31-2.44-.72-1.55-1.53-1.93-2.89-1.38-3.91.4-.72,1.1-1.2,1.79-1.2-.14.66.39,1.35,1.39,1.3s1.45-.46,1.37-1.38c-.09-.96-1.2-1.46-2.47-1.46s-2.7.7-3.35,1.89c-.49.9-.61,1.8-.48,2.61-.14-.11-.28-.23-.43-.34-1.74-1.38-3.7-2.94-6.16-3.95-1.79-.73-4.54-1.57-7.7-.35h0s0,0,0,0c0,0,0,0,0,0-3.34,1.29-5.68,2.46-7.01-.6-.04-.09-.14-.13-.22-.09-.36.14-.61.33-.85.72-1.22-.44-2.51.02-2.78.13-.03.01-.05.05-.03.08.11.25.6,1.28,1.59,1.83-.4.41-.57,1.09-.56,1.68,0,.11.12.18.22.12,2.36-1.31,4.33-1.44,5.05-1.44.35,0,.68-.02,1.02-.06-1.18,1.01-2.99,2.25-4.98,3.26-2.1.85-3.76,1.24-5.04.64-.84-.4-1.28-1.56-1.46-2.12-.04-.12-.2-.13-.26-.03-.35.63-1.05,2.21.04,3.4-.06,0-.12,0-.18,0-.85-.05-1.65-.31-2.44-.72-1.55-1.53-1.93-2.89-1.38-3.91.4-.72,1.1-1.2,1.8-1.2-.14.66.39,1.35,1.39,1.3s1.46-.46,1.37-1.38c-.09-.96-1.2-1.46-2.47-1.46s-2.7.7-3.35,1.89c-.49.9-.61,1.8-.48,2.61-.14-.11-.29-.23-.43-.34-1.74-1.38-3.71-2.94-6.16-3.95-1.79-.73-4.54-1.57-7.7-.35h0s0,0,0,0c0,0,0,0,0,0-3.34,1.29-5.68,2.46-7.01-.6-.04-.09-.14-.13-.22-.09-.36.14-.61.33-.85.72-1.22-.44-2.51.02-2.78.13-.03.01-.04.05-.03.08.11.25.6,1.28,1.59,1.83-.4.41-.57,1.09-.56,1.68,0,.11.12.18.22.12,2.36-1.31,4.33-1.44,5.05-1.44.35,0,.68-.02,1.02-.06-1.18,1.01-2.99,2.25-4.98,3.26-2.1.85-3.76,1.24-5.04.64-.84-.4-1.28-1.56-1.46-2.12-.03-.12-.19-.13-.25-.03-.35.63-1.05,2.21.04,3.4-.06,0-.12,0-.18,0-.85-.05-1.65-.31-2.44-.72-1.55-1.53-1.93-2.89-1.38-3.91.39-.72,1.1-1.2,1.8-1.2-.14.66.39,1.35,1.39,1.3s1.45-.46,1.37-1.38c-.09-.96-1.2-1.46-2.47-1.46s-2.7.7-3.35,1.89c-.49.9-.61,1.8-.48,2.61-.14-.11-.29-.23-.43-.34-1.74-1.38-3.7-2.94-6.16-3.95-1.79-.73-4.54-1.57-7.7-.35h0s0,0,0,0c0,0,0,0,0,0-3.34,1.29-5.68,2.46-7.01-.6-.04-.09-.14-.13-.23-.09-.36.14-.61.33-.85.72-1.22-.44-2.51.02-2.78.13-.03.01-.04.05-.03.08.11.25.6,1.28,1.59,1.83-.4.41-.57,1.09-.56,1.68,0,.11.12.18.22.12,2.36-1.31,4.33-1.44,5.05-1.44.35,0,.68-.02,1.02-.06-1.18,1.01-2.99,2.25-4.98,3.26-2.1.85-3.76,1.24-5.04.64-.84-.4-1.28-1.56-1.46-2.12-.03-.12-.19-.13-.25-.03-.35.63-1.05,2.21.04,3.4-.06,0-.12,0-.18,0-.85-.05-1.65-.31-2.44-.72-1.55-1.53-1.93-2.89-1.38-3.91.4-.72,1.1-1.2,1.8-1.2-.15.66.38,1.35,1.38,1.3s1.46-.46,1.37-1.38c-.09-.96-1.2-1.46-2.47-1.46s-2.7.7-3.35,1.89c-.49.9-.61,1.8-.48,2.61-.14-.11-.29-.23-.43-.34-1.74-1.38-3.7-2.94-6.16-3.95-1.79-.73-4.54-1.57-7.7-.35h0s0,0,0,0c0,0,0,0,0,0-3.34,1.29-5.68,2.46-7.01-.6-.04-.09-.14-.13-.23-.09-.36.14-.61.33-.85.72-1.22-.44-2.51.02-2.78.13-.03.01-.04.05-.03.08.11.25.6,1.28,1.59,1.83-.4.41-.57,1.09-.56,1.68,0,.11.12.18.22.12,2.36-1.31,4.33-1.44,5.05-1.44.35,0,.68-.02,1.02-.06-1.18,1.01-2.99,2.25-4.98,3.26-2.1.85-3.76,1.24-5.04.64-.84-.4-1.29-1.56-1.46-2.12-.04-.12-.2-.13-.26-.03-.35.63-1.04,2.21.04,3.4-.06,0-.12,0-.18,0-.85-.05-1.65-.31-2.44-.72-1.55-1.53-1.93-2.89-1.38-3.91.4-.72,1.1-1.2,1.8-1.2-.14.66.39,1.35,1.38,1.3,1-.05,1.46-.46,1.37-1.38-.09-.96-1.2-1.46-2.47-1.46s-2.7.7-3.35,1.89c-.49.9-.61,1.8-.48,2.61-.14-.11-.29-.23-.43-.34-1.74-1.38-3.7-2.94-6.16-3.95-1.79-.73-4.54-1.57-7.7-.35,0,0,0,0,0,0,0,0,0,0,0,0-3.34,1.29-5.68,2.46-7.01-.6-.04-.09-.14-.13-.22-.09-.36.14-.61.33-.84.72-1.22-.44-2.51.02-2.78.13-.03.01-.04.05-.03.08.11.25.6,1.28,1.59,1.83-.4.41-.57,1.09-.56,1.68,0,.11.12.18.22.12,2.36-1.31,4.33-1.44,5.05-1.44.35,0,.68-.02,1.02-.06-1.18,1.01-2.99,2.25-4.98,3.26-2.1.85-3.76,1.24-5.04.64-.84-.4-1.28-1.56-1.46-2.12-.04-.12-.2-.13-.26-.03-.35.63-1.05,2.21.04,3.4-.06,0-.12,0-.18,0-.85-.05-1.65-.31-2.43-.72-1.55-1.53-1.94-2.89-1.38-3.91.4-.72,1.1-1.2,1.8-1.2-.14.66.39,1.35,1.39,1.3,1-.05,1.45-.46,1.37-1.38-.09-.96-1.2-1.46-2.47-1.46s-2.7.7-3.35,1.89c-.49.9-.61,1.8-.48,2.61-.14-.11-.28-.23-.43-.34-1.74-1.38-3.7-2.94-6.16-3.95-1.79-.73-4.54-1.57-7.7-.35h0s0,0,0,0c0,0,0,0,0,0-3.34,1.29-5.68,2.46-7.01-.6-.04-.09-.14-.13-.23-.09-.36.14-.61.33-.85.72-1.22-.44-2.51.02-2.78.13-.03.01-.04.05-.03.08.11.25.6,1.28,1.59,1.83-.4.41-.57,1.09-.56,1.68,0,.11.12.18.22.12,2.36-1.31,4.33-1.44,5.05-1.44.35,0,.68-.02,1.02-.06-1.18,1.01-2.99,2.25-4.98,3.26-2.1.85-3.76,1.24-5.04.64-.84-.4-1.28-1.56-1.46-2.12-.04-.12-.19-.13-.25-.03-.36.63-1.05,2.21.04,3.4-.06,0-.12,0-.18,0-.85-.05-1.65-.31-2.44-.72-1.55-1.53-1.93-2.89-1.38-3.91.4-.72,1.1-1.2,1.8-1.2-.14.66.39,1.35,1.39,1.3,1-.05,1.45-.46,1.37-1.38-.09-.96-1.2-1.46-2.47-1.46s-2.7.7-3.35,1.89c-.49.9-.61,1.8-.48,2.61-.14-.11-.29-.23-.43-.34-1.74-1.38-3.7-2.94-6.16-3.95-1.79-.73-4.54-1.57-7.7-.35,0,0,0,0,0,0,0,0,0,0,0,0-3.34,1.29-5.68,2.46-7.01-.6-.04-.09-.14-.13-.22-.09-.36.14-.61.33-.85.72-1.22-.44-2.51.02-2.78.13-.03.01-.04.05-.03.08.11.25.6,1.28,1.59,1.83-.4.41-.57,1.09-.56,1.68,0,.11.12.18.22.12,2.36-1.31,4.33-1.44,5.05-1.44.64,0,1.21-.06,1.84-.23-.29.48-.48,1.01-.56,1.57-.2,1.34.27,2.67,1.26,3.39,1.35.99,2.42.88,3.17.67.75-.21,1.38-.73,1.36-1.51-.02-.68-.5-1.18-1.31-1.04-.56.1-1.17.53-1.18,1.47-1.9-.29-1.84-2.01-1.72-2.82.17-1.15.9-2.07,2.26-2.59.9-.35,1.77-.5,2.58-.52-1.53,1.09-.98,2.7-.65,3.4.05.1.21.08.22-.03.09-.53.36-1.51,1.24-1.95,1.17-.59,2.71-.67,4.66.11,1.63.88,3.03,1.99,4.4,3.07.14.11.29.23.43.34-.54-.09-1.03-.09-1.59-.09-.72,0-2.76-.18-4.39-1.14-.1-.06-.2.01-.22.12-.1.62-.2,1.21.11,1.58-.99.55-1.66,1.58-1.76,1.83-.01.03,0,.07.03.08.28.11,1.41.4,2.63-.04.23.39.81.75,1.18.89.09.03.18-.01.22-.1,1.43-2.91,4.08-2.12,7.56-.63.12.05.24.11.36.15,0,0,0,0,0,0h0c.71.29,1.45.47,2.23.52.16,0,.32.01.49.01,4.02,0,8.86-2.71,11.71-4.92-.1,1.25.36,2.45,1.29,3.13,1.35.99,2.42.88,3.17.67.75-.21,1.38-.73,1.36-1.51-.02-.68-.5-1.18-1.31-1.04-.56.1-1.17.53-1.18,1.47-1.9-.29-1.84-2.01-1.72-2.82.17-1.15.9-2.07,2.26-2.59.9-.35,1.77-.5,2.58-.52-1.53,1.09-.98,2.7-.64,3.4.05.1.2.08.22-.03.08-.53.36-1.51,1.24-1.95,1.17-.59,2.71-.67,4.66.11,1.63.88,3.03,1.99,4.4,3.07.14.11.29.23.43.34-.54-.09-1.03-.09-1.59-.09-.72,0-2.76-.18-4.39-1.14-.1-.06-.2.01-.22.12-.1.62-.2,1.21.11,1.58-.99.55-1.66,1.58-1.76,1.83-.01.03,0,.07.03.08.28.11,1.41.4,2.63-.04.23.39.81.75,1.18.89.09.03.18-.01.22-.1,1.43-2.91,4.08-2.12,7.56-.63.12.05.24.11.36.15,0,0,0,0,0,0,.71.29,1.45.47,2.23.52.16,0,.32.01.49.01,4.03,0,8.86-2.71,11.71-4.92-.1,1.25.36,2.45,1.29,3.13,1.35.99,2.42.88,3.17.67.75-.21,1.38-.73,1.36-1.51-.02-.68-.5-1.18-1.31-1.04-.56.1-1.17.53-1.18,1.47-1.9-.29-1.84-2.01-1.72-2.82.17-1.15.9-2.07,2.26-2.59.9-.35,1.77-.5,2.58-.52-1.53,1.09-.98,2.7-.64,3.4.05.1.21.08.22-.03.09-.53.36-1.51,1.24-1.95,1.17-.59,2.71-.67,4.66.11,1.63.88,3.03,1.99,4.4,3.07.14.11.29.23.43.34-.54-.09-1.03-.09-1.59-.09-.72,0-2.76-.18-4.39-1.14-.1-.06-.2.01-.22.12-.1.62-.2,1.21.11,1.58-.99.55-1.66,1.58-1.76,1.83-.01.03,0,.07.03.08.28.11,1.41.4,2.63-.04.23.39.81.75,1.17.89.09.03.18-.01.22-.1,1.43-2.91,4.08-2.12,7.56-.63.12.05.24.11.36.15,0,0,0,0,0,0,.71.29,1.45.47,2.23.52.16,0,.32.01.49.01,4.02,0,8.86-2.71,11.71-4.92-.1,1.25.36,2.45,1.29,3.13,1.35.99,2.42.88,3.17.67.75-.21,1.38-.73,1.36-1.51-.02-.68-.5-1.18-1.31-1.04-.56.1-1.17.53-1.18,1.47-1.9-.29-1.84-2.01-1.72-2.82.17-1.15.9-2.07,2.26-2.59.9-.35,1.77-.5,2.58-.52-1.52,1.09-.98,2.7-.64,3.4.05.1.2.08.22-.03.08-.53.36-1.51,1.24-1.95,1.17-.59,2.71-.67,4.66.11,1.63.88,3.03,1.99,4.4,3.07.14.11.29.23.43.34-.54-.09-1.03-.09-1.59-.09-.72,0-2.76-.18-4.39-1.14-.1-.06-.2.01-.22.12-.1.62-.2,1.21.11,1.58-.99.55-1.66,1.58-1.76,1.83-.01.03,0,.07.03.08.28.11,1.41.4,2.63-.04.23.39.81.75,1.17.89.09.03.18-.01.22-.1,1.43-2.91,4.08-2.12,7.56-.63.12.05.24.11.36.15,0,0,0,0,0,0h0c.71.29,1.45.47,2.24.52.16,0,.32.01.49.01,4.02,0,8.86-2.71,11.71-4.92-.1,1.25.36,2.45,1.29,3.13,1.35.99,2.42.88,3.17.67.75-.21,1.38-.73,1.36-1.51-.02-.68-.5-1.18-1.31-1.04-.56.1-1.17.53-1.18,1.47-1.9-.29-1.84-2.01-1.72-2.82.17-1.15.9-2.07,2.26-2.59.9-.35,1.77-.5,2.58-.52-1.53,1.09-.98,2.7-.64,3.4.05.1.21.08.22-.03.09-.53.36-1.51,1.24-1.95,1.17-.59,2.71-.67,4.66.11,1.63.88,3.03,1.99,4.4,3.07.14.11.29.23.43.34-.54-.09-1.03-.09-1.59-.09-.73,0-2.76-.18-4.39-1.14-.1-.06-.2.01-.22.12-.1.62-.2,1.21.11,1.58-.99.55-1.66,1.58-1.76,1.83-.01.03,0,.07.03.08.28.11,1.41.4,2.63-.04.23.39.81.75,1.17.89.09.03.18-.01.22-.1,1.43-2.91,4.08-2.12,7.56-.63.12.05.24.11.36.15,0,0,0,0,0,0,.71.29,1.45.47,2.23.52.16,0,.32.01.49.01,4.02,0,8.86-2.71,11.71-4.92-.1,1.25.36,2.45,1.29,3.13,1.35.99,2.42.88,3.17.67.75-.21,1.38-.73,1.36-1.51-.02-.68-.5-1.18-1.31-1.04-.56.1-1.17.53-1.18,1.47-1.9-.29-1.84-2.01-1.72-2.82.17-1.15.89-2.07,2.26-2.59.9-.35,1.77-.5,2.58-.52-1.53,1.09-.98,2.7-.64,3.4.05.1.21.08.22-.03.09-.53.36-1.51,1.24-1.95,1.17-.59,2.71-.67,4.66.11,1.63.88,3.03,1.99,4.4,3.07.14.11.29.23.43.34-.54-.09-1.03-.09-1.59-.09-.72,0-2.76-.18-4.39-1.14-.1-.06-.2.01-.22.12-.1.62-.2,1.21.11,1.58-.99.55-1.66,1.58-1.76,1.83-.01.03,0,.07.03.08.28.11,1.41.4,2.63-.04.23.39.81.75,1.18.89.09.03.18-.01.22-.1,1.43-2.91,4.08-2.12,7.56-.63.12.05.24.11.36.15,0,0,0,0,0,0,.71.29,1.45.47,2.23.52.16,0,.32.01.49.01,4.02,0,8.86-2.71,11.71-4.92-.1,1.25.36,2.45,1.29,3.13,1.35.99,2.42.88,3.17.67.75-.21,1.38-.73,1.36-1.51-.02-.68-.5-1.18-1.31-1.04-.56.1-1.17.53-1.18,1.47-1.9-.29-1.84-2.01-1.72-2.82.17-1.15.9-2.07,2.26-2.59.9-.35,1.77-.5,2.58-.52-1.53,1.09-.98,2.7-.64,3.4.05.1.2.08.22-.03.08-.53.36-1.51,1.24-1.95,1.17-.59,2.71-.67,4.66.11,1.63.88,3.03,1.99,4.4,3.07.14.11.29.23.43.34-.54-.09-1.03-.09-1.59-.09-.72,0-2.76-.18-4.39-1.14-.1-.06-.2.01-.22.12-.1.62-.2,1.21.11,1.58-.99.55-1.66,1.58-1.76,1.83-.01.03,0,.07.03.08.28.11,1.41.4,2.63-.04.23.39.81.75,1.18.89.09.03.18-.01.22-.1,1.43-2.91,4.08-2.12,7.56-.63.12.05.24.11.36.15,0,0,0,0,0,0,.71.29,1.45.47,2.23.52.16,0,.32.01.49.01,3.98,0,8.75-2.65,11.61-4.85v-1.74c-1.18,1.01-3.12,2.25-5.12,3.26-2.1.85-3.76,1.24-5.04.64"/>
  <rect class="cls-4" x="-.23" y="15.01" width="254.79" height="2.31"/>
  <rect class="cls-4" x="-.23" y="0" width="254.79" height="2.31"/>
  <path class="cls-3" d="M244.4,10.77c-.84-.4-1.28-1.56-1.46-2.12-.04-.12-.2-.14-.26-.03-.35.63-1.05,2.21.04,3.4-.06,0-.12,0-.18,0-.85-.05-1.65-.31-2.44-.72-1.55-1.53-1.93-2.89-1.38-3.91.4-.72,1.1-1.2,1.79-1.2-.14.66.39,1.35,1.39,1.3,1-.05,1.45-.46,1.37-1.38-.09-.96-1.2-1.46-2.47-1.46s-2.7.7-3.35,1.89c-.49.9-.61,1.8-.48,2.61-.14-.11-.28-.23-.43-.34-1.74-1.38-3.7-2.94-6.16-3.95-1.79-.73-4.54-1.57-7.7-.35h0s0,0,0,0c0,0,0,0,0,0-3.34,1.29-5.68,2.46-7.01-.6-.04-.09-.14-.13-.22-.1-.36.14-.61.33-.85.72-1.22-.44-2.51.02-2.78.13-.03.01-.05.05-.03.08.11.25.6,1.28,1.59,1.83-.4.41-.57,1.09-.56,1.68,0,.11.12.18.22.12,2.36-1.31,4.33-1.44,5.05-1.44.35,0,.68-.02,1.02-.06-1.18,1.01-2.99,2.25-4.98,3.26-2.1.85-3.76,1.24-5.04.64-.84-.4-1.28-1.56-1.46-2.12-.04-.12-.2-.14-.26-.03-.35.63-1.05,2.21.04,3.4-.06,0-.12,0-.18,0-.85-.05-1.65-.31-2.44-.72-1.55-1.53-1.93-2.89-1.38-3.91.4-.72,1.1-1.2,1.8-1.2-.14.66.39,1.35,1.39,1.3,1-.05,1.46-.46,1.37-1.38-.09-.96-1.2-1.46-2.47-1.46s-2.7.7-3.35,1.89c-.49.9-.61,1.8-.48,2.61-.14-.11-.29-.23-.43-.34-1.74-1.38-3.71-2.94-6.16-3.95-1.79-.73-4.54-1.57-7.7-.35h0s0,0,0,0c0,0,0,0,0,0-3.34,1.29-5.68,2.46-7.01-.6-.04-.09-.14-.13-.22-.1-.36.14-.61.33-.85.72-1.22-.44-2.51.02-2.78.13-.03.01-.04.05-.03.08.11.25.6,1.28,1.59,1.83-.4.41-.57,1.09-.56,1.68,0,.11.12.18.22.12,2.36-1.31,4.33-1.44,5.05-1.44.35,0,.68-.02,1.02-.06-1.18,1.01-2.99,2.25-4.98,3.26-2.1.85-3.76,1.24-5.04.64-.84-.4-1.28-1.56-1.46-2.12-.03-.12-.19-.14-.25-.03-.35.63-1.05,2.21.04,3.4-.06,0-.12,0-.18,0-.85-.05-1.65-.31-2.44-.72-1.55-1.53-1.93-2.89-1.38-3.91.39-.72,1.1-1.2,1.8-1.2-.14.66.39,1.35,1.39,1.3,1-.05,1.45-.46,1.37-1.38-.09-.96-1.2-1.46-2.47-1.46s-2.7.7-3.35,1.89c-.49.9-.61,1.8-.48,2.61-.14-.11-.29-.23-.43-.34-1.74-1.38-3.7-2.94-6.16-3.95-1.79-.73-4.54-1.57-7.7-.35h0s0,0,0,0h0c-3.34,1.29-5.68,2.46-7.01-.6-.04-.09-.14-.13-.23-.1-.36.14-.61.33-.85.72-1.22-.44-2.51.02-2.78.13-.03.01-.04.05-.03.08.11.25.6,1.28,1.59,1.83-.4.41-.57,1.09-.56,1.68,0,.11.12.18.22.12,2.36-1.31,4.33-1.44,5.05-1.44.35,0,.68-.02,1.02-.06-1.18,1.01-2.99,2.25-4.98,3.26-2.1.85-3.76,1.24-5.04.64-.84-.4-1.28-1.56-1.46-2.12-.03-.12-.19-.14-.25-.03-.35.63-1.05,2.21.04,3.4-.06,0-.12,0-.18,0-.85-.05-1.65-.31-2.44-.72-1.55-1.53-1.93-2.89-1.38-3.91.4-.72,1.1-1.2,1.8-1.2-.15.66.38,1.35,1.38,1.3,1-.05,1.46-.46,1.37-1.38-.09-.96-1.2-1.46-2.47-1.46s-2.7.7-3.35,1.89c-.49.9-.61,1.8-.48,2.61-.14-.11-.29-.23-.43-.34-1.74-1.38-3.7-2.94-6.16-3.95-1.79-.73-4.54-1.57-7.7-.35h0s0,0,0,0h0c-3.34,1.29-5.68,2.46-7.01-.6-.04-.09-.14-.13-.23-.1-.36.14-.61.33-.85.72-1.22-.44-2.51.02-2.78.13-.03.01-.04.05-.03.08.11.25.6,1.28,1.59,1.83-.4.41-.57,1.09-.56,1.68,0,.11.12.18.22.12,2.36-1.31,4.33-1.44,5.05-1.44.35,0,.68-.02,1.02-.06-1.18,1.01-2.99,2.25-4.98,3.26-2.1.85-3.76,1.24-5.04.64-.84-.4-1.29-1.56-1.46-2.12-.04-.12-.2-.14-.26-.03-.35.63-1.04,2.21.04,3.4-.06,0-.12,0-.18,0-.85-.05-1.65-.31-2.44-.72-1.55-1.53-1.93-2.89-1.38-3.91.4-.72,1.1-1.2,1.8-1.2-.14.66.39,1.35,1.38,1.3,1-.05,1.46-.46,1.37-1.38-.09-.96-1.2-1.46-2.47-1.46s-2.7.7-3.35,1.89c-.49.9-.61,1.8-.48,2.61-.14-.11-.29-.23-.43-.34-1.74-1.38-3.7-2.94-6.16-3.95-1.79-.73-4.54-1.57-7.7-.35,0,0,0,0,0,0h0c-3.34,1.29-5.68,2.46-7.01-.6-.04-.09-.14-.13-.22-.1-.36.14-.61.33-.84.72-1.22-.44-2.51.02-2.78.13-.03.01-.04.05-.03.08.11.25.6,1.28,1.59,1.83-.4.41-.57,1.09-.56,1.68,0,.11.12.18.22.12,2.36-1.31,4.33-1.44,5.05-1.44.35,0,.68-.02,1.02-.06-1.18,1.01-2.99,2.25-4.98,3.26-2.1.85-3.76,1.24-5.04.64-.84-.4-1.28-1.56-1.46-2.12-.04-.12-.2-.14-.26-.03-.35.63-1.05,2.21.04,3.4-.06,0-.12,0-.18,0-.85-.05-1.65-.31-2.43-.72-1.55-1.53-1.94-2.89-1.38-3.91.4-.72,1.1-1.2,1.8-1.2-.14.66.39,1.35,1.39,1.3,1-.05,1.45-.46,1.37-1.38-.09-.96-1.2-1.46-2.47-1.46s-2.7.7-3.35,1.89c-.49.9-.61,1.8-.48,2.61-.14-.11-.28-.23-.43-.34-1.74-1.38-3.7-2.94-6.16-3.95-1.79-.73-4.54-1.57-7.7-.35h0s0,0,0,0h0c-3.34,1.29-5.68,2.46-7.01-.6-.04-.09-.14-.13-.23-.1-.36.14-.61.33-.85.72-1.22-.44-2.51.02-2.78.13-.03.01-.04.05-.03.08.11.25.6,1.28,1.59,1.83-.4.41-.57,1.09-.56,1.68,0,.11.12.18.22.12,2.36-1.31,4.33-1.44,5.05-1.44.35,0,.68-.02,1.02-.06-1.18,1.01-2.99,2.25-4.98,3.26-2.1.85-3.76,1.24-5.04.64-.84-.4-1.28-1.56-1.46-2.12-.04-.12-.19-.14-.25-.03-.36.63-1.05,2.21.04,3.4-.06,0-.12,0-.18,0-.85-.05-1.65-.31-2.44-.72-1.55-1.53-1.93-2.89-1.38-3.91.4-.72,1.1-1.2,1.8-1.2-.14.66.39,1.35,1.39,1.3,1-.05,1.45-.46,1.37-1.38-.09-.96-1.2-1.46-2.47-1.46s-2.7.7-3.35,1.89c-.49.9-.61,1.8-.48,2.61-.14-.11-.29-.23-.43-.34-1.74-1.38-3.7-2.94-6.16-3.95-1.79-.73-4.54-1.57-7.7-.35,0,0,0,0,0,0h0c-3.34,1.29-5.68,2.46-7.01-.6-.04-.09-.14-.13-.22-.1-.36.14-.61.33-.85.72-1.22-.44-2.51.02-2.78.13-.03.01-.04.05-.03.08.11.25.6,1.28,1.59,1.83-.4.41-.57,1.09-.56,1.68,0,.11.12.18.22.12,2.36-1.31,4.33-1.44,5.05-1.44.64,0,1.21-.06,1.84-.23-.29.48-.48,1.01-.56,1.57-.2,1.34.27,2.67,1.26,3.39,1.35.99,2.42.88,3.17.67.75-.21,1.38-.73,1.36-1.51-.02-.68-.5-1.18-1.31-1.04-.56.1-1.17.53-1.18,1.47-1.9-.29-1.84-2.01-1.72-2.82.17-1.15.9-2.07,2.26-2.59.9-.35,1.77-.5,2.58-.52-1.53,1.09-.98,2.7-.65,3.4.05.1.21.08.22-.03.09-.53.36-1.51,1.24-1.95,1.17-.59,2.71-.67,4.66.11,1.63.88,3.03,1.99,4.4,3.07.14.11.29.23.43.34-.54-.09-1.03-.09-1.59-.09-.72,0-2.76-.18-4.39-1.14-.1-.06-.2.01-.22.12-.1.62-.2,1.21.11,1.58-.99.55-1.66,1.58-1.76,1.83-.01.03,0,.07.03.08.28.11,1.41.4,2.63-.04.23.39.81.75,1.18.89.09.03.18-.01.22-.1,1.43-2.91,4.08-2.12,7.56-.63.12.05.24.11.36.16,0,0,0,0,0,0h0c.71.29,1.45.47,2.23.52.16,0,.32.01.49.01,4.02,0,8.86-2.71,11.71-4.92-.1,1.25.36,2.45,1.29,3.13,1.35.99,2.42.88,3.17.67.75-.21,1.38-.73,1.36-1.51-.02-.68-.5-1.18-1.31-1.04-.56.1-1.17.53-1.18,1.47-1.9-.29-1.84-2.01-1.72-2.82.17-1.15.9-2.07,2.26-2.59.9-.35,1.77-.5,2.58-.52-1.53,1.09-.98,2.7-.64,3.4.05.1.2.08.22-.03.08-.53.36-1.51,1.24-1.95,1.17-.59,2.71-.67,4.66.11,1.63.88,3.03,1.99,4.4,3.07.14.11.29.23.43.34-.54-.09-1.03-.09-1.59-.09-.72,0-2.76-.18-4.39-1.14-.1-.06-.2.01-.22.12-.1.62-.2,1.21.11,1.58-.99.55-1.66,1.58-1.76,1.83-.01.03,0,.07.03.08.28.11,1.41.4,2.63-.04.23.39.81.75,1.18.89.09.03.18-.01.22-.1,1.43-2.91,4.08-2.12,7.56-.63.12.05.24.11.36.16,0,0,0,0,0,0,.71.29,1.45.47,2.23.52.16,0,.32.01.49.01,4.03,0,8.86-2.71,11.71-4.92-.1,1.25.36,2.45,1.29,3.13,1.35.99,2.42.88,3.17.67.75-.21,1.38-.73,1.36-1.51-.02-.68-.5-1.18-1.31-1.04-.56.1-1.17.53-1.18,1.47-1.9-.29-1.84-2.01-1.72-2.82.17-1.15.9-2.07,2.26-2.59.9-.35,1.77-.5,2.58-.52-1.53,1.09-.98,2.7-.64,3.4.05.1.21.08.22-.03.09-.53.36-1.51,1.24-1.95,1.17-.59,2.71-.67,4.66.11,1.63.88,3.03,1.99,4.4,3.07.14.11.29.23.43.34-.54-.09-1.03-.09-1.59-.09-.72,0-2.76-.18-4.39-1.14-.1-.06-.2.01-.22.12-.1.62-.2,1.21.11,1.58-.99.55-1.66,1.58-1.76,1.83-.01.03,0,.07.03.08.28.11,1.41.4,2.63-.04.23.39.81.75,1.17.89.09.03.18-.01.22-.1,1.43-2.91,4.08-2.12,7.56-.63.12.05.24.11.36.16,0,0,0,0,0,0,.71.29,1.45.47,2.23.52.16,0,.32.01.49.01,4.02,0,8.86-2.71,11.71-4.92-.1,1.25.36,2.45,1.29,3.13,1.35.99,2.42.88,3.17.67.75-.21,1.38-.73,1.36-1.51-.02-.68-.5-1.18-1.31-1.04-.56.1-1.17.53-1.18,1.47-1.9-.29-1.84-2.01-1.72-2.82.17-1.15.9-2.07,2.26-2.59.9-.35,1.77-.5,2.58-.52-1.52,1.09-.98,2.7-.64,3.4.05.1.2.08.22-.03.08-.53.36-1.51,1.24-1.95,1.17-.59,2.71-.67,4.66.11,1.63.88,3.03,1.99,4.4,3.07.14.11.29.23.43.34-.54-.09-1.03-.09-1.59-.09-.72,0-2.76-.18-4.39-1.14-.1-.06-.2.01-.22.12-.1.62-.2,1.21.11,1.58-.99.55-1.66,1.58-1.76,1.83-.01.03,0,.07.03.08.28.11,1.41.4,2.63-.04.23.39.81.75,1.17.89.09.03.18-.01.22-.1,1.43-2.91,4.08-2.12,7.56-.63.12.05.24.11.36.16,0,0,0,0,0,0h0c.71.29,1.45.47,2.24.52.16,0,.32.01.49.01,4.02,0,8.86-2.71,11.71-4.92-.1,1.25.36,2.45,1.29,3.13,1.35.99,2.42.88,3.17.67.75-.21,1.38-.73,1.36-1.51-.02-.68-.5-1.18-1.31-1.04-.56.1-1.17.53-1.18,1.47-1.9-.29-1.84-2.01-1.72-2.82.17-1.15.9-2.07,2.26-2.59.9-.35,1.77-.5,2.58-.52-1.53,1.09-.98,2.7-.64,3.4.05.1.21.08.22-.03.09-.53.36-1.51,1.24-1.95,1.17-.59,2.71-.67,4.66.11,1.63.88,3.03,1.99,4.4,3.07.14.11.29.23.43.34-.54-.09-1.03-.09-1.59-.09-.73,0-2.76-.18-4.39-1.14-.1-.06-.2.01-.22.12-.1.62-.2,1.21.11,1.58-.99.55-1.66,1.58-1.76,1.83-.01.03,0,.07.03.08.28.11,1.41.4,2.63-.04.23.39.81.75,1.17.89.09.03.18-.01.22-.1,1.43-2.91,4.08-2.12,7.56-.63.12.05.24.11.36.16,0,0,0,0,0,0,.71.29,1.45.47,2.23.52.16,0,.32.01.49.01,4.02,0,8.86-2.71,11.71-4.92-.1,1.25.36,2.45,1.29,3.13,1.35.99,2.42.88,3.17.67.75-.21,1.38-.73,1.36-1.51-.02-.68-.5-1.18-1.31-1.04-.56.1-1.17.53-1.18,1.47-1.9-.29-1.84-2.01-1.72-2.82.17-1.15.89-2.07,2.26-2.59.9-.35,1.77-.5,2.58-.52-1.53,1.09-.98,2.7-.64,3.4.05.1.21.08.22-.03.09-.53.36-1.51,1.24-1.95,1.17-.59,2.71-.67,4.66.11,1.63.88,3.03,1.99,4.4,3.07.14.11.29.23.43.34-.54-.09-1.03-.09-1.59-.09-.72,0-2.76-.18-4.39-1.14-.1-.06-.2.01-.22.12-.1.62-.2,1.21.11,1.58-.99.55-1.66,1.58-1.76,1.83-.01.03,0,.07.03.08.28.11,1.41.4,2.63-.04.23.39.81.75,1.18.89.09.03.18-.01.22-.1,1.43-2.91,4.08-2.12,7.56-.63.12.05.24.11.36.16,0,0,0,0,0,0,.71.29,1.45.47,2.23.52.16,0,.32.01.49.01,4.02,0,8.86-2.71,11.71-4.92-.1,1.25.36,2.45,1.29,3.13,1.35.99,2.42.88,3.17.67.75-.21,1.38-.73,1.36-1.51-.02-.68-.5-1.18-1.31-1.04-.56.1-1.17.53-1.18,1.47-1.9-.29-1.84-2.01-1.72-2.82.17-1.15.9-2.07,2.26-2.59.9-.35,1.77-.5,2.58-.52-1.53,1.09-.98,2.7-.64,3.4.05.1.2.08.22-.03.08-.53.36-1.51,1.24-1.95,1.17-.59,2.71-.67,4.66.11,1.63.88,3.03,1.99,4.4,3.07.14.11.29.23.43.34-.54-.09-1.03-.09-1.59-.09-.72,0-2.76-.18-4.39-1.14-.1-.06-.2.01-.22.12-.1.62-.2,1.21.11,1.58-.99.55-1.66,1.58-1.76,1.83-.01.03,0,.07.03.08.28.11,1.41.4,2.63-.04.23.39.81.75,1.18.89.09.03.18-.01.22-.1,1.43-2.91,4.08-2.12,7.56-.63.12.05.24.11.36.16,0,0,0,0,0,0,.71.29,1.45.47,2.23.52.16,0,.32.01.49.01,3.98,0,8.75-2.65,11.61-4.85v-1.74c-1.18,1.01-3.12,2.25-5.12,3.26-2.1.85-3.76,1.24-5.04.64"/>
  <path class="cls-1" d="M102.55,43.03c-.7-.56-1.47-.98-2.35-1.19-.48-.12-.96-.1-1.44.02-.74.2-1.35.61-1.9,1.12-1.28,1.2-2.17,2.64-2.62,4.34-.28,1.06-.34,2.14-.11,3.22.33,1.61,1.48,2.74,3.1,3.04.57.11,1.14.11,1.71.05.71-.07,1.42-.16,2.13-.22.4-.03.8-.04,1.2-.02.77.05,1.53.19,2.22.58.59.34,1.02.8,1.2,1.47-.13.35-.32.63-.55.89-.3.35-.59.69-.9,1.03-1.23,1.32-2.6,2.49-4,3.62-3.05,2.47-6.33,4.6-9.7,6.59-4.88,2.87-10.01,5.25-15.25,7.39-.87.36-5.63,1.88-5.63,1.88h10.84c4.53-1.6,9.92-4.53,10.57-4.88,2.28-1.25,4.45-2.69,6.55-4.22,1.64-1.19,3.25-2.43,4.73-3.83.83-.78,1.62-1.61,2.39-2.45.85-.93,1.36-2.04,1.58-3.28.21-1.12.4-2.25.55-3.38.42-3.17-.16-6.14-1.81-8.89-.67-1.11-1.49-2.1-2.5-2.91M101.49,48.75c-1.19.16-2.38.23-3.57.19-.34-.01-.68-.06-1-.19-.28-.11-.49-.29-.57-.67.24-.69.7-1.22,1.46-1.46.55-.17,1.07-.08,1.57.16.86.4,1.59.98,2.19,1.72.03.04.02.1.03.16-.04.03-.08.09-.12.09"/>
  <path class="cls-1" d="M238.61,71.98c2.28-1.25,4.44-2.69,6.55-4.22,1.64-1.19,3.25-2.43,4.73-3.83.83-.78,1.62-1.61,2.39-2.45.85-.93,1.36-2.04,1.58-3.28.21-1.12.4-2.25.56-3.38.42-3.17-.16-6.14-1.81-8.89-.67-1.11-1.49-2.1-2.5-2.91-.7-.56-1.47-.98-2.35-1.19-.48-.12-.96-.1-1.44.02-.74.2-1.35.61-1.9,1.12-1.28,1.2-2.17,2.64-2.62,4.34-.28,1.06-.34,2.14-.12,3.22.33,1.61,1.48,2.74,3.1,3.04.57.11,1.14.11,1.71.05.71-.07,1.42-.16,2.13-.22.4-.03.8-.04,1.2-.02.77.05,1.53.19,2.22.58.59.34,1.02.8,1.2,1.47-.13.35-.32.63-.55.89-.3.35-.59.69-.9,1.03-1.23,1.32-2.6,2.49-4,3.62-3.05,2.47-6.33,4.6-9.7,6.59-4.88,2.87-10.01,5.25-15.25,7.39-.87.36-5.63,1.88-5.63,1.88h10.84c4.53-1.6,9.92-4.53,10.57-4.88M249.05,48.75c-1.19.16-2.38.23-3.57.19-.34-.01-.68-.06-1-.19-.28-.11-.49-.29-.57-.67.24-.69.7-1.22,1.46-1.46.55-.17,1.07-.08,1.57.16.86.4,1.59.98,2.19,1.72.03.04.02.1.03.16-.04.03-.08.09-.12.09"/>
  <path class="cls-1" d="M198.01,39.61c-1.29,2.24-1.68,2.82-2.14,3.25-.13-.11-.26-.21-.38-.33-.53-.53-1.06-1.06-1.58-1.6-.16-.16-.31-.34-.44-.53-.04-.06-.01-.16-.02-.26.39-.11.76-.02,1.12,0,.32.02.63.04.95.04.11,0,.22-.07.22-.26-.11-.2-.34-.34-.55-.48-.63-.41-1.25-.83-1.89-1.21-1.28-.78-2.57-1.55-3.85-2.32-.15-.09-.3-.19-.48-.07-.14,1.09-.23,4.08-.14,4.72.89.38,1.1.55,1.62,1.34.02.02.03.05.04.07.73,1.14,1.53,2.23,2.4,3.28.26.31.5.62.78.96,0,0-4.6,6.03-4.29,12.33.1,2.02.76,4.29,3.51,4.29,3.27,0,6.9-3.71,7.32-4.42.81-1.34,1.17-2.81,1.27-4.35.07-1.09.03-2.19-.14-3.27-.2-1.24-.59-2.4-1.29-3.45-.54-.82-1.17-1.57-1.84-2.29-.15-.17-.3-.34-.45-.53.08-.15.14-.28.21-.4.66-1.22,1.31-2.44,1.97-3.65,1.07-1.94,1.03-2,1.47-4.38.21-1.15.69-3.44.69-3.44h-.45s-1.12,2.33-1.72,3.47c-.61,1.17-1.26,2.33-1.92,3.48M200.29,53.69s-4.15,4.22-7.39,4.22c-1.4,0-2.3-.82-2.3-.82,0-2.67,4.57-8.83,4.73-9.03.13.09,2.49,1.82,4.96,5.63"/>
  <path class="cls-1" d="M4.24,32.1c.07.04.16.05.23.07.25-.1.35-.32.47-.51.53-.82,1.04-1.66,1.57-2.48.12-.19.2-.42.48-.52.75.43,1.47.95,2.22,1.44.77.5,1.54,1.01,2.34,1.54.14-.11.22-.16.27-.23.73-1.14,1.45-2.28,2.17-3.43.04-.07.05-.16.07-.23-.54-.48-3.15-2.22-4.38-2.93-.12-.07-.25-.11-.41-.18-.14.18-.27.32-.38.49-.54.85-1.08,1.7-1.62,2.55-.11.16-.23.31-.37.49-.46-.19-.81-.5-1.19-.74-.39-.24-.77-.51-1.15-.76-.39-.25-.77-.5-1.17-.74-.39-.24-.76-.52-1.16-.69-.08.05-.15.06-.18.1-.73,1.14-1.46,2.28-2.19,3.42-.04.07-.04.16-.06.23.03.07.03.15.07.18,1.45.98,2.91,1.96,4.37,2.93"/>
  <path class="cls-1" d="M186.44,29.35c1.37.91,2.74,1.82,4.11,2.72.09.06.21.07.31.1.25-.17.37-.4.5-.62.54-.85,1.08-1.7,1.62-2.55.09-.14.16-.31.41-.33,1.5.94,2.98,1.99,4.51,2.94.11-.07.19-.11.25-.17.26-.33,2.06-3.23,2.29-3.69-.07-.07-.13-.17-.22-.23-1.4-.91-2.8-1.82-4.2-2.73-.11-.07-.25-.1-.42-.17-.81,1.16-1.48,2.37-2.34,3.58-.85-.53-1.6-1.06-2.37-1.55-.77-.49-1.52-1.03-2.34-1.42-.43.48-1.52,2.11-2.31,3.48-.06.09-.08.21-.12.33.12.11.21.23.32.3"/>
  <path class="cls-1" d="M65.04,71.98c-.57.34-1.13.68-1.71,1.01-1.23.71-2.51,1.29-3.87,1.69-.98.29-1.98.37-2.99.3-.34-.03-.68-.11-1-.23-.42-.16-.74-.44-.81-.91.05-.4.26-.72.5-1,.26-.31.53-.62.83-.87.72-.61,1.46-1.21,2.21-1.8.54-.43,1.1-.83,1.65-1.23.19-.54.37-1.06.55-1.57.01-.04-.01-.1-.02-.15-.13-.07-.22,0-.3.08-.32.25-.63.5-.95.75-.41.31-.83.63-1.25.93-.42.3-.9.39-1.39.22-.44-.14-.87-.29-1.29-.48-.26-.12-.48-.31-.7-.49-.16-.13-.25-.32-.17-.58.41-.5.95-.84,1.63-.91.54.16.64.2.79.36.2.22.31.48.34.77,0,.08.02.17.06.25.05.1.1.21.29.18.41-.54.39-1.2.37-1.86-.03-.61-.16-1.2-.64-1.58-.47-.18-.84,0-1.19.2-1.26.73-2.16,1.8-2.79,3.1-.06.13-.09.27-.14.41-.15.41-.06.79.17,1.15.21.32.5.56.84.73.33.17.69.29,1.03.44.15.07.35.05.44.3-.09.11-.19.24-.3.37-.29.36-.59.71-.86,1.08-.36.52-.64,1.09-.78,1.72-.21.95.19,1.83,1.17,2.22.46.18.93.29,1.43.31.93.04,1.84-.1,2.73-.34,1.75-.48,3.33-1.28,4.66-2.53.5-.47.99-.96,1.48-1.45.18-.18.36-.38.52-.57.04-.05.04-.13.07-.26-.26.07-.43.17-.6.27"/>
  <path class="cls-1" d="M175.43,70.4l-.21-.43c-.26.2-4.67,4.44-8.78,4.44-1.25,0-1.73-.67-1.73-1.33,0-1.09,2.7-4.39,2.7-5.84,0-.58-.07-1.17-1.44-1.17-1.75,0-2.98.32-3.33.98-.27.51-.84,1.69-.84,1.69l.19.27s1.14-.52,3-.52c.6,0,.87.17.87.42,0,.68-2.48,3.94-2.5,5.9,0,1.17.81,1.99,2.13,1.99,5.59,0,9.94-6.4,9.94-6.4"/>
  <path class="cls-1" d="M124.08,28.02c-.06.39-.13.79-.13,1.18,0,.43.02.87.09,1.29.21,1.23,1.85,2.18,3.14,1.33.4-.26.76-.57,1-.97.24-.4.43-.83.64-1.24.12-.24.13-.54.32-.78.37.27.33.67.48.99.41.89,1.07,1.43,2.02,1.64.69.15,1.28-.05,1.78-.53.32-.31.55-.68.68-1.09.13-.45.24-.91.3-1.37.12-.87-.01-1.72-.31-2.55-.44-1.22-.87-2.44-1.17-3.71-.02-.09-.08-.18-.12-.26-.06.02-.11.02-.12.04-.51.87-.77,1.78-.44,2.78.26.79.53,1.57.8,2.35.18.54.4,1.08.47,1.69-.1.12-.14.2-.2.22-1.07.52-2.25.17-2.77-.86-.22-.44-.36-.94-.46-1.43-.11-.56-.14-1.14-.18-1.72-.06-.98-.31-1.92-.69-2.82-.04-.09-.14-.14-.25-.25-.37.54-.55,1.12-.76,1.66.17.77.34,1.51.49,2.24.18.83.07,1.66-.12,2.46-.08.34-.27.67-.49.95-.85,1.04-1.94,1.01-2.81-.05-.04-.05-.06-.13-.12-.24-.14-.64-.09-1.32.06-1.99.19-.85.22-1.72.16-2.58-.03-.43-.16-.85-.25-1.27-.02-.1-.1-.18-.17-.32-.48.62-.75,1.19-.98,1.75.4,1.6.4,1.78.14,3.46"/>
  <path class="cls-1" d="M129.67,66.34c-.54-.42-4.25-2.67-5.02-2.98-.39.5-2.17,3.78-2.21,3.93.14.12,3.05,2.11,4.89,2.9.62-.66,1.84-2.61,2.34-3.84"/>
  <path class="cls-1" d="M232.68,28.33c-.54-.42-4.25-2.67-5.02-2.98-.4.5-2.17,3.78-2.21,3.93.14.11,3.05,2.11,4.89,2.9.62-.66,1.84-2.61,2.34-3.84"/>
  <path class="cls-1" d="M107.21,21.94c-1.11,0-1.66,2.09-1.83,3-.4,1.94-.49,4.52-.58,5.13-.89-1.23-1.56-2.49-2.33-3.67-.71-1.09-1.68-1.89-2.88-2.39-.98-.42-1.14,2.31-.04,2.89.75.4,1.82.23,2.4.85.84.92,1.84,3.2,2.59,4.78.43.86.7.23.88-.52.46-1.96.44-8.02,2.09-7.37.43.16,1,.78,1,.78l.74-1.94s-1.32-1.53-2.05-1.53"/>
  <path class="cls-1" d="M244.85,26.89c.75.4,1.82.23,2.4.85.83.92,1.84,3.2,2.59,4.78.42.86.7.23.88-.52.46-1.95.44-8.01,2.09-7.37.42.16,1,.78,1,.78l.74-1.94s-1.32-1.53-2.05-1.53c-1.11,0-1.66,2.09-1.83,3-.4,1.94-.49,4.52-.58,5.13-.89-1.23-1.56-2.49-2.33-3.67-.71-1.09-1.68-1.89-2.88-2.39-.98-.42-1.14,2.31-.04,2.89"/>
  <path class="cls-1" d="M24.99,31.31c0,6.56,2.72,13.19,2.72,17.22h.8c0-5.95-1.88-13.18-1.88-17.76,0-1.78.27-3.72,2.71-3.72,2.06,0,3.3.92,3.3.92l1.05-2.15s-1.93-3.96-4.71-3.96c-2.06,0-3.05,2.6-3.32,3.84l.63.27c.38-.78,1.63-1.71,2.77-1.71,1.02,0,1.97.67,1.97.67l-.07.37c-5.16,0-5.97,4.88-5.97,6.02"/>
  <path class="cls-1" d="M40.25,41.34l.43.84c3.91-2.2,10.56-6.17,14.16-10.29.6-.69,1.28-1.54,1.66-2.14,1.31.58,2.61,1.71,2.61,1.71l.37-2.31s-.78-.75-2.03-1.32c.68-1.66,1.39-5.89-1.05-5.89-.97,0-3.52,1.55-3.49,4.7,0,.24.05.47.14.69.13.3.39.58.72.82.6.45,1.25.78,1.89,1.11-.44.55-.92,1.05-1.34,1.46-1.78,1.74-11.47,9.1-14.07,10.61M55.48,26.71c-.39-.21-.77-.43-1.11-.69l-.03-.02c-.16-.12-.35-.28-.48-.45,0-.01-.02-.02-.02-.03-.14-.2-.08-.34.02-.47.24-.32.62-.65,1.02-.85.5-.25,1.03-.29,1.49.07.42.33.66.89.73,1.44.04.27.02.58-.04.91-.05.26-.13.54-.25.81-.28-.15-.57-.3-.82-.43-.15-.09-.33-.19-.51-.29"/>
  <path class="cls-1" d="M133.6,50.65s-.03.45-.04.59c-.03.58-.08,1.15-.1,1.73-.04,1.33.09,2.65.44,3.94.75,2.83,2.42,4.93,5.03,6.28,1.37.71,2.84,1.1,4.37,1.28,1.35.16,2.7.17,4.06.05,2.1-.19,4.16-.59,6.17-1.23,2.58-.83,5.09-1.86,7.52-3.05,1.94-.95,3.85-1.96,5.79-2.92,1.39-.69,2.8-1.36,4.2-2.03.74-.35,1.6-.64,2.54-.86,0,.15,0,.3,0,.44,0,4.45-.49,6.94,0,6.94.54,0,1.61-3.68,2.09-7.74,1.11-.13,2.29-.2,3.53-.2,2.89,0,4.57.25,4.57.25,0,0,1.99-4.23,1.99-4.23l-.39-.58h-1.82c-2.7,0-5.28-.08-7.65-.21-.11-11.37-1.82-20.48-2.64-27.15h-3.41c.36,2.42,2.76,15.8,3.5,26.99-7.21-.52-12.05-1.41-12.22-1.46.08-.21.13-.37.2-.52,1.08-2.31,1.48-4.77,1.56-7.3.09-2.71-.13-5.41-.39-8.11-.23-2.41-.51-4.81-.78-7.22-.04-.39-.17-1.22-.34-2.37h-3.12c.6,3.99,1.07,7.34,1.18,8.28.2,1.8.38,3.61.6,5.41.27,2.23.46,4.47.58,6.71.03.63.02,1.27.02,1.9,0,.17-.05.33-.08.53-.21.06-.4.13-.59.16-1,.12-2,.22-3.01.34-1.66.19-3.32.36-4.98.57-.91.12-1.82.3-2.7.56-.71.2-1.23.61-1.53,1.29-.42.92-.85,1.83-1.27,2.74-.08.18-.14.38-.18.57-.02.1.02.21.03.29.08.03.1.06.13.05.11-.01.23,0,.34-.05.68-.27,1.39-.33,2.12-.34,1.45-.04,2.88.13,4.31.27.49.05.97.09,1.46.17,1.34.2,2.68.41,4.01.63,2.19.35,4.38.71,6.57,1.08.16.03.32.1.48.15-.08.26-.3.3-.47.39-2.85,1.47-5.75,2.8-8.77,3.88-3.07,1.1-6.2,1.96-9.48,2.21-1.57.12-3.11.05-4.64-.27-1.93-.4-3.65-1.23-5.09-2.6-.83-.8-1.41-1.74-1.75-2.84-.38-1.23-.42-2.49-.26-3.76,0-.08.04-.24.04-.24,4.87-1.79,10.78-3.88,10.78-3.88l1.29-3.48-.46-.78s-6.8.82-11.63.82c-6.45,0-13.16-.82-16.17-.82-4.47,0-7.32,2.86-7.72,3.09-.53,1.46-.69,1.89-1.15,3.29-.03.1-.23.81.63.81,1.66,0,8.11-.87,8.11-.87,0,0,.75-.87,1.12-1.29.3,0,9.09.27,11.17.29l.06.28c-3.77,1.69-11.89,5.19-16.93,14-1.63,2.86-2.36,6.06-2.76,9.31-.25,2.01-.28,4.09-.08,6.08h2.27c-.32-1.26-.51-2.29-.52-3.22-.02-1.82.13-3.62.59-5.4,1.33-5.11,4.11-9.21,8.43-12.28,1.51-1.07,3.15-1.91,4.82-2.7,3.67-1.74,6.38-2.62,6.38-2.62"/>
  <path class="cls-1" d="M43.17,68.43c.13-.23.24-.46.32-.71.71-2.04,1-4.14.67-6.29-.02-.1,0-.21.01-.34.15-.02.26-.05.37-.05.78,0,1.55-.08,2.32-.18,2.3-.28,12.93-5.37,13.25-5.54,3.05,2.99,4.87,5.83,9.2,5.83s7.37-2.84,7.94-4.13c.57-1.3.98-2.64,1.25-4.03.43-2.21.59-4.45.66-6.7.06-2.02-.07-4.03-.24-6.04-.17-2.06-1.85-16.13-2.11-18.3h-3.1c.23,2.04,3,27.98,3.05,31.34,0,.26-.04.51-.06.74-.44.52-3.43,2.16-6.14,2.42-1.52.14-2.92-.19-4.19-1.04-.83-.56-2.35-2.19-2.35-2.19,1.03-.75,5.5-3.04,7.35-3.75.44-1.39.78-2.84,1.12-4.3.03-.13.02-.28.03-.39-.96-.72-3.22-1.61-5.55-2.19-3.48-.87-7-1.08-10.55-.53-2.52.39-4.93,1.15-7.17,2.3l-2.07,5.25s1.89-1.1,3.39-1.1c2.77,0,3.99,1.61,6.5,4.11,0,0-7.19,3.6-12.63,3.6-4.22,0-6.56-3.29-6.64-3.34-.44.31-.69,1.42-.69,1.42,0,0-1.1-.02-1.62-.02-12.75,0-22.32,18.15-30.29,18.15-3.27,0-4.22-3.23-4.22-4.94,0-4.27,2.04-8.32,2.04-8.32,0,0,.04.75.06.91.07.43.11.86.22,1.28.23.92.77,1.6,1.65,1.98.54.24,1.11.3,1.69.22.57-.07,1.13-.18,1.68-.37,1.38-.46,2.61-1.2,3.77-2.08.99-.75,1.7-1.71,2.21-2.83.35-.76.56-1.57.7-2.4.23-1.41.2-2.81,0-4.22-.19-1.3-.59-2.52-1.33-3.62-.56-.84-2.11-2.6-2.29-2.8.12-.22,1.72-3.18,2.85-5.38.23-.44,1.53-5.89,1.53-5.89h-.79l-5.43,9.59c-.11-.07-2.34-2.29-2.43-2.41-.07-.1-.08-.21.03-.31.3-.09.62,0,.93.02.34.02.69.04,1.03.04.09,0,.18-.09.32-.17-.13-.15-.21-.27-.32-.35-2.05-1.39-4.16-2.69-6.34-3.87-.04-.02-.11.02-.21.04-.08,1.56-.2,3.14-.16,4.7.34.18.67.31.93.52.26.21.49.49.68.78.89,1.39,1.88,2.69,2.93,3.96.12.15.22.32.35.51-.14.24-1.08,1.65-1.71,2.71-1.01,1.72-1.81,3.54-2.24,5.5-.12.56-.21,1.13-.31,1.71-2.23,3.87-3.27,7.81-3.28,10.55-.01,3.22,1.63,9.19,6.92,9.39,8.1.31,14.88-17.8,29.76-17.8,0,.79-.04,1.62.12,2.44.16.82.41,1.62.78,2.37.37.75.84,1.44,1.4,2.07.56.62,1.19,1.18,1.88,1.65.69.46,1.38.93,2.23,1.15.11-.11.23-.2.3-.31M65.76,47.51c0,.32-4.65,2.77-4.65,2.77,0,0-3.6-3.05-3.6-3.41,0-.97,8.26-.31,8.26.64M4.37,56.87c.2-.63.4-1.26.68-1.86.4-.83.84-1.64,1.32-2.42.72-1.14,1.49-2.26,2.24-3.38.11-.16.26-.29.38-.42.07.03.1.04.12.06,1.25,1.18,2.5,2.37,3.62,3.69.57.67.85,1.14,1.16,1.87-.09.14-.18.32-.32.46-.56.59-1.2,1.08-1.86,1.53-1.19.82-2.44,1.51-3.83,1.94-.75.23-1.51.34-2.3.27-.5-.04-.96-.17-1.26-.62-.12-.39-.08-.76.04-1.11"/>
  <path class="cls-1" d="M85.93,31.34c.19,1.89.43,3.78.64,5.66.16,1.43.31,2.86.45,4.29.15,1.6.29,3.21.42,4.82.09,1.18.17,2.35.24,3.53.1,1.7.23,3.39.27,5.09.05,1.99.03,3.97.05,5.96,0,.26-.01.52.02.78.02.16.11.32.18.52.13-.08.26-.12.31-.2.14-.22.27-.45.35-.69.23-.65.45-1.31.63-1.97.49-1.78.71-3.62.83-5.46.16-2.62.13-5.24-.02-7.86-.12-2.04-.3-4.08-.47-6.11-.11-1.35-.25-2.69-.4-4.04-.2-1.83-.43-3.66-.63-5.49-.14-1.2-.26-2.4-.4-3.6-.05-.38-.25-2.13-.54-4.63h-2.93c.21,1.89.35,3.17.37,3.48.14,1.98.43,3.95.64,5.92"/>
  <path class="cls-1" d="M219.04,61.8c.71,0,2.34-6.35,2.34-11.58,0-11.9-1.8-21.39-2.65-28.28h-3.41c.43,2.88,3.72,21.16,3.72,32.92,0,4.45-.49,6.94,0,6.94"/>
  <path class="cls-1" d="M231.56,61.97c.94-1.05,1.63-2.23,1.87-3.64.3-1.81.34-2.21.54-4.11.12-1.1-.05-2.18-.33-3.25-.3-1.13-.83-2.14-1.43-3.13-.77-1.28-1.77-3.01-2.52-4.31l.14-.16s1.34.17,1.73.17c.72,0,.83-.66.14-1.35-1.29-1.29-4.15-4.12-4.15-4.12h-.9l-1.08,5.3c1.74.94,1.23,2.73,6.68,12.78-4.48,5.96-18.08,14.43-32.38,20.71h9.61c15.08-7.18,20.81-13.47,22.08-14.89"/>
  <path class="cls-1" d="M210.47,56.15c-4.48,5.96-18.08,14.43-32.38,20.71h9.61c15.08-7.18,20.8-13.47,22.08-14.89.94-1.05,1.63-2.23,1.87-3.64.3-1.81.34-2.21.54-4.11.11-1.1-.05-2.18-.33-3.25-.3-1.13-.83-2.14-1.43-3.13-.77-1.28-1.77-3.01-2.52-4.31l.14-.16s1.34.17,1.73.17c.72,0,.83-.65.14-1.35-1.29-1.29-4.15-4.12-4.15-4.12h-.9l-1.08,5.3c1.74.94,1.23,2.73,6.68,12.78"/>
  <polygon class="cls-1" points="6.85 91.51 6.43 93.08 6.03 91.49 2.46 81.73 -.23 81.73 -.23 95.27 1.89 95.27 1.89 85.34 2.01 85.77 5.43 95.27 7.43 95.27 10.84 85.79 10.97 85.32 10.97 95.27 13.09 95.27 13.09 81.73 10.39 81.73 6.85 91.51"/>
  <rect class="cls-2" x="16.44" y="81.73" width="2.14" height="13.54"/>
  <polygon class="cls-1" points="30.82 92.06 24.37 81.73 21.92 81.73 21.92 95.27 24.04 95.27 24.04 84.92 30.48 95.27 32.95 95.27 32.95 81.73 30.82 81.73 30.82 92.06"/>
  <rect class="cls-2" x="36.29" y="81.73" width="2.14" height="13.54"/>
  <path class="cls-1" d="M47.02,87.51c-.37-.1-.85-.23-1.22-.35-1.4-.45-2.1-.87-2.1-2.04v-.03c0-.97.82-1.67,2.55-1.67,1.32,0,2.65.38,3.65,1.05l.82-1.79c-1.15-.75-2.82-1.17-4.49-1.17-2.92,0-4.67,1.45-4.67,3.62v.03c0,2.02,1.05,3.19,3.45,3.89l1.17.35c1.95.58,2.69,1.1,2.69,2.12v.03c0,1.2-1.08,1.99-3.02,1.99-1.42,0-2.82-.42-3.84-1.12l-.83,1.78c1.2.8,2.95,1.25,4.76,1.25,3.14,0,5.09-1.47,5.09-3.94v-.03c0-1.99-1.15-3.19-4.01-3.99"/>
  <polygon class="cls-1" points="52.56 83.73 56.97 83.73 56.97 95.27 59.1 95.27 59.1 83.73 63.49 83.73 63.49 81.73 52.56 81.73 52.56 83.73"/>
  <path class="cls-1" d="M75.61,85.69v-.02c0-2.3-1.4-3.94-4.79-3.94h-5.22v13.54h2.14v-5.46h2.49l3.39,5.46h2.35l-3.54-5.62c2.09-.48,3.19-1.99,3.19-3.96M67.73,87.94v-4.22h3.25c1.52,0,2.49.67,2.49,2.04v.02c0,1.38-.95,2.17-2.49,2.17h-3.25Z"/>
  <polygon class="cls-1" points="83.14 88.09 79.48 81.73 77.08 81.73 82.07 90.09 82.07 95.27 84.21 95.27 84.21 90.09 89.22 81.73 86.81 81.73 83.14 88.09"/>
  <path class="cls-1" d="M100.05,81.51h-.02c-4.17,0-6.78,3.09-6.78,6.94v.02c0,3.84,2.62,6.99,6.78,6.99h.02c4.12,0,6.76-3.15,6.76-6.99v-.02c0-3.86-2.62-6.94-6.76-6.94M104.67,88.46c-.02,2.79-1.89,4.92-4.62,4.92h-.02c-2.75,0-4.62-2.14-4.64-4.92v-.02c0-2.8,1.85-4.86,4.64-4.86h.02c2.75,0,4.62,2.05,4.62,4.86v.02Z"/>
  <polygon class="cls-1" points="109.26 95.27 111.4 95.27 111.4 89.33 117.05 89.33 117.05 87.32 111.4 87.32 111.4 83.73 117.67 83.73 117.67 81.73 109.26 81.73 109.26 95.27"/>
  <polygon class="cls-1" points="132.09 87.32 125.55 87.32 125.55 81.73 123.41 81.73 123.41 95.27 125.55 95.27 125.55 89.33 132.09 89.33 132.09 95.27 134.23 95.27 134.23 81.73 132.09 81.73 132.09 87.32"/>
  <path class="cls-1" d="M141.09,81.73l-5.01,13.54h2.2l1.32-3.65h5.59l1.34,3.65h2.2l-5.06-13.54h-2.59ZM140.25,89.69l2.09-5.71.03-.15.05.15,2.1,5.71h-4.27Z"/>
  <path class="cls-1" d="M161.84,91.47c0,1.57-.7,1.95-1.82,1.95h-1.73v1.85h2.2c2.27,0,3.49-1.13,3.49-3.79v-9.75h-2.14v9.74Z"/>
  <path class="cls-1" d="M154.22,91.47c0,1.57-.7,1.95-1.82,1.95h-1.73v1.85h2.2c2.27,0,3.49-1.13,3.49-3.79v-9.75h-2.14v9.74Z"/>
  <path class="cls-1" d="M180.78,87.92h-1.94c-.3,1.47-.42,2.2-.98,3.22l-2.64-2.95c2.52-1.12,3.12-2.32,3.12-3.64v-.02c0-1.79-1.34-3.04-3.65-3.04s-3.82,1.25-3.82,2.95v.02c0,1.33.47,2.2,1.42,3.35-2.22.98-3.29,2.12-3.29,3.82v.03c0,2.3,1.75,3.8,4.61,3.8,1.58,0,2.97-.58,4.12-1.57l1.2,1.35h2.65l-2.49-2.77c.98-1.47,1.27-2.64,1.69-4.57M172.91,84.57c0-.87.75-1.45,1.87-1.45s1.79.58,1.79,1.52v.02c0,.75-.3,1.47-2.37,2.35-.8-.93-1.28-1.53-1.28-2.42v-.02ZM173.86,93.66c-1.67,0-2.69-.85-2.69-2.1v-.05c0-1.12.7-1.87,2.14-2.5l3.24,3.59c-.79.65-1.72,1.07-2.69,1.07"/>
  <path class="cls-1" d="M195.83,89.44c0,2.74-1,3.94-3.54,3.94s-3.56-1.2-3.56-3.94v-7.71h-2.14v8.26c0,3.45,1.67,5.47,5.69,5.47s5.67-2.02,5.67-5.47v-8.26h-2.14v7.71Z"/>
  <polygon class="cls-1" points="208.39 91.51 207.97 93.08 207.57 91.49 204 81.73 201.31 81.73 201.31 95.27 203.43 95.27 203.43 85.34 203.55 85.77 206.97 95.27 208.97 95.27 212.38 85.79 212.51 85.32 212.51 95.27 214.63 95.27 214.63 81.73 211.93 81.73 208.39 91.51"/>
  <path class="cls-1" d="M228,85.69v-.02c0-2.3-1.4-3.94-4.79-3.94h-5.22v13.54h2.14v-5.46h2.49l3.39,5.46h2.35l-3.54-5.62c2.09-.48,3.19-1.99,3.19-3.96M220.12,87.94v-4.22h3.25c1.52,0,2.49.67,2.49,2.04v.02c0,1.38-.95,2.17-2.49,2.17h-3.25Z"/>
  <path class="cls-1" d="M234.07,81.73l-5.01,13.54h2.2l1.32-3.65h5.59l1.34,3.65h2.2l-5.06-13.54h-2.59ZM233.24,89.69l2.09-5.71.03-.15.05.15,2.1,5.71h-4.27Z"/>
  <polygon class="cls-1" points="252.42 81.73 252.42 87.32 245.87 87.32 245.87 81.73 243.74 81.73 243.74 95.27 245.87 95.27 245.87 89.32 252.42 89.32 252.42 95.27 254.55 95.27 254.55 81.73 252.42 81.73"/>
  <path class="cls-1" d="M147.73,35.39c3.11,0,4.01-5.12,4.01-5.12h-.71s-.65,2.27-2.47,2.27c-5.3,0-.43-10.59-.43-10.6h-.91s-5.75,13.45.51,13.45"/>
  <g>
    <path class="cls-3" d="M296.72,30.36s8.06-8.25,20.79-6.9c-18.9,2.34-18.28,17.37-18.28,17.37,0,0,8.1-10.57,19.2-11.75-20.29,9.22-13.1,23.66-13.1,23.66,0,0,.02-10.09,15.6-18.08-15.78,14.94-6.49,28.12-6.49,28.12,0,0,.47-13.51,9.9-22.61l-.86,15.43.86,1.72-.86,6.4.86,2.17-.86,6.35.86,1.83-2.53,6.87,5.43,4.58h0s0,0,0,0h0s0-.03,0-.03v.03s0,0,0,0h0s0,0,0,0l5.43-4.58-2.53-6.87.86-1.83-.86-6.35.86-2.17-.86-6.4.86-1.72-.86-15.43c9.43,9.1,9.9,22.61,9.9,22.61,0,0,9.29-13.18-6.49-28.12,15.58,7.99,15.6,18.08,15.6,18.08,0,0,7.19-14.44-13.1-23.66,11.1,1.18,19.2,11.75,19.2,11.75,0,0,.61-15.03-18.28-17.37,12.72-1.35,20.79,6.9,20.79,6.9,0,0-1.23-14.5-21.62-12.42-.18.02,10.45-3.31,19.58-.34-7.23-10.91-21.53-4.8-21.53-4.8,6.16-5.81,15.92-5.47,15.92-5.47,0,0-10.21-6.69-19.02,1.35C329.92,2.12,327.24,0,327.24,0c0,0-2.64,1.83-3.86,8.68-8.81-8.05-19.02-1.35-19.02-1.35,0,0,9.77-.34,15.92,5.47,0,0-14.3-6.11-21.53,4.8,9.12-2.96,19.76.36,19.58.34-20.39-2.08-21.62,12.42-21.62,12.42Z"/>
    <path class="cls-3" d="M352.85,107.97c-.37,1.91-1.76,2.79-3.44,2.35-2.27-.59-5.06-3.08-6.82-4.47,4.31-4.61,3.45-9.86-.04-9.89,0,0-.01,0-.02,0,0,0,0,0,0,0h0s0,0,0,0c-.87,0-1.57.71-1.57,1.58s.71,1.58,1.58,1.58c.05,0,.09-.02.14-.03-.5,2.09-2.1,3.55-2.87,4.42-1.55-1.34-5.44-4.86-8.5-7.63.04-.03.08-.07.08-.07,14.36-11.8,30.12-22.35,50.71-22.64-21.45-7.67-38.7,4.69-53.42,17.74-.47.41-.93.83-1.39,1.24,0,0-.03.03-.04.04-.01-.01-.04-.04-.04-.04-15.02-13.48-32.68-26.89-54.81-18.98,20.59.29,36.35,10.84,50.71,22.64,0,0,.04.04.08.07-3.05,2.77-6.95,6.29-8.5,7.63-.76-.86-2.37-2.33-2.87-4.42.05,0,.09.03.14.03.87,0,1.58-.71,1.58-1.58s-.7-1.57-1.57-1.58c0,0,0,0,0,0h0s0,0,0,0c0,0,0,0-.01,0-3.49.03-4.36,5.29-.04,9.89-1.76,1.39-4.55,3.88-6.82,4.47-1.68.44-3.08-.44-3.44-2.35-.66-3.96-6.74-3.37-6.01,2.2.66,5.13,6.89,7.33,12.16,4.98,2.13-.95,4.98-3.59,7.4-5.5.76.87,2.38,2.34,2.87,4.43-.07-.01-.13-.04-.21-.04-.87,0-1.58.71-1.58,1.58s.71,1.58,1.58,1.58c.02,0,.03-.01.05-.01,0,0,0,0,0,.01,3.44-.07,4.4-5.28,0-9.89,1.83-1.54,6.09-5.17,9.34-7.95,3.25,2.78,7.5,6.42,9.34,7.95-4.4,4.62-3.44,9.82,0,9.89,0,0,0,0,0-.01.02,0,.03.01.05.01.87,0,1.58-.71,1.58-1.58s-.71-1.58-1.58-1.58c-.07,0-.14.03-.21.04.49-2.1,2.11-3.56,2.87-4.43,2.42,1.91,5.28,4.54,7.4,5.5,5.28,2.34,11.5.15,12.16-4.98.73-5.57-5.35-6.16-6.01-2.2Z"/>
  </g>
</svg>