<svg xmlns="http://www.w3.org/2000/svg" width="129" height="85" viewBox="0 0 129 85" fill="none"><g clip-path="url(#clip0_1_94)"><path d="M0.858912 85.0001C0.621114 85.0001 0.415259 84.919 0.244896 84.7567C0.0816321 84.5873 0 84.3826 0 84.1462V71.4333C0 71.2039 0.0816321 71.0064 0.244896 70.837C0.415259 70.6747 0.621114 70.5935 0.858912 70.5935C1.09671 70.5935 1.28837 70.6747 1.45873 70.837C1.62199 71.0064 1.70363 71.2075 1.70363 71.4333V82.8831C1.70363 83.1618 1.8456 83.3029 2.12598 83.3029H12.7843C13.0221 83.3029 13.2208 83.3841 13.3841 83.5464C13.5545 83.7158 13.6397 83.9169 13.6397 84.1427C13.6397 84.3685 13.5545 84.5838 13.3841 84.7531C13.2208 84.9154 13.0185 84.9966 12.7843 84.9966H0.858912V85.0001Z" fill="#17539A"></path><path d="M24.8055 70.5934C25.9874 70.5934 26.9918 71.0062 27.8259 71.8319C28.6564 72.6575 29.0717 73.6561 29.0717 74.8205V84.1426C29.0717 84.379 28.9865 84.5836 28.8161 84.753C28.6528 84.9153 28.4505 84.9965 28.2163 84.9965C27.982 84.9965 27.7797 84.9153 27.6165 84.753C27.4532 84.5836 27.3716 84.379 27.3716 84.1426V74.8205C27.3716 74.1183 27.1196 73.522 26.6156 73.028C26.1187 72.534 25.5153 72.2871 24.8126 72.2871H19.7017C18.9954 72.2871 18.392 72.534 17.8845 73.028C17.3876 73.522 17.1392 74.1218 17.1392 74.8205V84.1426C17.1392 84.379 17.0575 84.5836 16.8943 84.753C16.7239 84.9153 16.5216 84.9965 16.2945 84.9965C16.0673 84.9965 15.8508 84.9153 15.6804 84.753C15.5172 84.5836 15.4355 84.379 15.4355 84.1426V74.8205C15.4355 73.6526 15.8508 72.6575 16.6849 71.8319C17.5189 71.0062 18.5234 70.5934 19.7017 70.5934H24.8126H24.8055Z" fill="#17539A"></path><path d="M43.9997 70.9039C44.17 70.6957 44.3936 70.5934 44.6669 70.5934H45.3448C45.5826 70.5934 45.7814 70.6746 45.9447 70.8369C46.115 71.0062 46.2002 71.2074 46.2002 71.4332V84.1461C46.2002 84.3825 46.115 84.5872 45.9447 84.7565C45.7814 84.9189 45.5791 85 45.3448 85C45.1106 85 44.9154 84.9189 44.745 84.7565C44.5818 84.5872 44.5001 84.3825 44.5001 84.1461V73.4938C44.5001 73.4126 44.4646 73.3562 44.3901 73.3279C44.3085 73.3068 44.241 73.3244 44.1913 73.3844L38.8675 80.0073C38.7788 80.1167 38.6688 80.1731 38.5339 80.1731C38.399 80.1731 38.289 80.1167 38.2003 80.0073L32.8658 73.3844C32.8196 73.3244 32.7593 73.3068 32.6777 73.3279C32.6031 73.3562 32.5676 73.4126 32.5676 73.4938V84.1461C32.5676 84.3825 32.486 84.5872 32.3227 84.7565C32.1524 84.9189 31.9501 85 31.7229 85C31.4958 85 31.2793 84.9189 31.1089 84.7565C30.9456 84.5872 30.864 84.3825 30.864 84.1461V71.4332C30.864 71.2038 30.9456 71.0062 31.1089 70.8369C31.2793 70.6746 31.4851 70.5934 31.7229 70.5934H32.4008C32.6741 70.5934 32.8977 70.6957 33.0681 70.9039L38.2038 77.2939C38.2925 77.4033 38.4026 77.4597 38.5374 77.4597C38.6723 77.4597 38.7823 77.4033 38.8711 77.2939L44.0068 70.9039H43.9997Z" fill="#17539A"></path><path d="M57.366 70.5934C58.5479 70.5934 59.5524 71.0062 60.3864 71.8319C61.2169 72.6575 61.6322 73.6561 61.6322 74.8205V84.1426C61.6322 84.379 61.547 84.5836 61.3767 84.753C61.2134 84.9153 61.0111 84.9965 60.7768 84.9965C60.5426 84.9965 60.3403 84.9153 60.177 84.753C60.0138 84.5836 59.9321 84.379 59.9321 84.1426V74.8205C59.9321 74.1183 59.6801 73.522 59.1761 73.028C58.6793 72.534 58.0759 72.2871 57.3731 72.2871H52.2623C51.556 72.2871 50.9526 72.534 50.4451 73.028C49.9482 73.522 49.6997 74.1218 49.6997 74.8205V84.1426C49.6997 84.379 49.6181 84.5836 49.4548 84.753C49.2845 84.9153 49.0822 84.9965 48.855 84.9965C48.6279 84.9965 48.4114 84.9153 48.241 84.753C48.0777 84.5836 47.9961 84.379 47.9961 84.1426V74.8205C47.9961 73.6526 48.4114 72.6575 49.2454 71.8319C50.0795 71.0062 51.0839 70.5934 52.2623 70.5934H57.3731H57.366Z" fill="#17539A"></path><path d="M77.0571 74.4041C77.0571 75.6885 76.5354 76.7152 75.4848 77.4809C76.5319 78.3313 77.0571 79.4216 77.0571 80.7588V84.1461C77.0571 84.3825 76.972 84.5872 76.8016 84.7565C76.6383 84.9189 76.436 85 76.1982 85C75.9604 85 75.7617 84.9189 75.5949 84.7565C75.4316 84.5872 75.35 84.3825 75.35 84.1461V80.7588C75.35 80.0567 75.098 79.4604 74.594 78.9664C74.0971 78.4724 73.4937 78.2254 72.791 78.2254H65.5399C65.2595 78.2254 65.1176 78.3665 65.1176 78.6453V84.1497C65.1176 84.3861 65.0359 84.5907 64.8727 84.7601C64.7023 84.9224 64.5 85.0035 64.2729 85.0035C64.0457 85.0035 63.8292 84.9224 63.6588 84.7601C63.4956 84.5907 63.4139 84.3861 63.4139 84.1497V77.3715C63.4139 77.1351 63.4956 76.9375 63.6588 76.7717C63.8292 76.6094 64.0351 76.5282 64.2729 76.5282H73.2169C73.8096 76.5282 74.3171 76.3165 74.7324 75.8966C75.1477 75.4838 75.3571 74.9863 75.3571 74.4006V72.2871H64.2729C64.0351 72.2871 63.8292 72.2024 63.6588 72.033C63.4956 71.8707 63.4139 71.6696 63.4139 71.4332C63.4139 71.1968 63.4956 71.0062 63.6588 70.8369C63.8292 70.6746 64.0351 70.5934 64.2729 70.5934H76.2018C76.4396 70.5934 76.6383 70.6746 76.8052 70.8369C76.9755 71.0062 77.0607 71.2074 77.0607 71.4332V74.4006L77.0571 74.4041Z" fill="#17539A"></path><path d="M97.2877 70.5934C97.5255 70.5934 97.7243 70.6746 97.8911 70.8369C98.0615 71.0062 98.1466 71.2074 98.1466 71.4332V74.4006C98.1466 75.4556 97.7704 76.3553 97.0215 77.1034C96.2726 77.8479 95.364 78.2219 94.3028 78.2219H86.6294C86.349 78.2219 86.2071 78.363 86.2071 78.6418V84.1461C86.2071 84.3825 86.1254 84.5872 85.9622 84.7565C85.7918 84.9189 85.5895 85 85.3588 85C85.1281 85 84.9187 84.9189 84.7448 84.7565C84.5815 84.5872 84.4999 84.3825 84.4999 84.1461V77.368C84.4999 77.1316 84.5815 76.934 84.7448 76.7682C84.9151 76.6059 85.121 76.5247 85.3588 76.5247H94.3028C94.8956 76.5247 95.4031 76.313 95.8183 75.8931C96.2336 75.4803 96.443 74.9828 96.443 74.3971V72.7034C96.443 72.4247 96.2975 72.2835 96.01 72.2835H85.3623C85.1245 72.2835 84.9222 72.1988 84.7483 72.0295C84.5851 71.8672 84.5034 71.666 84.5034 71.4296C84.5034 71.1932 84.5851 71.0027 84.7483 70.8333C84.9187 70.671 85.1245 70.5899 85.3623 70.5899H97.2913L97.2877 70.5934Z" fill="#17539A"></path><path d="M113.572 74.4041C113.572 75.6885 113.046 76.7152 111.999 77.4809C113.046 78.3313 113.572 79.4216 113.572 80.7588V84.1461C113.572 84.3825 113.486 84.5872 113.316 84.7565C113.153 84.9189 112.95 85 112.713 85C112.475 85 112.276 84.9189 112.113 84.7565C111.95 84.5872 111.868 84.3825 111.868 84.1461V80.7588C111.868 80.0567 111.616 79.4604 111.112 78.9664C110.615 78.4724 110.012 78.2254 109.309 78.2254H102.058C101.777 78.2254 101.636 78.3665 101.636 78.6453V84.1497C101.636 84.3861 101.554 84.5907 101.391 84.7601C101.22 84.9224 101.018 85.0035 100.787 85.0035C100.557 85.0035 100.347 84.9224 100.173 84.7601C100.01 84.5907 99.9283 84.3861 99.9283 84.1497V77.3715C99.9283 77.1351 100.01 76.9375 100.173 76.7717C100.344 76.6094 100.549 76.5282 100.787 76.5282H109.731C110.324 76.5282 110.832 76.3165 111.247 75.8966C111.662 75.4838 111.871 74.9863 111.871 74.4006V72.2871H100.787C100.549 72.2871 100.347 72.2024 100.173 72.033C100.01 71.8707 99.9283 71.6696 99.9283 71.4332C99.9283 71.1968 100.01 71.0062 100.173 70.8369C100.344 70.6746 100.549 70.5934 100.787 70.5934H112.716C112.954 70.5934 113.153 70.6746 113.32 70.8369C113.49 71.0062 113.575 71.2074 113.575 71.4332V74.4006L113.572 74.4041Z" fill="#17539A"></path><path d="M119.619 85C118.438 85 117.433 84.5872 116.603 83.7615C115.772 82.9359 115.357 81.9338 115.357 80.7624V74.8275C115.357 73.6596 115.772 72.6646 116.603 71.8389C117.433 71.0133 118.441 70.6005 119.619 70.6005H124.734C125.909 70.6005 126.913 71.0133 127.751 71.8389C128.581 72.6646 129 73.6631 129 74.8275V80.7624C129 81.9373 128.585 82.9359 127.751 83.7615C126.913 84.5872 125.905 85 124.734 85H119.619ZM119.619 72.287C118.913 72.287 118.31 72.534 117.802 73.028C117.305 73.522 117.057 74.1218 117.057 74.8205V80.7553C117.057 81.4575 117.305 82.0573 117.802 82.5619C118.306 83.0558 118.913 83.3028 119.619 83.3028H124.734C125.44 83.3028 126.04 83.0558 126.537 82.5619C127.034 82.0679 127.293 81.4575 127.293 80.7553V74.8205C127.293 74.1183 127.041 73.522 126.537 73.028C126.04 72.534 125.437 72.287 124.734 72.287H119.619Z" fill="#17539A"></path><path d="M71.5949 59.2318C71.5239 56.9948 71.279 54.8883 70.846 52.7924C70.3704 50.4813 69.5967 48.1349 68.5497 45.8203C67.098 42.6094 65.0963 39.589 62.5941 36.8474C60.0351 34.0423 57.0325 31.7065 53.4619 29.7271C53.4264 27.9734 51.9819 26.555 50.2109 26.555C48.4398 26.555 46.9562 28.0052 46.9562 29.7906C46.9562 31.576 48.4149 33.0261 50.2109 33.0261C50.9384 33.0261 51.6092 32.7862 52.1487 32.384C55.3785 34.1905 58.0866 36.3111 60.39 38.8375C62.6828 41.3462 64.5142 44.1054 65.8345 47.034C66.7928 49.1511 67.4956 51.2893 67.9286 53.3887C68.2764 55.0824 68.4929 56.7866 68.5852 58.5791C67.0484 58.5756 64.7556 58.5685 63.5382 58.5685H38.4026L38.4061 3.00623L42.0228 3.05562V9.56912C42.0228 23.9545 42.0122 52.7254 42.0122 52.7254L41.998 54.9554H43.4957C43.4957 54.9554 51.666 54.9589 57.6749 54.9624C58.2463 55.8904 59.2756 56.5114 60.4468 56.5114C62.2427 56.5114 63.7014 55.0612 63.7014 53.2758C63.7014 51.4905 62.2427 50.0403 60.4468 50.0403C59.1052 50.0403 57.9517 50.8518 57.4548 52.0021C53.0502 52.0021 47.5773 51.995 44.9864 51.995C44.9864 47.4116 44.997 22.5926 44.997 9.56559V0.134081L35.4283 0V61.5218H63.5346C65.4654 61.5218 70.122 61.5394 70.122 61.5394H71.6907L71.6127 59.9869C71.6127 59.9728 71.602 59.7999 71.5843 59.2283L71.5949 59.2318ZM50.2109 30.9338C49.5755 30.9338 49.0609 30.4222 49.0609 29.7906C49.0609 29.159 49.5791 28.6474 50.2109 28.6474C50.8426 28.6474 51.3608 29.159 51.3608 29.7906C51.3608 30.4222 50.8426 30.9338 50.2109 30.9338ZM61.611 53.2723C61.611 53.9039 61.0928 54.4155 60.461 54.4155C59.8292 54.4155 59.3111 53.9039 59.3111 53.2723C59.3111 52.6407 59.8257 52.1291 60.461 52.1291C61.0963 52.1291 61.611 52.6407 61.611 53.2723Z" fill="black"></path><path d="M84.0597 51.0106C83.4812 48.3607 82.7288 45.7285 81.8202 43.1845C81.1032 41.1733 80.1201 39.3032 79.0873 37.4049C77.9551 35.3196 76.9258 33.6472 75.8468 32.1405C72.8336 27.9311 69.295 24.3991 65.3376 21.6364C63.8647 20.6096 62.0333 19.3288 60.1309 18.3055C58.264 17.2999 56.3084 16.4566 54.4131 15.638L53.7778 15.3628C53.6536 15.3099 53.5293 15.2605 53.4087 15.2146C53.1354 13.7009 51.808 12.5471 50.2073 12.5471C48.4114 12.5471 46.9526 13.9973 46.9526 15.7827C46.9526 17.5681 48.4114 19.0183 50.2073 19.0183C51.1159 19.0183 51.9357 18.6478 52.5249 18.0515C52.5462 18.0585 52.5675 18.0656 52.5888 18.0762L53.2277 18.3514C55.0626 19.1453 56.9614 19.9639 58.7148 20.9095C60.3368 21.781 61.8345 22.8078 63.6269 24.0604C67.3074 26.6291 70.6046 29.9282 73.4227 33.8589C74.4272 35.2632 75.3961 36.8369 76.468 38.8093C77.4405 40.6017 78.3668 42.3624 79.0163 44.176C79.8823 46.6 80.5993 49.1123 81.1529 51.6387C81.5256 53.3499 81.7598 56.6349 81.8734 58.5756H78.3029C78.2745 58.1592 78.2426 57.7534 78.2177 57.5206C78.1751 57.1465 78.1361 56.7725 78.0971 56.402C77.9622 55.1036 77.8202 53.7592 77.554 52.429C77.1317 50.3296 76.6419 48.4419 76.0527 46.653C75.1228 43.8338 73.7777 41.0181 72.0492 38.2906C69.9019 34.8962 67.3607 31.9006 64.4964 29.3813C63.4707 28.4815 62.4627 27.6665 61.4583 26.9255C61.4903 26.742 61.5115 26.5515 61.5115 26.3574C61.5115 24.572 60.0528 23.1218 58.2569 23.1218C56.461 23.1218 55.0023 24.572 55.0023 26.3574C55.0023 28.1428 56.461 29.593 58.2569 29.593C58.7573 29.593 59.2294 29.4765 59.6518 29.2754C60.5994 29.9741 61.5506 30.7397 62.5231 31.5971C65.1743 33.9259 67.531 36.7098 69.5257 39.8643C71.1228 42.3906 72.3686 44.984 73.2204 47.5739C73.7706 49.2499 74.232 51.0282 74.633 53.0077C74.8744 54.2003 74.9986 55.4176 75.1335 56.7055C75.1725 57.0866 75.2115 57.4676 75.2577 57.8487C75.3074 58.2792 75.3926 59.6517 75.4209 60.1457L75.5026 61.5606L84.9861 61.5359L84.9222 59.9975C84.9116 59.7435 84.6631 53.7769 84.0597 51.0141V51.0106ZM50.2108 16.9294C49.5755 16.9294 49.0609 16.4178 49.0609 15.7862C49.0609 15.1546 49.5791 14.643 50.2108 14.643C50.8426 14.643 51.3608 15.1546 51.3608 15.7862C51.3608 16.4178 50.8426 16.9294 50.2108 16.9294ZM57.107 26.3539C57.107 25.7223 57.6251 25.2107 58.2569 25.2107C58.8887 25.2107 59.4069 25.7223 59.4069 26.3539C59.4069 26.9855 58.8922 27.4971 58.2569 27.4971C57.6216 27.4971 57.107 26.9855 57.107 26.3539Z" fill="black"></path><path d="M98.072 56.455C98.0508 56.1656 98.0295 55.8939 98.0011 55.6611C97.9514 55.22 97.9017 54.7754 97.852 54.3308C97.6284 52.3267 97.4012 50.252 96.9789 48.2161C96.301 44.9558 95.5911 42.3095 94.7393 39.8819C93.8201 37.2638 92.6488 34.7939 91.325 32.0629C90.0437 29.4201 88.3578 26.7138 86.168 23.7852C83.7332 20.5284 81.0003 17.5328 78.0509 14.8794C74.8211 11.979 71.6516 9.65027 68.3615 7.76609C66.0794 6.45704 64.0173 5.39851 62.0616 4.52345C59.8576 3.53549 57.5541 2.70984 55.3962 1.96534C54.4379 1.63367 53.4654 1.40079 52.5284 1.1785C52.0812 1.07264 51.6376 0.966792 51.1939 0.850353L48.8053 0.218763L49.1638 10.0702L50.1789 10.3771C50.2356 10.3948 55.8754 12.1025 58.4592 13.341C60.5745 14.3572 62.445 15.3557 64.1841 16.3931C66.8389 17.9774 69.2062 19.7345 71.2293 21.6187C72.7661 23.0513 74.3561 24.5332 75.7581 26.0928C78.2851 28.8979 80.2479 31.6501 81.7634 34.5046C83.2434 37.2956 84.3508 39.6243 85.2594 41.8331C85.6072 42.6835 85.9053 43.5656 86.1786 44.4512C85.4688 45.044 85.018 45.9332 85.018 46.9247C85.018 48.71 86.4767 50.1602 88.2726 50.1602C90.0686 50.1602 91.5273 48.71 91.5273 46.9247C91.5273 45.4215 90.4909 44.1584 89.0925 43.7949C88.7802 42.7646 88.4288 41.7273 88.0135 40.7181C87.0695 38.4141 85.9195 36.0041 84.3933 33.1249C82.7643 30.0517 80.6631 27.1054 77.9728 24.1204C76.4821 22.4655 74.8459 20.9413 73.2559 19.4558C71.0873 17.434 68.5496 15.5498 65.7173 13.8597C63.9001 12.7765 61.9516 11.7356 59.7546 10.6806C57.6393 9.66438 53.87 8.43296 52.0635 7.86488L51.9251 4.0824C52.8017 4.29058 53.6287 4.4917 54.4202 4.76692C56.5142 5.49025 58.7431 6.2912 60.8407 7.22976C62.7076 8.06247 64.681 9.08219 66.8779 10.3383C69.9835 12.1166 72.9861 14.3254 76.0562 17.0847C78.8637 19.6075 81.4617 22.4585 83.7829 25.56C85.8592 28.3369 87.4492 30.8879 88.6489 33.3578C89.9337 36.0041 91.0694 38.3964 91.9354 40.8663C92.7411 43.1633 93.419 45.6932 94.0685 48.823C94.4625 50.7213 94.6825 52.7254 94.899 54.6625C94.9487 55.1106 94.9984 55.5587 95.0481 56.0068C95.0694 56.1762 95.0836 56.3773 95.1014 56.5926C94.1218 57.1501 93.4581 58.198 93.4581 59.4012C93.4581 61.1866 94.9168 62.6368 96.7127 62.6368C98.5086 62.6368 99.9673 61.1866 99.9673 59.4012C99.9673 58.0992 99.19 56.9807 98.0756 56.4655L98.072 56.455ZM88.2691 48.0608C87.6338 48.0608 87.1192 47.5492 87.1192 46.9176C87.1192 46.286 87.6338 45.7744 88.2691 45.7744C88.9044 45.7744 89.419 46.286 89.419 46.9176C89.419 47.5492 88.9009 48.0608 88.2691 48.0608ZM95.5592 59.3906C95.5592 58.759 96.0774 58.2474 96.7091 58.2474C97.3409 58.2474 97.8591 58.759 97.8591 59.3906C97.8591 60.0222 97.3409 60.5338 96.7091 60.5338C96.0774 60.5338 95.5592 60.0222 95.5592 59.3906Z" fill="black"></path><path d="M71.5949 59.2318C71.5239 56.9948 71.279 54.8883 70.846 52.7924C70.3704 50.4813 69.5967 48.1349 68.5497 45.8203C67.098 42.6094 65.0963 39.589 62.5941 36.8474C60.0351 34.0423 57.0325 31.7065 53.4619 29.7271C53.4264 27.9734 51.9819 26.555 50.2109 26.555C48.4398 26.555 46.9562 28.0052 46.9562 29.7906C46.9562 31.576 48.4149 33.0261 50.2109 33.0261C50.9384 33.0261 51.6092 32.7862 52.1487 32.384C55.3785 34.1905 58.0866 36.3111 60.39 38.8375C62.6828 41.3462 64.5142 44.1054 65.8345 47.034C66.7928 49.1511 67.4956 51.2893 67.9286 53.3887C68.2764 55.0824 68.4929 56.7866 68.5852 58.5791C67.0484 58.5756 64.7556 58.5685 63.5382 58.5685H38.4026L38.4061 3.00623L42.0228 3.05562V9.56912C42.0228 23.9545 42.0122 52.7254 42.0122 52.7254L41.998 54.9554H43.4957C43.4957 54.9554 51.666 54.9589 57.6749 54.9624C58.2463 55.8904 59.2756 56.5114 60.4468 56.5114C62.2427 56.5114 63.7014 55.0612 63.7014 53.2758C63.7014 51.4905 62.2427 50.0403 60.4468 50.0403C59.1052 50.0403 57.9517 50.8518 57.4548 52.0021C53.0502 52.0021 47.5773 51.995 44.9864 51.995C44.9864 47.4116 44.997 22.5926 44.997 9.56559V0.134081L35.4283 0V61.5218H63.5346C65.4654 61.5218 70.122 61.5394 70.122 61.5394H71.6907L71.6127 59.9869C71.6127 59.9728 71.602 59.7999 71.5843 59.2283L71.5949 59.2318ZM50.2109 30.9338C49.5755 30.9338 49.0609 30.4222 49.0609 29.7906C49.0609 29.159 49.5791 28.6474 50.2109 28.6474C50.8426 28.6474 51.3608 29.159 51.3608 29.7906C51.3608 30.4222 50.8426 30.9338 50.2109 30.9338ZM61.611 53.2723C61.611 53.9039 61.0928 54.4155 60.461 54.4155C59.8292 54.4155 59.3111 53.9039 59.3111 53.2723C59.3111 52.6407 59.8257 52.1291 60.461 52.1291C61.0963 52.1291 61.611 52.6407 61.611 53.2723Z" fill="url(#paint0_linear_1_94)"></path><path d="M84.0597 51.0106C83.4812 48.3607 82.7288 45.7285 81.8202 43.1845C81.1032 41.1733 80.1201 39.3032 79.0873 37.4049C77.9551 35.3196 76.9258 33.6472 75.8468 32.1405C72.8336 27.9311 69.295 24.3991 65.3376 21.6364C63.8647 20.6096 62.0333 19.3288 60.1309 18.3055C58.264 17.2999 56.3084 16.4566 54.4131 15.638L53.7778 15.3628C53.6536 15.3099 53.5293 15.2605 53.4087 15.2146C53.1354 13.7009 51.808 12.5471 50.2073 12.5471C48.4114 12.5471 46.9526 13.9973 46.9526 15.7827C46.9526 17.5681 48.4114 19.0183 50.2073 19.0183C51.1159 19.0183 51.9357 18.6478 52.5249 18.0515C52.5462 18.0585 52.5675 18.0656 52.5888 18.0762L53.2277 18.3514C55.0626 19.1453 56.9614 19.9639 58.7148 20.9095C60.3368 21.781 61.8345 22.8078 63.6269 24.0604C67.3074 26.6291 70.6046 29.9282 73.4227 33.8589C74.4272 35.2632 75.3961 36.8369 76.468 38.8093C77.4405 40.6017 78.3668 42.3624 79.0163 44.176C79.8823 46.6 80.5993 49.1123 81.1529 51.6387C81.5256 53.3499 81.7598 56.6349 81.8734 58.5756H78.3029C78.2745 58.1592 78.2426 57.7534 78.2177 57.5206C78.1751 57.1465 78.1361 56.7725 78.0971 56.402C77.9622 55.1036 77.8202 53.7592 77.554 52.429C77.1317 50.3296 76.6419 48.4419 76.0527 46.653C75.1228 43.8338 73.7777 41.0181 72.0492 38.2906C69.9019 34.8962 67.3607 31.9006 64.4964 29.3813C63.4707 28.4815 62.4627 27.6665 61.4583 26.9255C61.4903 26.742 61.5115 26.5515 61.5115 26.3574C61.5115 24.572 60.0528 23.1218 58.2569 23.1218C56.461 23.1218 55.0023 24.572 55.0023 26.3574C55.0023 28.1428 56.461 29.593 58.2569 29.593C58.7573 29.593 59.2294 29.4765 59.6518 29.2754C60.5994 29.9741 61.5506 30.7397 62.5231 31.5971C65.1743 33.9259 67.531 36.7098 69.5257 39.8643C71.1228 42.3906 72.3686 44.984 73.2204 47.5739C73.7706 49.2499 74.232 51.0282 74.633 53.0077C74.8744 54.2003 74.9986 55.4176 75.1335 56.7055C75.1725 57.0866 75.2115 57.4676 75.2577 57.8487C75.3074 58.2792 75.3926 59.6517 75.4209 60.1457L75.5026 61.5606L84.9861 61.5359L84.9222 59.9975C84.9116 59.7435 84.6631 53.7769 84.0597 51.0141V51.0106ZM50.2108 16.9294C49.5755 16.9294 49.0609 16.4178 49.0609 15.7862C49.0609 15.1546 49.5791 14.643 50.2108 14.643C50.8426 14.643 51.3608 15.1546 51.3608 15.7862C51.3608 16.4178 50.8426 16.9294 50.2108 16.9294ZM57.107 26.3539C57.107 25.7223 57.6251 25.2107 58.2569 25.2107C58.8887 25.2107 59.4069 25.7223 59.4069 26.3539C59.4069 26.9855 58.8922 27.4971 58.2569 27.4971C57.6216 27.4971 57.107 26.9855 57.107 26.3539Z" fill="url(#paint1_linear_1_94)"></path><path d="M98.072 56.455C98.0508 56.1656 98.0295 55.8939 98.0011 55.6611C97.9514 55.22 97.9017 54.7754 97.852 54.3308C97.6284 52.3267 97.4012 50.252 96.9789 48.2161C96.301 44.9558 95.5911 42.3095 94.7393 39.8819C93.8201 37.2638 92.6488 34.7939 91.325 32.0629C90.0437 29.4201 88.3578 26.7138 86.168 23.7852C83.7332 20.5284 81.0003 17.5328 78.0509 14.8794C74.8211 11.979 71.6516 9.65027 68.3615 7.76609C66.0794 6.45704 64.0173 5.39851 62.0616 4.52345C59.8576 3.53549 57.5541 2.70984 55.3962 1.96534C54.4379 1.63367 53.4654 1.40079 52.5284 1.1785C52.0812 1.07264 51.6376 0.966792 51.1939 0.850353L48.8053 0.218763L49.1638 10.0702L50.1789 10.3771C50.2356 10.3948 55.8754 12.1025 58.4592 13.341C60.5745 14.3572 62.445 15.3557 64.1841 16.3931C66.8389 17.9774 69.2062 19.7345 71.2293 21.6187C72.7661 23.0513 74.3561 24.5332 75.7581 26.0928C78.2851 28.8979 80.2479 31.6501 81.7634 34.5046C83.2434 37.2956 84.3508 39.6243 85.2594 41.8331C85.6072 42.6835 85.9053 43.5656 86.1786 44.4512C85.4688 45.044 85.018 45.9332 85.018 46.9247C85.018 48.71 86.4767 50.1602 88.2726 50.1602C90.0686 50.1602 91.5273 48.71 91.5273 46.9247C91.5273 45.4215 90.4909 44.1584 89.0925 43.7949C88.7802 42.7646 88.4288 41.7273 88.0135 40.7181C87.0695 38.4141 85.9195 36.0041 84.3933 33.1249C82.7643 30.0517 80.6631 27.1054 77.9728 24.1204C76.4821 22.4655 74.8459 20.9413 73.2559 19.4558C71.0873 17.434 68.5496 15.5498 65.7173 13.8597C63.9001 12.7765 61.9516 11.7356 59.7546 10.6806C57.6393 9.66438 53.87 8.43296 52.0635 7.86488L51.9251 4.0824C52.8017 4.29058 53.6287 4.4917 54.4202 4.76692C56.5142 5.49025 58.7431 6.2912 60.8407 7.22976C62.7076 8.06247 64.681 9.08219 66.8779 10.3383C69.9835 12.1166 72.9861 14.3254 76.0562 17.0847C78.8637 19.6075 81.4617 22.4585 83.7829 25.56C85.8592 28.3369 87.4492 30.8879 88.6489 33.3578C89.9337 36.0041 91.0694 38.3964 91.9354 40.8663C92.7411 43.1633 93.419 45.6932 94.0685 48.823C94.4625 50.7213 94.6825 52.7254 94.899 54.6625C94.9487 55.1106 94.9984 55.5587 95.0481 56.0068C95.0694 56.1762 95.0836 56.3773 95.1014 56.5926C94.1218 57.1501 93.4581 58.198 93.4581 59.4012C93.4581 61.1866 94.9168 62.6368 96.7127 62.6368C98.5086 62.6368 99.9673 61.1866 99.9673 59.4012C99.9673 58.0992 99.19 56.9807 98.0756 56.4655L98.072 56.455ZM88.2691 48.0608C87.6338 48.0608 87.1192 47.5492 87.1192 46.9176C87.1192 46.286 87.6338 45.7744 88.2691 45.7744C88.9044 45.7744 89.419 46.286 89.419 46.9176C89.419 47.5492 88.9009 48.0608 88.2691 48.0608ZM95.5592 59.3906C95.5592 58.759 96.0774 58.2474 96.7091 58.2474C97.3409 58.2474 97.8591 58.759 97.8591 59.3906C97.8591 60.0222 97.3409 60.5338 96.7091 60.5338C96.0774 60.5338 95.5592 60.0222 95.5592 59.3906Z" fill="url(#paint2_linear_1_94)"></path></g><defs><linearGradient id="paint0_linear_1_94" x1="67.7014" y1="62.6262" x2="67.7014" y2="0" gradientUnits="userSpaceOnUse"><stop stop-color="#429BC7"></stop><stop offset="1" stop-color="#3FC0BC"></stop></linearGradient><linearGradient id="paint1_linear_1_94" x1="67.7014" y1="62.6262" x2="67.7014" y2="-2.1865e-06" gradientUnits="userSpaceOnUse"><stop stop-color="#429BC7"></stop><stop offset="1" stop-color="#3FC0BC"></stop></linearGradient><linearGradient id="paint2_linear_1_94" x1="67.7014" y1="62.6262" x2="67.7014" y2="1.88997e-06" gradientUnits="userSpaceOnUse"><stop stop-color="#429BC7"></stop><stop offset="1" stop-color="#3FC0BC"></stop></linearGradient><clipPath id="clip0_1_94"><rect width="129" height="85" fill="white"></rect></clipPath></defs></svg>