<svg width="127" height="48" viewBox="0 0 127 48" fill="none" xmlns="http://www.w3.org/2000/svg" role="presentation" aria-hidden="true">
  <g clip-path="url(#clip0_5118_68475)">
    <path d="M3.91691 14.1765H2.65234V15.2808H3.91691V14.1765Z" fill="#323E48"/>
    <path d="M2.16078 14.1765H0.89624V15.2808H2.16078V14.1765Z" fill="#323E48"/>
    <path d="M1.55056 19.0176C1.36622 18.8161 1.27359 18.5402 1.27359 18.1893C1.27359 17.3898 1.63054 16.9893 2.34479 16.9893C2.50837 16.9893 2.69354 17.0096 2.89836 17.0507V18.6806C2.89836 18.9085 2.92815 19.1125 2.9787 19.2989C2.80699 19.3083 2.55001 19.3197 2.34482 19.3197C2.00626 19.3197 1.73452 19.2188 1.55056 19.0176ZM26.7184 17.9882C27.1574 17.6845 27.593 17.4452 28.0262 17.2698C28.4594 17.0944 28.9134 17.0068 29.3878 17.0068C29.7913 17.0068 30.1127 17.1147 30.3526 17.3309C30.5928 17.547 30.716 17.8336 30.7218 18.1893C30.7218 18.5402 30.6638 18.9167 30.5459 19.3197H26.7184V17.9882ZM17.552 20.3711C17.8331 20.3711 18.0893 20.3129 18.3201 20.196C18.551 20.0792 18.7432 19.9152 18.8953 19.7055C19.0944 19.9506 19.3045 20.1211 19.5276 20.2176C19.7503 20.3141 20.0452 20.3654 20.4148 20.3711H20.959C21.486 20.3711 21.9066 20.1842 22.2231 19.8106C22.4038 19.9974 22.6098 20.1379 22.837 20.2306C23.0659 20.3242 23.276 20.3711 23.4693 20.3711H31.4686C31.8194 19.454 31.9956 18.7209 31.9956 18.1721C31.9956 17.7456 31.9018 17.3629 31.7142 17.0239C31.5269 16.6856 31.2536 16.4198 30.8934 16.2273C30.5332 16.0343 30.1045 15.9379 29.6072 15.9379C28.6825 15.9379 27.7186 16.2712 26.7183 16.9367V13.66H25.4893V19.3197H23.4693C23.0773 19.3197 22.7937 19.2114 22.6175 18.9953C22.653 18.8377 22.6714 18.6741 22.6714 18.5048V16.0254H21.4411V18.3118C21.4411 18.6159 21.3579 18.8597 21.191 19.0437C21.025 19.2281 20.8239 19.3197 20.5894 19.3197H20.4148C20.075 19.3197 19.8225 19.2948 19.6589 19.2452C19.4954 19.1955 19.3493 19.1007 19.22 18.9606C19.2498 18.8031 19.2645 18.6509 19.2645 18.5047V15.9379H18.0346V18.3118C18.0346 18.6159 17.951 18.8597 17.7853 19.0437C17.6185 19.2281 17.417 19.3197 17.1828 19.3197H4.80286C4.58097 19.3197 4.41291 19.257 4.29867 19.1316C4.18443 19.0054 4.12734 18.7909 4.12734 18.4876L4.1363 16.1133C3.37472 15.9961 2.79304 15.9379 2.3884 15.9379C1.91521 15.9379 1.49792 16.0343 1.1377 16.2273C0.777489 16.4198 0.49848 16.6868 0.299831 17.0288C0.0994992 17.3703 0 17.7513 0 18.1721C0 18.6101 0.0938482 18.9952 0.281507 19.3282C0.468746 19.6616 0.726138 19.9188 1.05413 20.0996C1.3825 20.2803 1.75856 20.3711 2.15179 20.3711C2.73025 20.3711 3.4596 20.2404 3.6705 20.2001C3.88505 20.3096 4.13635 20.3711 4.43456 20.3711H17.552Z" fill="#323E48"/>
    <path d="M18.1056 21.142H16.8411V22.2459H18.1056V21.142Z" fill="#323E48"/>
    <path d="M19.8617 21.142H18.5972V22.2459H19.8617V21.142Z" fill="#323E48"/>
    <path d="M22.6885 14.1765H21.424V15.2808H22.6885V14.1765Z" fill="#323E48"/>
    <path d="M35.1738 16.9893C35.3427 16.9893 35.5303 17.0096 35.7351 17.0507V19.3197H35.1738C34.8274 19.3197 34.5631 19.2187 34.3779 19.0176C34.1939 18.8161 34.1026 18.5402 34.1026 18.1892C34.1026 17.3898 34.4591 16.9893 35.1738 16.9893ZM33.8692 20.0996C34.1939 20.2803 34.5586 20.3711 34.962 20.3711H35.7082C35.6816 20.5201 35.6368 20.6491 35.5682 20.7521C35.4573 20.9186 35.2949 21.0444 35.0812 21.1291C34.8675 21.2137 34.579 21.2793 34.2156 21.3261V22.4825L34.7071 22.4211C35.3932 22.3103 35.9236 22.1056 36.3009 21.808C36.6794 21.5101 36.8944 21.031 36.9466 20.3711H39.5981V13.66H38.378V19.3197H36.9638V16.1134C36.2038 15.9962 35.6205 15.9379 35.217 15.9379C34.7426 15.9379 34.3253 16.0344 33.9663 16.2273C33.6061 16.4199 33.3263 16.6869 33.1272 17.0288C32.9281 17.3703 32.829 17.7514 32.829 18.1722C32.829 18.6102 32.9216 18.9953 33.1056 19.3283C33.2895 19.6616 33.5445 19.9188 33.8692 20.0996Z" fill="#323E48"/>
    <path d="M42.3197 13.66H41.0907V20.3711H42.3197V13.66Z" fill="#323E48"/>
    <path d="M49.1769 14.1765H47.9124V15.2808H49.1769V14.1765Z" fill="#323E48"/>
    <path d="M47.4212 14.1765H46.1566V15.2808H47.4212V14.1765Z" fill="#323E48"/>
    <path d="M46.8114 19.0176C46.6273 18.8161 46.5348 18.5402 46.5348 18.1893C46.5348 17.3898 46.8913 16.9893 47.606 16.9893C47.7691 16.9893 47.9544 17.0096 48.1591 17.0507V18.6806C48.1591 18.9085 48.1889 19.1125 48.2399 19.2989C48.0677 19.3083 47.8107 19.3197 47.606 19.3197C47.267 19.3197 46.9953 19.2188 46.8114 19.0176ZM70.6228 17.7773C70.7542 17.6491 70.9222 17.5852 71.1271 17.5852C71.3033 17.5852 71.455 17.6259 71.5843 17.7081C71.7124 17.7895 71.8127 17.8933 71.8825 18.0187C71.9523 18.1445 71.9877 18.2686 71.9877 18.3912C71.9877 18.6656 71.9204 18.8894 71.7854 19.0616C71.6516 19.2338 71.4643 19.3197 71.2241 19.3197H71.1886C70.6799 19.1617 70.425 18.8406 70.425 18.3558C70.425 18.0994 70.4915 17.9064 70.6228 17.7773ZM61.6714 20.3711C61.9525 20.3711 62.2087 20.3129 62.4396 20.196C62.6704 20.0792 62.8626 19.9152 63.0147 19.7055C63.2138 19.9506 63.4239 20.1211 63.647 20.2176C63.8697 20.3141 64.1646 20.3654 64.5342 20.3711H65.6931C65.9733 20.3711 66.2295 20.3129 66.4616 20.196C66.6925 20.0792 66.8834 19.9152 67.0364 19.7055C67.2354 19.9506 67.4459 20.1211 67.6686 20.2176C67.8905 20.3141 68.1867 20.3654 68.5547 20.3711H73.1735C73.7471 20.3711 74.2182 20.1436 74.5861 19.6876C74.768 19.9095 74.9863 20.0792 75.2412 20.196C75.4954 20.3128 75.7307 20.3711 75.9477 20.3711H78.0457V13.66H76.826V19.3197H75.9477C75.7021 19.3197 75.5088 19.2847 75.3681 19.2142C75.2278 19.1446 75.1074 19.0307 75.0082 18.8727C75.1017 18.5458 75.1486 18.2218 75.1486 17.9002C75.1486 17.3572 75.0128 16.8639 74.7407 16.4198C74.4686 15.9761 74.0766 15.6244 73.5643 15.3643C73.0519 15.1042 72.4474 14.9739 71.751 14.9739H70.6709V16.0254H71.7327C72.2014 16.0254 72.5995 16.1133 72.9275 16.2883C73.2554 16.4633 73.5027 16.6998 73.6695 16.9978C73.8363 17.2961 73.9199 17.623 73.9199 17.9796C73.9199 18.2828 73.8603 18.5356 73.7437 18.7367C73.627 18.9386 73.4818 19.0859 73.3093 19.1796C73.1367 19.2728 72.9686 19.3196 72.8039 19.3196H72.6028C72.8956 19.0513 73.0417 18.7151 73.0417 18.3118C73.0417 18.026 72.9699 17.7455 72.8268 17.4712C72.6827 17.1968 72.4678 16.9714 72.181 16.7963C71.8938 16.6213 71.543 16.5334 71.1269 16.5334C70.7529 16.5334 70.4191 16.6156 70.1267 16.7788C69.8338 16.9425 69.6054 17.1586 69.4418 17.4273C69.2782 17.6959 69.1959 17.9764 69.1959 18.2686C69.1959 18.7123 69.339 19.0628 69.6258 19.3197H68.5546C68.2152 19.3197 67.9635 19.2948 67.7999 19.2452C67.6355 19.1955 67.4891 19.1007 67.361 18.9606C67.3895 18.8031 67.4047 18.6509 67.4047 18.5047V15.9379H66.1756V18.3118C66.1756 18.6159 66.092 18.8597 65.9251 19.0437C65.7583 19.2281 65.5585 19.3197 65.3238 19.3197H64.5341C64.1944 19.3197 63.9419 19.2948 63.7783 19.2452C63.6147 19.1955 63.4687 19.1007 63.3393 18.9606C63.3691 18.8031 63.3838 18.6509 63.3838 18.5047V15.9379H62.1539V18.3118C62.1539 18.6159 62.0703 18.8597 61.9047 19.0437C61.7374 19.2281 61.5363 19.3197 61.3021 19.3197H50.2402C50.2402 19.3197 50.2402 19.3201 50.2398 19.3201L50.0635 19.3197C49.8417 19.3197 49.674 19.257 49.5594 19.1316C49.4451 19.0054 49.3881 18.7909 49.3881 18.4876L49.397 16.1133C48.6358 15.9961 48.0537 15.9379 47.6491 15.9379C47.1759 15.9379 46.7586 16.0343 46.3984 16.2273C46.0382 16.4198 45.7592 16.6868 45.5605 17.0288C45.3603 17.3703 45.2611 17.7513 45.2611 18.1721C45.2611 18.6101 45.3545 18.9952 45.5422 19.3282C45.7298 19.6616 45.9868 19.9188 46.3148 20.0996C46.6432 20.2803 47.0192 20.3711 47.4125 20.3711C47.9909 20.3711 48.7202 20.2404 48.9311 20.2001C49.1456 20.3096 49.397 20.3711 49.6955 20.3711H61.6714Z" fill="#323E48"/>
    <path d="M63.8665 14.6849H62.8569C62.81 14.621 62.7863 14.5359 62.7863 14.4309C62.7863 14.3263 62.8148 14.2441 62.8695 14.1859C62.9254 14.1277 62.9976 14.098 63.0845 14.098C63.1497 14.098 63.2309 14.1155 63.3312 14.1505L63.5507 13.4849C63.3578 13.4268 63.1758 13.397 63.0057 13.397C62.7014 13.397 62.4603 13.4821 62.282 13.6514C62.1034 13.8208 62.0145 14.0483 62.0145 14.3349C62.0145 14.4517 62.0431 14.5685 62.1014 14.685H61.6714L61.5135 15.4299H63.8664L63.8665 14.6849Z" fill="#323E48"/>
    <path d="M68.0015 21.142H66.7369V22.2459H68.0015V21.142Z" fill="#323E48"/>
    <path d="M66.245 21.142H64.9808V22.2459H66.245V21.142Z" fill="#323E48"/>
    <path d="M80.7677 13.66H79.5387V20.3711H80.7677V13.66Z" fill="#323E48"/>
    <path d="M2.88002 31.6562H1.61548V32.7598H2.88002V31.6562Z" fill="#323E48"/>
    <path d="M4.63603 31.6562H3.37146V32.7598H4.63603V31.6562Z" fill="#323E48"/>
    <path d="M11.0898 24.6903H9.8252V25.7947H11.0898V24.6903Z" fill="#323E48"/>
    <path d="M9.85127 29.8335H8.79845C8.5753 29.8335 8.40728 29.7708 8.29303 29.645C8.17879 29.5193 8.1217 29.3047 8.1217 29.0011V25.4878H6.23426C5.49101 25.4878 4.94689 25.6819 4.60173 26.0706C4.25503 26.459 4.08247 26.945 4.08247 27.5291V29.8335H2.51972C1.66027 29.8335 1.22906 29.4423 1.22906 28.6595V26.5387H0V28.8516C0 29.4365 0.172578 29.9205 0.518061 30.3064C0.863171 30.6919 1.40859 30.8849 2.15179 30.8849H5.31276V27.7216C5.31276 26.9336 5.74268 26.5388 6.60345 26.5388H6.89269V29.194C6.89269 29.7081 7.02403 30.118 7.28834 30.4249C7.55105 30.7314 7.93204 30.8849 8.42932 30.8849H11.0722V26.5388H9.85127V29.8335Z" fill="#323E48"/>
    <path d="M13.6184 24.1737H12.3894V30.8849H13.6184V24.1737Z" fill="#323E48"/>
    <path d="M30.3277 31.6562H29.0631V32.7598H30.3277V31.6562Z" fill="#323E48"/>
    <path d="M34.6297 31.6562H33.3651V32.7598H34.6297V31.6562Z" fill="#323E48"/>
    <path d="M32.8735 31.6562H31.6089V32.7598H32.8735V31.6562Z" fill="#323E48"/>
    <path d="M44.9288 29.8335H44.051C43.7043 29.8335 43.4518 29.8083 43.2906 29.7586C43.1295 29.709 42.9818 29.6117 42.8468 29.4655C42.8823 29.2787 42.8994 29.1297 42.8994 29.0181V26.1708H41.6707V28.8256C41.6707 29.1643 41.5953 29.4171 41.4431 29.5836C41.2897 29.7501 41.0968 29.8335 40.8635 29.8335C40.6236 29.8335 40.405 29.7651 40.2096 29.6275C40.013 29.49 39.9147 29.2897 39.9147 29.0275V26.5388H38.6856V28.8257C38.6856 29.1297 38.6024 29.3732 38.4352 29.5575C38.2684 29.7415 38.0685 29.8335 37.8339 29.8335H37.2897V26.5388H36.0606V29.8335H35.1828C34.8435 29.8335 34.5906 29.8083 34.4274 29.7586C34.2638 29.709 34.1173 29.6145 33.9884 29.4741C34.0178 29.3165 34.0329 29.1643 34.0329 29.0181V26.4516H32.8026V28.8256C32.8026 29.1297 32.7194 29.3731 32.5533 29.5575C32.3865 29.7415 32.1854 29.8335 31.9508 29.8335H31.1611C30.7687 29.8335 30.4852 29.7252 30.3093 29.509C30.3448 29.3515 30.3628 29.1879 30.3628 29.0181V26.5388H29.133V28.8256C29.133 29.1297 29.0493 29.3731 28.8825 29.5575C28.7169 29.7415 28.5158 29.8335 28.2812 29.8335H17.2972C16.8937 29.8335 16.5976 29.7081 16.4099 29.4565V26.5387H15.1813V30.6569C15.1813 30.9426 15.1401 31.1665 15.0589 31.3273C14.9766 31.4877 14.8529 31.6033 14.6893 31.6729C14.5262 31.7429 14.2998 31.7983 14.0138 31.8394V32.9848L14.5054 32.9348C15.0667 32.8701 15.5252 32.6588 15.8797 32.2998C16.2329 31.9403 16.4099 31.381 16.4099 30.6219V30.6133C16.7143 30.7941 17.0104 30.8849 17.2972 30.8849H28.6504C29.1774 30.8849 29.5984 30.6976 29.915 30.3239C30.0957 30.5112 30.3013 30.6512 30.5289 30.7444C30.7573 30.838 30.9678 30.8849 31.1611 30.8849H32.3205C32.6015 30.8849 32.8577 30.8267 33.0886 30.7094C33.3195 30.5926 33.5116 30.429 33.6637 30.2189C33.8624 30.4643 34.0729 30.6349 34.2956 30.7314C34.5188 30.8274 34.8137 30.8787 35.1828 30.8848H38.2035C38.7293 30.8848 39.1568 30.689 39.4847 30.2978C39.6483 30.4904 39.8494 30.6365 40.086 30.7358C40.3226 30.8352 40.6407 30.8848 41.0385 30.8848C41.3424 30.8848 41.6226 30.823 41.8776 30.7004C42.1313 30.5779 42.3406 30.409 42.505 30.1928C42.7097 30.4493 42.9247 30.6279 43.1499 30.7272C43.3751 30.8266 43.6757 30.8787 44.051 30.8848H46.1485V24.1732H44.9288V29.8335Z" fill="#323E48"/>
    <path d="M48.8705 24.1737H47.6415V30.8849H48.8705V24.1737Z" fill="#323E48"/>
    <path d="M54.8771 25.4438H53.6125V26.5481H54.8771V25.4438Z" fill="#323E48"/>
    <path d="M70.2149 29.8336H68.7571V27.5642C68.9505 27.5236 69.138 27.5028 69.3184 27.5028C70.0331 27.5028 70.3896 27.9034 70.3896 28.7028C70.3896 29.0537 70.3316 29.4302 70.2149 29.8336ZM70.5258 26.7408C70.1656 26.5478 69.7495 26.4518 69.2751 26.4518C68.8716 26.4518 68.2883 26.5096 67.5284 26.6268V29.8336H56.712V26.5389H55.4829V31.4016H54.4554C53.5954 31.4016 53.1647 31.0076 53.1647 30.2191V28.7028H51.9357V30.412C51.9357 30.9953 52.1082 31.4802 52.4533 31.866C52.7988 32.2515 53.3442 32.444 54.087 32.444H56.712V30.8846H71.1364C71.4872 29.9675 71.6634 29.2344 71.6634 28.6857C71.6634 28.2648 71.5639 27.8838 71.3649 27.5423C71.1658 27.2007 70.886 26.9337 70.5258 26.7408Z" fill="#323E48"/>
    <path d="M74.0861 25.5315H75.8422V24.9625H75.0957C75.019 24.9214 74.9811 24.8566 74.9811 24.7695C74.9811 24.7227 75.0007 24.6832 75.0382 24.6507C75.0761 24.6189 75.125 24.603 75.1834 24.603C75.283 24.603 75.4179 24.6262 75.5872 24.6731L75.7186 24.1125C75.473 24.0303 75.2739 23.9896 75.1218 23.9896C74.917 23.9896 74.7571 24.0507 74.6441 24.1736C74.5295 24.2962 74.4724 24.4512 74.4724 24.6377C74.4724 24.7374 74.501 24.8453 74.5605 24.9625H74.2346L74.0861 25.5315Z" fill="#323E48"/>
    <path d="M79.5476 29.8335H78.4936C78.2708 29.8335 78.1028 29.7708 77.9882 29.645C77.8739 29.5193 77.8181 29.3047 77.8181 29.0011V23.9984H76.5878V29.194C76.5878 29.2701 76.5935 29.3775 76.6062 29.518C76.3308 29.6816 75.9706 29.7838 75.526 29.8245H75.4917V26.321H74.2618V29.8335H72.7076V30.8849H75.3061C75.8972 30.8849 76.4356 30.7066 76.9219 30.3504C77.1972 30.7066 77.5986 30.8849 78.1244 30.8849H78.6686L78.669 30.8845C78.6695 30.8845 78.6695 30.8849 78.6699 30.8849H80.7674V24.1733H79.5477L79.5476 29.8335Z" fill="#323E48"/>
    <path d="M1.94224 38.8697C2.20982 39.2495 2.42682 39.587 2.59405 39.8817H2.6108C2.5884 39.3981 2.57735 39.046 2.57735 38.8254V37.1406H3.26018V40.8603H2.54387L1.32951 39.1478C1.1158 38.8511 0.894708 38.5075 0.666225 38.1164H0.649471C0.671917 38.5723 0.68295 38.9255 0.68295 39.1755V40.8603H0.000488281V37.1407H0.716401L1.94224 38.8697Z" fill="#323E48"/>
    <path d="M5.60284 39.712C5.53962 39.6973 5.4674 39.6839 5.38576 39.6716C5.30378 39.6598 5.2214 39.6537 5.13778 39.6537C4.97627 39.6537 4.84855 39.6859 4.7547 39.7498C4.66089 39.8137 4.61399 39.9114 4.61399 40.0433C4.61399 40.1043 4.6246 40.1576 4.64578 40.2028C4.66739 40.248 4.69596 40.2859 4.73229 40.3155C4.76858 40.3448 4.81062 40.3672 4.85916 40.3819C4.90728 40.397 4.95827 40.4043 5.01214 40.4043C5.07901 40.4043 5.14223 40.3958 5.2018 40.3783C5.26138 40.3603 5.31605 40.338 5.36618 40.3111C5.41635 40.2847 5.46125 40.2541 5.50123 40.2208C5.54122 40.1878 5.57506 40.1552 5.60279 40.1239L5.60284 39.712ZM5.65587 40.5741H5.64483C5.60775 40.6132 5.56287 40.6527 5.51105 40.6937C5.45887 40.7344 5.39971 40.7727 5.33284 40.809C5.26592 40.8452 5.19166 40.8745 5.10964 40.8965C5.02809 40.9189 4.93996 40.9298 4.84532 40.9298C4.71686 40.9298 4.59729 40.9099 4.48558 40.87C4.37419 40.8301 4.27876 40.7727 4.19885 40.6978C4.11888 40.6225 4.05649 40.5317 4.01076 40.4255C3.96512 40.3188 3.94263 40.1996 3.94263 40.0681C3.94263 39.9236 3.96918 39.7937 4.02174 39.679C4.07477 39.5637 4.14861 39.4665 4.24326 39.3867C4.33786 39.3073 4.45129 39.2463 4.58345 39.2048C4.71522 39.1632 4.86081 39.1425 5.02073 39.1425C5.13778 39.1425 5.24548 39.1494 5.34383 39.1644C5.44212 39.1795 5.52863 39.197 5.60284 39.2174V39.1091C5.60284 39.046 5.59223 38.9849 5.57105 38.9267C5.54982 38.8685 5.51512 38.8164 5.46784 38.7713C5.42052 38.7257 5.35893 38.6898 5.28266 38.6626C5.20639 38.6357 5.11374 38.6227 5.00404 38.6227C4.87025 38.6227 4.73646 38.6373 4.60263 38.6671C4.46921 38.6964 4.32402 38.7412 4.16816 38.8002V38.2861C4.30359 38.2267 4.44761 38.1815 4.6002 38.1497C4.75232 38.1184 4.91183 38.1017 5.0791 38.0997C5.27616 38.0997 5.44828 38.1237 5.59591 38.1722C5.74358 38.2202 5.86719 38.2865 5.96675 38.3708C6.06589 38.4551 6.14011 38.5548 6.18949 38.6696C6.23883 38.7848 6.26327 38.9098 6.26327 39.0449V40.0597C6.26327 40.238 6.26491 40.3906 6.26898 40.5189C6.27267 40.6463 6.27637 40.7607 6.27997 40.8604H5.68359L5.65587 40.5741Z" fill="#323E48"/>
    <path d="M8.65363 40.8575C8.57937 40.8799 8.49048 40.8974 8.38765 40.9104C8.28449 40.9235 8.18822 40.93 8.09932 40.93C7.87252 40.93 7.68733 40.8934 7.5433 40.8201C7.39927 40.7468 7.2977 40.6418 7.23859 40.5047C7.19571 40.4066 7.17411 40.2731 7.17411 40.1041V38.7087H6.66992V38.1665H7.17411V37.4131H7.83454V38.1665H8.6145V38.7087H7.83454V40.0182C7.83454 40.122 7.85048 40.1989 7.88186 40.249C7.93779 40.3341 8.04835 40.3768 8.21352 40.3768C8.28941 40.3768 8.3653 40.3707 8.44031 40.3585C8.51578 40.3467 8.58677 40.3312 8.65369 40.3129L8.65363 40.8575Z" fill="#323E48"/>
    <path d="M9.18558 38.1667H9.846V40.8606H9.18558V38.1667ZM9.16882 36.8348H9.86276V37.5492H9.16882V36.8348Z" fill="#323E48"/>
    <path d="M12.4792 39.5148C12.4792 39.3719 12.4624 39.2461 12.429 39.1366C12.3955 39.0271 12.3491 38.9355 12.2895 38.8614C12.2299 38.7873 12.1585 38.7316 12.0749 38.6945C11.9918 38.6575 11.9004 38.6392 11.802 38.6392C11.7054 38.6392 11.6161 38.6575 11.5332 38.6945C11.4504 38.7315 11.3795 38.7873 11.3203 38.8614C11.2608 38.9355 11.2143 39.0271 11.1808 39.1366C11.1473 39.2461 11.1306 39.3719 11.1306 39.5148C11.1306 39.6577 11.1474 39.7834 11.1808 39.8929C11.2143 40.002 11.2612 40.0936 11.3215 40.1665C11.3819 40.2402 11.4533 40.2955 11.536 40.3334C11.6184 40.3717 11.709 40.3904 11.8077 40.3904C11.906 40.3904 11.9962 40.3717 12.0778 40.3334C12.1598 40.2956 12.23 40.2402 12.2895 40.1665C12.3491 40.0936 12.3956 40.002 12.4291 39.8929C12.4625 39.7834 12.4792 39.6577 12.4792 39.5148ZM13.1616 39.5148C13.1616 39.726 13.1302 39.919 13.067 40.0932C13.0038 40.2674 12.9132 40.4164 12.7953 40.5406C12.6774 40.6647 12.5347 40.7608 12.3678 40.8284C12.2005 40.8959 12.0137 40.9301 11.8077 40.9301C11.596 40.9301 11.406 40.8959 11.2379 40.8284C11.0698 40.7608 10.927 40.6647 10.8104 40.5406C10.6933 40.4164 10.6035 40.2675 10.5415 40.0932C10.4792 39.919 10.4481 39.7261 10.4481 39.5148C10.4481 39.3035 10.4795 39.111 10.5428 38.9363C10.6059 38.7621 10.6965 38.6131 10.8145 38.489C10.9323 38.3648 11.0751 38.2688 11.242 38.2012C11.4092 38.1336 11.596 38.0994 11.802 38.0994C12.0137 38.0994 12.2038 38.1336 12.3719 38.2012C12.54 38.2688 12.6823 38.3648 12.7994 38.489C12.9165 38.6131 13.0062 38.7621 13.0682 38.9363C13.1306 39.111 13.1616 39.3035 13.1616 39.5148Z" fill="#323E48"/>
    <path d="M14.354 38.5419H14.365C14.4041 38.4861 14.4534 38.4316 14.5126 38.3778C14.5722 38.3241 14.6399 38.2769 14.7161 38.2358C14.7924 38.1951 14.8765 38.1625 14.9682 38.1373C15.06 38.1125 15.1579 38.0999 15.2619 38.0999C15.3606 38.0999 15.4557 38.1108 15.5479 38.1332C15.6397 38.1552 15.7237 38.1898 15.7999 38.2374C15.8758 38.2846 15.9431 38.3457 16.0018 38.4206C16.0602 38.4959 16.1063 38.5855 16.1397 38.6892C16.1581 38.7466 16.1708 38.8089 16.1773 38.8769C16.1838 38.9444 16.1871 39.0226 16.1871 39.1117V40.8605H15.5267V39.2147C15.5267 39.1423 15.5242 39.0804 15.5185 39.0283C15.5128 38.9762 15.5026 38.931 15.4879 38.892C15.4544 38.8069 15.4039 38.7454 15.3361 38.7088C15.268 38.6717 15.186 38.653 15.0893 38.653C14.9612 38.653 14.8381 38.6831 14.7202 38.7434C14.6023 38.8036 14.4978 38.8912 14.4069 39.0059V40.8605H13.7465V38.1666H14.2927L14.354 38.5419Z" fill="#323E48"/>
    <path d="M18.4466 39.712C18.3834 39.6973 18.3112 39.6839 18.2292 39.6716C18.1476 39.6598 18.0652 39.6537 17.9816 39.6537C17.8197 39.6537 17.692 39.6859 17.5982 39.7498C17.5047 39.8137 17.4574 39.9114 17.4574 40.0433C17.4574 40.1043 17.4685 40.1576 17.4897 40.2028C17.5113 40.248 17.5398 40.2859 17.5762 40.3155C17.6124 40.3448 17.6545 40.3672 17.703 40.3819C17.7512 40.397 17.8022 40.4043 17.856 40.4043C17.9229 40.4043 17.9861 40.3958 18.0456 40.3783C18.1048 40.3603 18.1599 40.338 18.2101 40.3111C18.2598 40.2847 18.3051 40.2541 18.3451 40.2208C18.3851 40.1878 18.4189 40.1552 18.4467 40.1239L18.4466 39.712ZM18.4996 40.5741H18.4886C18.4511 40.6132 18.4066 40.6527 18.3548 40.6937C18.3026 40.7344 18.2435 40.7727 18.1766 40.809C18.1097 40.8452 18.0354 40.8745 17.9534 40.8965C17.8718 40.9189 17.7837 40.9298 17.6891 40.9298C17.5606 40.9298 17.4411 40.9099 17.3293 40.87C17.218 40.8301 17.1226 40.7727 17.0426 40.6978C16.9626 40.6225 16.8998 40.5317 16.8546 40.4255C16.8088 40.3188 16.786 40.1996 16.786 40.0681C16.786 39.9236 16.8129 39.7937 16.8656 39.679C16.9186 39.5637 16.9924 39.4665 17.0871 39.3867C17.1817 39.3073 17.2951 39.2463 17.4268 39.2048C17.559 39.1632 17.7047 39.1425 17.8645 39.1425C17.9816 39.1425 18.0893 39.1494 18.1876 39.1644C18.2859 39.1795 18.3724 39.197 18.4467 39.2174V39.1091C18.4467 39.046 18.436 38.9849 18.4148 38.9267C18.3932 38.8685 18.359 38.8164 18.3117 38.7713C18.2643 38.7257 18.2023 38.6898 18.1264 38.6626C18.0502 38.6357 17.9572 38.6227 17.8478 38.6227C17.7141 38.6227 17.5803 38.6373 17.4464 38.6671C17.313 38.6964 17.1678 38.7412 17.012 38.8002V38.2861C17.1474 38.2267 17.2914 38.1815 17.4436 38.1497C17.5962 38.1184 17.7556 38.1017 17.9229 38.0997C18.1199 38.0997 18.292 38.1237 18.4397 38.1722C18.5873 38.2202 18.7109 38.2865 18.8101 38.3708C18.9096 38.4551 18.9839 38.5548 19.0332 38.6696C19.0822 38.7848 19.1071 38.9098 19.1071 39.0449V40.0597C19.1071 40.238 19.1087 40.3906 19.1124 40.5189C19.1164 40.6463 19.1201 40.7607 19.1238 40.8604H18.5274L18.4996 40.5741Z" fill="#323E48"/>
    <path d="M20.5364 36.8348H19.876V40.8606H20.5364V36.8348Z" fill="#323E48"/>
    <path d="M24.3615 37.6466C24.1759 37.6466 24.0045 37.6771 23.8475 37.7382C23.6904 37.7993 23.5559 37.8884 23.4437 38.0052C23.3311 38.1221 23.2434 38.2662 23.1802 38.4375C23.1169 38.6089 23.0855 38.8051 23.0855 39.0253C23.0855 39.2443 23.1145 39.4364 23.172 39.6025C23.2295 39.7681 23.3119 39.9065 23.42 40.018C23.5277 40.1292 23.659 40.213 23.8141 40.2696C23.9691 40.3262 24.1449 40.3543 24.3419 40.3543C24.4831 40.3543 24.6271 40.3433 24.7739 40.3209C24.9207 40.2989 25.0582 40.2664 25.1863 40.2236V40.8102C25.0562 40.8472 24.9159 40.8765 24.7653 40.8981C24.6148 40.9193 24.459 40.9298 24.2975 40.9298C23.9817 40.9298 23.7039 40.8846 23.4645 40.7951C23.225 40.7051 23.0247 40.5782 22.864 40.4141C22.7033 40.2501 22.5826 40.0538 22.5018 39.8247C22.421 39.5959 22.3806 39.3435 22.3806 39.0671C22.3806 38.7834 22.4238 38.5205 22.5103 38.2775C22.5964 38.0349 22.7208 37.8244 22.8835 37.6465C23.0459 37.4686 23.2495 37.3286 23.4934 37.2268C23.7377 37.1246 24.0143 37.0726 24.3227 37.0709C24.4802 37.0709 24.6299 37.0815 24.771 37.1031C24.9122 37.1243 25.0394 37.1544 25.1528 37.1931V37.7715C25.0039 37.7251 24.8656 37.6929 24.7376 37.6742C24.6095 37.6555 24.4843 37.6466 24.3615 37.6466Z" fill="#323E48"/>
    <path d="M25.2556 38.1665H25.9634L26.3672 39.1422C26.5198 39.5131 26.6275 39.7874 26.6903 39.9653H26.7017C26.7482 39.8261 26.8466 39.5688 26.9971 39.1923L27.4148 38.1665H28.1307L26.3926 42.1532H25.7403L26.3591 40.7102L25.2556 38.1665Z" fill="#323E48"/>
    <path d="M30.4325 39.501C30.4325 39.332 30.4121 39.1871 30.3713 39.0658C30.3301 38.9445 30.2767 38.8518 30.211 38.7878C30.1449 38.7239 30.0764 38.6808 30.0046 38.6584C29.9332 38.6364 29.8622 38.625 29.7917 38.625C29.695 38.625 29.5967 38.6445 29.4963 38.6836C29.396 38.7227 29.305 38.7744 29.2234 38.8391V40.1291C29.2491 40.1588 29.2814 40.1901 29.3193 40.2223C29.3572 40.2549 29.4001 40.2846 29.4474 40.3114C29.4951 40.3383 29.5465 40.3603 29.6024 40.3782C29.6579 40.3957 29.7175 40.4047 29.7807 40.4047C29.8883 40.4047 29.9826 40.3827 30.0634 40.3391C30.1441 40.2956 30.2118 40.2341 30.2665 40.1543C30.3216 40.0746 30.3627 39.9797 30.3905 39.8694C30.4187 39.7591 30.4325 39.6361 30.4325 39.501ZM31.115 39.4676C31.115 39.7102 31.0795 39.9255 31.0093 40.1127C30.9388 40.2996 30.8462 40.4534 30.7319 40.5739C30.6177 40.6944 30.4892 40.7839 30.3461 40.8422C30.2029 40.9008 30.0589 40.9301 29.9141 40.9301C29.8121 40.9301 29.7203 40.9175 29.6383 40.8922C29.5567 40.867 29.4854 40.8365 29.4238 40.799C29.3626 40.762 29.3112 40.7233 29.2692 40.6822C29.2276 40.6415 29.1946 40.6057 29.1704 40.574H29.1594L29.095 40.8605H28.5492C28.5529 40.7807 28.5561 40.6818 28.559 40.5642C28.5619 40.4466 28.5631 40.335 28.5631 40.2292V36.8348H29.2235V37.955C29.2235 38.0348 29.223 38.1085 29.2219 38.176C29.221 38.244 29.2194 38.2961 29.2178 38.3332H29.2235C29.2659 38.3039 29.3124 38.275 29.3626 38.2472C29.4127 38.2192 29.4674 38.1943 29.5269 38.1719C29.5865 38.1495 29.6505 38.132 29.7191 38.119C29.788 38.1064 29.8602 38.0995 29.9365 38.0995C30.087 38.0995 30.2331 38.1272 30.3755 38.1817C30.5174 38.2363 30.6438 38.3197 30.7544 38.4321C30.8649 38.544 30.9526 38.6877 31.0175 38.8627C31.0823 39.0382 31.115 39.2396 31.115 39.4676Z" fill="#323E48"/>
    <path d="M32.8254 38.614C32.7417 38.614 32.6675 38.6294 32.6027 38.66C32.5374 38.6905 32.4815 38.7325 32.4342 38.785C32.3865 38.8379 32.3489 38.8993 32.3212 38.9698C32.2935 39.0402 32.2748 39.1155 32.2653 39.1948H33.3272C33.3272 39.1155 33.3162 39.0402 33.2949 38.9698C33.2737 38.8993 33.2419 38.8379 33.2003 38.785C33.1583 38.7325 33.1065 38.6905 33.0441 38.66C32.9821 38.6295 32.909 38.614 32.8254 38.614ZM33.0901 40.3989C33.2182 40.3989 33.352 40.3859 33.4915 40.3599C33.6307 40.3338 33.7718 40.2971 33.915 40.2487V40.7742C33.8293 40.8113 33.6984 40.8463 33.5221 40.8801C33.3455 40.9134 33.1628 40.9301 32.973 40.9301C32.7817 40.9301 32.6002 40.9053 32.4285 40.856C32.2567 40.8072 32.1066 40.7278 31.9785 40.6187C31.8504 40.5092 31.7485 40.3675 31.6735 40.1933C31.5983 40.0191 31.5604 39.8074 31.5604 39.5591C31.5604 39.3145 31.5959 39.1004 31.6665 38.9172C31.7371 38.7336 31.8317 38.5814 31.9508 38.4609C32.0695 38.3408 32.2057 38.2504 32.3587 38.1898C32.5121 38.1299 32.6704 38.0994 32.834 38.0994C33.0049 38.0994 33.1619 38.1254 33.3059 38.1775C33.45 38.2296 33.5743 38.3106 33.6796 38.4221C33.7844 38.5333 33.8661 38.6765 33.9247 38.8516C33.9831 39.027 34.0124 39.2338 34.0124 39.4732C34.0104 39.5655 34.0075 39.6445 34.0039 39.7092H32.2347C32.2441 39.8334 32.2718 39.9396 32.3184 40.0276C32.3649 40.1159 32.4257 40.1871 32.5011 40.2417C32.5762 40.2962 32.6639 40.3361 32.7642 40.3613C32.8646 40.3862 32.9731 40.3989 33.0901 40.3989Z" fill="#323E48"/>
    <path d="M36.2299 38.689H36.174C35.9717 38.689 35.7938 38.7192 35.6408 38.7794C35.4875 38.8397 35.3688 38.9316 35.2855 39.0558V40.8603H34.6251V38.1664H35.1713L35.2325 38.5417H35.2435C35.3214 38.405 35.4287 38.2967 35.5653 38.2181C35.702 38.1391 35.866 38.0996 36.0573 38.0996C36.1238 38.0996 36.1818 38.1037 36.2299 38.1106V38.689Z" fill="#323E48"/>
    <path d="M37.8155 40.0792C37.8155 40.0218 37.7992 39.9746 37.767 39.9375C37.7339 39.9005 37.6907 39.8692 37.6373 39.8443C37.5834 39.819 37.5214 39.7975 37.4516 39.7787C37.3823 39.7604 37.3093 39.7417 37.2334 39.7234C37.1367 39.6973 37.0433 39.6672 36.9548 39.633C36.8654 39.5988 36.7871 39.5536 36.7186 39.4983C36.6509 39.4425 36.597 39.3725 36.5571 39.2882C36.5175 39.204 36.4979 39.1006 36.4979 38.9781C36.4979 38.8283 36.5248 38.698 36.5787 38.5877C36.6321 38.4774 36.7051 38.3858 36.7969 38.3137C36.8891 38.2417 36.996 38.1876 37.1176 38.1526C37.2391 38.1176 37.368 38.0996 37.503 38.0996C37.6687 38.0996 37.8237 38.1131 37.9684 38.1399C38.1137 38.1668 38.2442 38.2018 38.3613 38.2442V38.7806C38.3006 38.7603 38.2353 38.7416 38.1679 38.7237C38.1002 38.7062 38.0313 38.6911 37.9615 38.6781C37.8922 38.665 37.8228 38.6544 37.7539 38.6459C37.6854 38.6378 37.6201 38.6333 37.5594 38.6333C37.4815 38.6333 37.4153 38.6411 37.3611 38.6557C37.3076 38.6708 37.2636 38.6903 37.2306 38.7155C37.1967 38.7404 37.1727 38.7693 37.1576 38.8018C37.1433 38.834 37.1355 38.8682 37.1355 38.9032C37.1355 38.9643 37.1518 39.0143 37.184 39.0534C37.2167 39.0924 37.2619 39.1238 37.3195 39.1478C37.377 39.1719 37.4378 39.1918 37.5006 39.2076C37.5638 39.2231 37.6246 39.2386 37.6846 39.2537C37.7772 39.2756 37.8702 39.3025 37.9632 39.3342C38.0558 39.3656 38.1398 39.4096 38.2141 39.4661C38.2883 39.5227 38.3491 39.596 38.396 39.6855C38.4434 39.7755 38.467 39.8903 38.467 40.0291C38.467 40.1813 38.4388 40.3136 38.3809 40.4268C38.323 40.5395 38.243 40.6339 38.1402 40.7088C38.0367 40.7837 37.9135 40.8395 37.7691 40.8757C37.6259 40.9116 37.4668 40.9299 37.2943 40.9299C37.1238 40.9299 36.9696 40.9164 36.8337 40.8895C36.6971 40.8627 36.5841 40.8289 36.4948 40.7882V40.257C36.6396 40.3107 36.7734 40.3473 36.8962 40.3669C37.0189 40.3864 37.1332 40.3962 37.2388 40.3962C37.3208 40.3962 37.3963 40.3901 37.4668 40.3779C37.5374 40.3661 37.599 40.347 37.65 40.3209C37.701 40.2949 37.7414 40.2623 37.7712 40.2224C37.8005 40.1825 37.8155 40.135 37.8155 40.0792Z" fill="#323E48"/>
    <path d="M40.1639 38.614C40.0802 38.614 40.006 38.6294 39.9412 38.66C39.8759 38.6905 39.82 38.7325 39.7723 38.785C39.725 38.8379 39.6875 38.8993 39.6597 38.9698C39.6319 39.0402 39.6132 39.1155 39.6038 39.1948H40.6656C40.6656 39.1155 40.6546 39.0402 40.6334 38.9698C40.6118 38.8993 40.5804 38.8379 40.5388 38.785C40.4967 38.7325 40.4449 38.6905 40.3826 38.66C40.3205 38.6295 40.2475 38.614 40.1639 38.614ZM40.4286 40.3989C40.5568 40.3989 40.6905 40.3859 40.83 40.3599C40.9692 40.3338 41.1103 40.2971 41.2535 40.2487V40.7742C41.1678 40.8113 41.0369 40.8463 40.8606 40.8801C40.684 40.9134 40.5013 40.9301 40.3115 40.9301C40.1202 40.9301 39.9387 40.9053 39.767 40.856C39.5952 40.8072 39.4452 40.7278 39.317 40.6187C39.189 40.5092 39.087 40.3675 39.012 40.1933C38.9369 40.0191 38.8989 39.8074 38.8989 39.5591C38.8989 39.3145 38.9344 39.1004 39.005 38.9172C39.0756 38.7336 39.1702 38.5814 39.2893 38.4609C39.408 38.3408 39.5438 38.2504 39.6972 38.1898C39.8506 38.1299 40.0089 38.0994 40.1725 38.0994C40.3434 38.0994 40.5004 38.1254 40.6444 38.1775C40.7885 38.2296 40.9128 38.3106 41.0177 38.4221C41.1229 38.5333 41.2045 38.6765 41.2632 38.8516C41.3216 39.027 41.351 39.2338 41.351 39.4732C41.3489 39.5655 41.3461 39.6445 41.3424 39.7092H39.5733C39.5826 39.8334 39.6103 39.9396 39.6569 40.0276C39.7034 40.1159 39.7642 40.1871 39.8392 40.2417C39.9147 40.2962 40.0023 40.3361 40.1027 40.3613C40.2031 40.3862 40.3116 40.3989 40.4286 40.3989Z" fill="#323E48"/>
    <path d="M43.9082 40.802C43.8246 40.8374 43.7226 40.8671 43.6018 40.8924C43.4811 40.9172 43.3538 40.9298 43.22 40.9298C43.0251 40.9298 42.8431 40.9021 42.6738 40.8463C42.505 40.791 42.3573 40.7067 42.2308 40.5936C42.1048 40.4804 42.0053 40.3371 41.9331 40.1641C41.8604 39.9907 41.8241 39.7884 41.8241 39.5564C41.8241 39.297 41.8662 39.0744 41.9498 38.8892C42.033 38.704 42.1415 38.5534 42.2741 38.4374C42.4071 38.3218 42.5564 38.2363 42.7227 38.1817C42.8887 38.1268 43.0528 38.0995 43.2143 38.0995C43.335 38.0995 43.4513 38.1105 43.5627 38.1317C43.674 38.1529 43.7752 38.1822 43.8666 38.2192V38.7557C43.7846 38.7207 43.6977 38.6922 43.606 38.671C43.5142 38.6499 43.415 38.6393 43.3094 38.6393C43.2033 38.6393 43.1022 38.6551 43.0055 38.6877C42.9088 38.7203 42.8236 38.7716 42.7493 38.842C42.675 38.9124 42.6159 39.0056 42.5722 39.1212C42.5286 39.2372 42.507 39.3768 42.507 39.5397C42.507 39.6586 42.5237 39.7701 42.5567 39.8747C42.5906 39.9793 42.6391 40.0693 42.7032 40.1434C42.7672 40.2175 42.8489 40.2773 42.9483 40.3224C43.0479 40.3676 43.1654 40.3904 43.3008 40.3904C43.4215 40.3904 43.5313 40.3786 43.6296 40.3546C43.7279 40.3306 43.8209 40.3009 43.9082 40.2655V40.802Z" fill="#323E48"/>
    <path d="M45.672 40.9299C45.4008 40.9299 45.176 40.8839 44.9977 40.7923C44.8194 40.7003 44.6849 40.5766 44.5939 40.4211C44.5453 40.3377 44.5098 40.2461 44.4866 40.1459C44.4633 40.0458 44.4519 39.9347 44.4519 39.8122V38.1664H45.1119V39.743C45.1119 39.8337 45.1184 39.9119 45.1315 39.9778C45.1445 40.0434 45.164 40.1007 45.1898 40.1488C45.2347 40.2302 45.2979 40.2908 45.3795 40.3307C45.461 40.3706 45.5585 40.3906 45.6719 40.3906C45.7907 40.3906 45.8926 40.3682 45.9771 40.3238C46.0615 40.2794 46.1252 40.2118 46.168 40.1207C46.2104 40.0335 46.232 39.9123 46.232 39.7563V38.1664H46.892V39.8122C46.892 40.0312 46.8541 40.2156 46.7778 40.3654C46.7354 40.4508 46.6799 40.5282 46.6121 40.5974C46.5444 40.667 46.4645 40.7264 46.3727 40.7757C46.2805 40.8245 46.1765 40.8628 46.0606 40.8896C45.9444 40.9165 45.8148 40.9299 45.672 40.9299Z" fill="#323E48"/>
    <path d="M49.1936 38.689H49.1381C48.9354 38.689 48.7575 38.7192 48.6046 38.7794C48.4511 38.8397 48.332 38.9316 48.2488 39.0558V40.8603H47.5889V38.1664H48.1351L48.1962 38.5417H48.2073C48.2848 38.405 48.3924 38.2967 48.5291 38.2181C48.6653 38.1391 48.8293 38.0996 49.0211 38.0996C49.0876 38.0996 49.1455 38.1037 49.1936 38.1106L49.1936 38.689Z" fill="#323E48"/>
    <path d="M49.5998 38.1667H50.2602V40.8606H49.5998V38.1667ZM49.5835 36.8348H50.277V37.5492H49.5835V36.8348Z" fill="#323E48"/>
    <path d="M52.6508 40.8575C52.5765 40.8799 52.488 40.8974 52.3848 40.9104C52.2816 40.9235 52.1858 40.93 52.0964 40.93C51.87 40.93 51.6844 40.8934 51.5404 40.8201C51.3968 40.7468 51.2952 40.6418 51.2357 40.5047C51.1928 40.4066 51.1712 40.2731 51.1712 40.1041V38.7087H50.667V38.1665H51.1712V37.4131H51.8317V38.1665H52.612V38.7087H51.8317V40.0182C51.8317 40.122 51.8476 40.1989 51.8794 40.249C51.9348 40.3341 52.0454 40.3768 52.2106 40.3768C52.2869 40.3768 52.3623 40.3707 52.4378 40.3585C52.5129 40.3467 52.5838 40.3312 52.6507 40.3129L52.6508 40.8575Z" fill="#323E48"/>
    <path d="M52.8323 38.1665H53.54L53.9439 39.1422C54.096 39.5131 54.2037 39.7874 54.267 39.9653H54.2779C54.3245 39.8261 54.4231 39.5688 54.5733 39.1923L54.9914 38.1665H55.7073L53.9692 42.1532H53.3169L53.9358 40.7102L52.8323 38.1665Z" fill="#323E48"/>
    <path d="M58.783 38.0355C58.6525 38.425 58.5362 38.7499 58.4338 39.0112L58.3065 39.3425H59.2701L59.1428 39.0112C59.0416 38.7478 58.9253 38.4226 58.794 38.0355H58.783ZM59.4903 39.9124H58.0867L57.7212 40.8604H56.9943L58.4734 37.1404H59.0975L60.5771 40.8604H59.8554L59.4903 39.9124Z" fill="#323E48"/>
    <path d="M62.2152 40.9299C61.9439 40.9299 61.7191 40.8839 61.5409 40.7923C61.3627 40.7003 61.228 40.5766 61.137 40.4211C61.0889 40.3377 61.0531 40.2461 61.0298 40.1459C61.0065 40.0458 60.9951 39.9347 60.9951 39.8122V38.1664H61.6551V39.743C61.6551 39.8337 61.6616 39.9119 61.6747 39.9778C61.6878 40.0434 61.7073 40.1007 61.733 40.1488C61.7779 40.2302 61.8411 40.2908 61.9227 40.3307C62.0043 40.3706 62.1018 40.3906 62.2152 40.3906C62.3339 40.3906 62.4359 40.3682 62.5203 40.3238C62.6047 40.2794 62.6684 40.2118 62.7112 40.1207C62.7536 40.0335 62.7753 39.9123 62.7753 39.7563V38.1664H63.4357V39.8122C63.4357 40.0312 63.3973 40.2156 63.3215 40.3654C63.2786 40.4508 63.2231 40.5282 63.1554 40.5974C63.0877 40.667 63.0078 40.7264 62.916 40.7757C62.8242 40.8245 62.7197 40.8628 62.6039 40.8896C62.4877 40.9165 62.358 40.9299 62.2152 40.9299Z" fill="#323E48"/>
    <path d="M65.7817 40.8575C65.7075 40.8799 65.6186 40.8974 65.5157 40.9104C65.4126 40.9235 65.3163 40.93 65.2274 40.93C65.0006 40.93 64.8154 40.8934 64.6714 40.8201C64.5274 40.7468 64.4258 40.6418 64.3667 40.5047C64.3238 40.4066 64.3022 40.2731 64.3022 40.1041V38.7087H63.798V38.1665H64.3022V37.4131H64.9626V38.1665H65.7426V38.7087H64.9626V40.0182C64.9626 40.122 64.9786 40.1989 65.0099 40.249C65.0659 40.3341 65.1759 40.3768 65.3416 40.3768C65.4178 40.3768 65.4934 40.3707 65.5684 40.3585C65.6439 40.3467 65.7149 40.3312 65.7818 40.3129L65.7817 40.8575Z" fill="#323E48"/>
    <path d="M66.9849 37.9329C66.9849 38.0721 66.9825 38.1865 66.978 38.2761C66.9731 38.3661 66.9654 38.4474 66.9544 38.5195H66.9653C67.0045 38.4678 67.0522 38.4157 67.1089 38.3636C67.1652 38.3119 67.2277 38.2671 67.2954 38.2289C67.3631 38.191 67.4406 38.1601 67.5266 38.1356C67.6132 38.1116 67.7081 38.0998 67.8122 38.0998C67.9015 38.0998 67.9884 38.1084 68.0728 38.1259C68.1573 38.1438 68.2364 38.1711 68.3094 38.2081C68.3829 38.2452 68.4497 38.2932 68.5101 38.3526C68.5705 38.4121 68.621 38.4825 68.6619 38.5639C68.6974 38.6343 68.7234 38.7141 68.7402 38.8032C68.7569 38.8919 68.7651 39.0002 68.7651 39.1284V40.8604H68.1046V39.2176C68.1046 39.1337 68.1009 39.0657 68.0937 39.0128C68.0863 38.9603 68.0732 38.9143 68.0545 38.8753C68.0157 38.7938 67.9599 38.7364 67.8877 38.7031C67.815 38.6697 67.7323 38.653 67.6396 38.653C67.5116 38.655 67.3929 38.6856 67.2843 38.7446C67.1758 38.8041 67.0759 38.8911 66.9849 39.0059V40.8604H66.3245V36.8347H66.9849L66.9849 37.9329Z" fill="#323E48"/>
    <path d="M71.3815 39.5148C71.3815 39.3719 71.3648 39.2461 71.3314 39.1366C71.298 39.0271 71.2514 38.9355 71.1919 38.8614C71.1323 38.7873 71.0609 38.7316 70.9773 38.6945C70.8941 38.6575 70.8028 38.6392 70.7045 38.6392C70.6078 38.6392 70.5184 38.6575 70.4356 38.6945C70.3528 38.7315 70.2819 38.7873 70.2227 38.8614C70.1631 38.9355 70.1166 39.0271 70.0832 39.1366C70.0497 39.2461 70.033 39.3719 70.033 39.5148C70.033 39.6577 70.0498 39.7834 70.0832 39.8929C70.1166 40.002 70.1635 40.0936 70.2239 40.1665C70.2843 40.2402 70.3557 40.2955 70.4384 40.3334C70.5208 40.3717 70.6114 40.3904 70.7101 40.3904C70.8084 40.3904 70.8986 40.3717 70.9802 40.3334C71.0622 40.2956 71.1323 40.2402 71.1919 40.1665C71.2515 40.0936 71.298 40.002 71.3314 39.8929C71.3649 39.7834 71.3815 39.6577 71.3815 39.5148ZM72.064 39.5148C72.064 39.726 72.0326 39.919 71.9694 40.0932C71.9061 40.2674 71.8156 40.4164 71.6977 40.5406C71.5798 40.6647 71.437 40.7608 71.2702 40.8284C71.1029 40.8959 70.9161 40.9301 70.7101 40.9301C70.4984 40.9301 70.3083 40.8959 70.1402 40.8284C69.9722 40.7608 69.8294 40.6647 69.7127 40.5406C69.5957 40.4164 69.506 40.2675 69.4435 40.0932C69.3815 39.919 69.3505 39.7261 69.3505 39.5148C69.3505 39.3035 69.3819 39.111 69.4451 38.9363C69.508 38.7621 69.5985 38.6131 69.7168 38.489C69.8347 38.3648 69.9775 38.2688 70.1443 38.2012C70.3116 38.1336 70.4984 38.0994 70.7044 38.0994C70.9161 38.0994 71.1062 38.1336 71.2743 38.2012C71.4423 38.2688 71.5847 38.3648 71.7018 38.489C71.8189 38.6131 71.9085 38.7621 71.9706 38.9363C72.033 39.111 72.064 39.3035 72.064 39.5148Z" fill="#323E48"/>
    <path d="M74.2538 38.689H74.1983C73.9956 38.689 73.8181 38.7192 73.6647 38.7794C73.5113 38.8397 73.3935 38.9316 73.3091 39.0558V40.8603H72.6494V38.1664H73.1948L73.2568 38.5417H73.2678C73.3454 38.405 73.453 38.2967 73.5897 38.2181C73.7255 38.1391 73.8899 38.0996 74.0812 38.0996C74.1481 38.0996 74.2057 38.1037 74.2538 38.1106V38.689Z" fill="#323E48"/>
    <path d="M74.6604 38.1667H75.3208V40.8606H74.6604V38.1667ZM74.6437 36.8348H75.3375V37.5492H74.6437V36.8348Z" fill="#323E48"/>
    <path d="M77.7113 40.8575C77.637 40.8799 77.5485 40.8974 77.4453 40.9104C77.3421 40.9235 77.2463 40.93 77.1569 40.93C76.9305 40.93 76.7449 40.8934 76.6009 40.8201C76.4573 40.7468 76.3553 40.6418 76.2962 40.5047C76.2534 40.4066 76.2317 40.2731 76.2317 40.1041V38.7087H75.7275V38.1665H76.2317V37.4131H76.8922V38.1665H77.6725V38.7087H76.8922V40.0182C76.8922 40.122 76.9081 40.1989 76.9399 40.249C76.9954 40.3341 77.1059 40.3768 77.2711 40.3768C77.3473 40.3768 77.4229 40.3707 77.4983 40.3585C77.5734 40.3467 77.6444 40.3312 77.7113 40.3129V40.8575Z" fill="#323E48"/>
    <path d="M77.8923 38.1665H78.6001L79.0039 39.1422C79.1565 39.5131 79.2642 39.7874 79.327 39.9653H79.3385C79.3845 39.8261 79.4833 39.5688 79.6338 39.1923L80.0515 38.1665H80.7678L79.0293 42.1532H78.3774L78.9958 40.7102L77.8923 38.1665Z" fill="#323E48"/>
    <path d="M111.615 35.5837H111.612L106.862 35.8175C106.288 35.8456 105.84 36.3167 105.84 36.886V47.4625C105.84 47.7594 106.085 48 106.382 48H107.442C107.743 48 107.984 47.7594 107.984 47.4625V37.9052L110.594 37.7761V45.5947C110.594 45.8915 110.839 46.1363 111.136 46.1363H112.196C112.497 46.1363 112.738 45.8916 112.738 45.5947V36.6556C112.738 36.5542 112.728 36.4634 112.707 36.3831C112.577 35.9051 112.154 35.5801 111.671 35.5801C111.654 35.5801 111.633 35.5801 111.615 35.5837ZM101.118 43.5212C101.118 42.9491 101.586 42.4812 102.16 42.4812C102.733 42.4812 103.203 42.9491 103.203 43.5212C103.203 44.0942 102.733 44.5616 102.16 44.5616C101.586 44.5616 101.118 44.0941 101.118 43.5212ZM101.628 34.0653C101.331 34.0653 101.086 34.3064 101.086 34.6028V41.1411L101.026 41.1721C100.114 41.6118 99.5435 42.5126 99.5435 43.5212C99.5435 44.9599 100.719 46.1293 102.16 46.1293C103.601 46.1293 104.773 44.9598 104.773 43.5212C104.773 42.5126 104.206 41.6119 103.29 41.1721L103.23 41.1411V34.6028C103.23 34.3063 102.989 34.0653 102.692 34.0653H101.628ZM120.63 30.5679L115.88 33.3462C115.551 33.538 115.348 33.8906 115.348 34.2677V42.8758C115.348 43.1723 115.593 43.417 115.89 43.417H116.95C117.251 43.417 117.492 43.1723 117.492 42.8758V34.8822L120.101 33.3568V39.0083C120.101 39.3051 120.343 39.5458 120.644 39.5458H121.704C122.001 39.5458 122.246 39.3052 122.246 39.0083V31.524C122.246 31.2027 122.12 30.9063 121.906 30.7076C121.7 30.5154 121.438 30.4177 121.172 30.4177C120.986 30.4177 120.801 30.4661 120.63 30.5679ZM91.6096 28.8153C91.6096 28.2428 92.0785 27.7753 92.6522 27.7753C93.2259 27.7753 93.6948 28.2428 93.6948 28.8153C93.6948 29.3878 93.2259 29.8557 92.6522 29.8557C92.0785 29.8557 91.6096 29.3878 91.6096 28.8153ZM90.0357 28.8153C90.0357 29.8244 90.6058 30.7247 91.5223 31.1644L91.5818 31.1925V39.0082C91.5818 39.3051 91.823 39.5458 92.1205 39.5458H93.1839C93.4813 39.5458 93.7225 39.3051 93.7225 39.0082V31.1925L93.7821 31.1644C94.6986 30.7247 95.2686 29.8243 95.2686 28.8153C95.2686 27.3771 94.0934 26.2044 92.6522 26.2044C91.211 26.2044 90.0357 27.3771 90.0357 28.8153ZM92.1205 16.1756C91.823 16.1756 91.5818 16.4199 91.5818 16.7167V20.5497C91.5818 20.8042 91.6725 21.0521 91.841 21.2444L96.3325 26.4593V42.8759C96.3325 43.1723 96.5769 43.417 96.8743 43.417H97.9378C98.2349 43.417 98.4764 43.1723 98.4764 42.8759V26.0611C98.4764 25.8066 98.3854 25.5586 98.2177 25.3632L93.7225 20.1514V16.7167C93.7225 16.4199 93.4813 16.1756 93.1838 16.1756H92.1205ZM87.3665 5.19063C87.0695 5.19063 86.8279 5.43496 86.8279 5.73178V30.3411C86.8279 30.6375 87.0695 30.8818 87.3665 30.8818H88.4299C88.7274 30.8818 88.969 30.6375 88.969 30.3411V5.73178C88.969 5.43496 88.7274 5.19063 88.4299 5.19063H87.3665ZM125.397 5.19063C125.097 5.19063 124.856 5.43496 124.856 5.73178V30.3411C124.856 30.6375 125.097 30.8818 125.397 30.8818H126.458C126.755 30.8818 127 30.6375 127 30.3411V5.73178C127 5.43496 126.755 5.19063 126.458 5.19063H125.397ZM120.644 2.63915C120.343 2.63915 120.101 2.88349 120.101 3.1799V17.4847C120.101 17.7815 120.343 18.0254 120.644 18.0254H121.704C122.001 18.0254 122.246 17.7815 122.246 17.4847V3.1799C122.246 2.88344 122.001 2.63915 121.704 2.63915H120.644ZM96.8743 1.13458C96.5769 1.13458 96.3325 1.37523 96.3325 1.6721V9.88199L93.7225 11.1422V3.17994C93.7225 2.88349 93.4813 2.6392 93.1839 2.6392H92.1205C91.823 2.6392 91.5818 2.88353 91.5818 3.17994V12.8142C91.5818 13.1074 91.6794 13.3798 91.865 13.5752C92.0715 13.7951 92.351 13.9173 92.6522 13.9173C92.8134 13.9173 92.9741 13.8827 93.1174 13.8127L97.8713 11.5161C98.2386 11.341 98.4765 10.9606 98.4765 10.5555V1.6721C98.4765 1.37528 98.2349 1.13458 97.9378 1.13458H96.8743ZM115.379 3.74223C115.379 3.16971 115.844 2.70187 116.421 2.70187C116.995 2.70187 117.461 3.16971 117.461 3.74223C117.461 4.31801 116.995 4.78222 116.421 4.78222C115.844 4.78222 115.379 4.31801 115.379 3.74223ZM113.805 3.74223C113.805 4.73663 114.386 5.65848 115.288 6.09133L115.348 6.12269V19.0345C115.348 19.3521 115.488 19.6522 115.733 19.8549L120.101 23.4957V25.6599C120.101 25.9564 120.343 26.197 120.644 26.197H121.704C122.001 26.197 122.246 25.9564 122.246 25.6599V22.9932C122.246 22.6752 122.106 22.3784 121.861 22.1727L117.492 18.532V6.12269L117.552 6.09133C118.454 5.65848 119.035 4.73658 119.035 3.74223C119.035 2.30359 117.863 1.13453 116.421 1.13453C114.977 1.13453 113.805 2.30359 113.805 3.74223ZM111.136 0.373502C110.839 0.373502 110.594 0.614146 110.594 0.914659V13.6973C110.594 13.9938 110.839 14.2385 111.136 14.2385H112.196C112.497 14.2385 112.738 13.9938 112.738 13.6973V0.914659C112.738 0.614146 112.497 0.373502 112.196 0.373502H111.136ZM106.382 9.96842e-05C106.085 9.96842e-05 105.84 0.240737 105.84 0.537611V11.0477L103.23 9.46333V0.914659C103.23 0.614146 102.989 0.373502 102.692 0.373502H101.628C101.331 0.373502 101.086 0.614146 101.086 0.914659V10.0635C101.086 10.4337 101.286 10.7863 101.604 10.9781L106.354 13.8647C106.694 14.0671 107.138 14.0671 107.474 13.861C107.788 13.6692 107.984 13.3028 107.984 12.9012V0.537526C107.984 0.240699 107.743 0 107.442 0L106.382 9.96842e-05ZM113.805 27.0138C111.248 26.2875 109.953 27.2035 108.311 28.3617C108.114 28.5018 107.91 28.6422 107.699 28.7896C107.436 26.7464 107.406 24.3912 107.436 22.9017C107.437 22.8516 107.44 22.8016 107.445 22.7517L107.509 22.1133C108.169 23.1095 108.522 24.4347 108.412 26.041C109.095 24.4966 109.071 23.0904 108.594 21.8415C109.401 22.7854 110.022 23.8913 110.304 25.2736C110.595 23.5195 110.099 22.0942 109.186 20.9836C110.07 21.6175 110.825 22.4184 111.355 23.5004C111.231 21.8415 110.39 20.769 109.224 19.9969C110.232 20.3211 111.049 20.8692 111.785 21.8415C111.293 20.1208 110.223 19.4297 108.895 19.0435C109.798 18.9768 110.657 19.0769 111.503 19.6013C110.586 18.3667 109.349 18.1617 108.097 18.2999C108.623 18.033 109.215 17.8995 109.85 17.9949C109.134 17.4705 108.178 17.4181 107.357 17.8614L106.922 16.7698L106.487 17.8614C105.67 17.4181 104.71 17.4705 103.994 17.9949C104.629 17.8995 105.221 18.033 105.752 18.2999C104.495 18.1617 103.263 18.3667 102.341 19.6013C103.191 19.0769 104.046 18.9768 104.954 19.0435C103.626 19.4297 102.551 20.1208 102.059 21.8415C102.795 20.8692 103.616 20.3211 104.619 19.9969C103.459 20.769 102.613 21.8415 102.489 23.5004C103.019 22.4184 103.779 21.6176 104.658 20.9836C103.75 22.0943 103.253 23.5195 103.545 25.2736C103.822 23.8913 104.447 22.7854 105.25 21.8415C104.777 23.0904 104.749 24.4966 105.432 26.041C105.322 24.4347 105.675 23.1095 106.334 22.1133L106.399 22.7519C106.404 22.8017 106.407 22.8517 106.408 22.9018C106.438 24.3906 106.408 26.744 106.145 28.7896C105.934 28.6459 105.73 28.5018 105.533 28.3617C103.89 27.2035 102.596 26.2908 100.036 27.0138C99.9937 27.0245 99.9653 27.0667 99.9688 27.1122C99.9724 27.158 100.011 27.1929 100.057 27.2C102.582 27.4106 103.778 28.3511 105.04 29.3407C105.322 29.5618 105.606 29.7863 105.913 30.004C105.044 30.5725 104.115 31.1095 103.162 31.2814C103.116 31.292 103.078 31.3304 103.071 31.3798C103.067 31.4182 103.095 31.4779 103.131 31.4954C104.481 32.2151 105.649 31.5727 106.922 30.7094C107.808 31.313 108.645 31.8079 109.528 31.8079C109.911 31.8079 110.305 31.7131 110.713 31.4954C110.748 31.4779 110.776 31.4182 110.773 31.3798C110.762 31.3305 110.727 31.292 110.678 31.2814C109.725 31.1095 108.796 30.5725 107.931 30.004C108.234 29.7863 108.522 29.5618 108.8 29.3443C110.066 28.3512 111.258 27.4106 113.787 27.2C113.833 27.1929 113.868 27.158 113.875 27.1122C113.878 27.0667 113.85 27.0245 113.805 27.0138Z" fill="url(#paint0_linear_5118_68475)"/>
    <mask id="mask0_5118_68475" style="mask-type:luminance" maskUnits="userSpaceOnUse" x="86" y="0" width="41" height="48">
      <path d="M111.615 35.5837H111.612L106.862 35.8175C106.288 35.8456 105.84 36.3167 105.84 36.886V47.4625C105.84 47.7594 106.085 48 106.382 48H107.442C107.743 48 107.984 47.7594 107.984 47.4625V37.9052L110.594 37.7761V45.5947C110.594 45.8915 110.839 46.1363 111.136 46.1363H112.196C112.497 46.1363 112.738 45.8916 112.738 45.5947V36.6556C112.738 36.5542 112.728 36.4634 112.707 36.3831C112.577 35.9051 112.154 35.5801 111.671 35.5801C111.654 35.5801 111.633 35.5801 111.615 35.5837ZM101.118 43.5212C101.118 42.9491 101.586 42.4812 102.16 42.4812C102.733 42.4812 103.203 42.9491 103.203 43.5212C103.203 44.0942 102.733 44.5616 102.16 44.5616C101.586 44.5616 101.118 44.0941 101.118 43.5212ZM101.628 34.0653C101.331 34.0653 101.086 34.3064 101.086 34.6028V41.1411L101.026 41.1721C100.114 41.6118 99.5435 42.5126 99.5435 43.5212C99.5435 44.9599 100.719 46.1293 102.16 46.1293C103.601 46.1293 104.773 44.9598 104.773 43.5212C104.773 42.5126 104.206 41.6119 103.29 41.1721L103.23 41.1411V34.6028C103.23 34.3063 102.989 34.0653 102.692 34.0653H101.628ZM120.63 30.5679L115.88 33.3462C115.551 33.538 115.348 33.8906 115.348 34.2677V42.8758C115.348 43.1723 115.593 43.417 115.89 43.417H116.95C117.251 43.417 117.492 43.1723 117.492 42.8758V34.8822L120.101 33.3568V39.0083C120.101 39.3051 120.343 39.5458 120.644 39.5458H121.704C122.001 39.5458 122.246 39.3052 122.246 39.0083V31.524C122.246 31.2027 122.12 30.9063 121.906 30.7076C121.7 30.5154 121.438 30.4177 121.172 30.4177C120.986 30.4177 120.801 30.4661 120.63 30.5679ZM91.6096 28.8153C91.6096 28.2428 92.0785 27.7753 92.6522 27.7753C93.2259 27.7753 93.6948 28.2428 93.6948 28.8153C93.6948 29.3878 93.2259 29.8557 92.6522 29.8557C92.0785 29.8557 91.6096 29.3878 91.6096 28.8153ZM90.0357 28.8153C90.0357 29.8244 90.6058 30.7247 91.5223 31.1644L91.5818 31.1925V39.0082C91.5818 39.3051 91.823 39.5458 92.1205 39.5458H93.1839C93.4813 39.5458 93.7225 39.3051 93.7225 39.0082V31.1925L93.7821 31.1644C94.6986 30.7247 95.2686 29.8243 95.2686 28.8153C95.2686 27.3771 94.0934 26.2044 92.6522 26.2044C91.211 26.2044 90.0357 27.3771 90.0357 28.8153ZM92.1205 16.1756C91.823 16.1756 91.5818 16.4199 91.5818 16.7167V20.5497C91.5818 20.8042 91.6725 21.0521 91.841 21.2444L96.3325 26.4593V42.8759C96.3325 43.1723 96.5769 43.417 96.8743 43.417H97.9378C98.2349 43.417 98.4764 43.1723 98.4764 42.8759V26.0611C98.4764 25.8066 98.3854 25.5586 98.2177 25.3632L93.7225 20.1514V16.7167C93.7225 16.4199 93.4813 16.1756 93.1838 16.1756H92.1205ZM87.3665 5.19063C87.0695 5.19063 86.8279 5.43496 86.8279 5.73178V30.3411C86.8279 30.6375 87.0695 30.8818 87.3665 30.8818H88.4299C88.7274 30.8818 88.969 30.6375 88.969 30.3411V5.73178C88.969 5.43496 88.7274 5.19063 88.4299 5.19063H87.3665ZM125.397 5.19063C125.097 5.19063 124.856 5.43496 124.856 5.73178V30.3411C124.856 30.6375 125.097 30.8818 125.397 30.8818H126.458C126.755 30.8818 127 30.6375 127 30.3411V5.73178C127 5.43496 126.755 5.19063 126.458 5.19063H125.397ZM120.644 2.63915C120.343 2.63915 120.101 2.88349 120.101 3.1799V17.4847C120.101 17.7815 120.343 18.0254 120.644 18.0254H121.704C122.001 18.0254 122.246 17.7815 122.246 17.4847V3.1799C122.246 2.88344 122.001 2.63915 121.704 2.63915H120.644ZM96.8743 1.13458C96.5769 1.13458 96.3325 1.37523 96.3325 1.6721V9.88199L93.7225 11.1422V3.17994C93.7225 2.88349 93.4813 2.6392 93.1839 2.6392H92.1205C91.823 2.6392 91.5818 2.88353 91.5818 3.17994V12.8142C91.5818 13.1074 91.6794 13.3798 91.865 13.5752C92.0715 13.7951 92.351 13.9173 92.6522 13.9173C92.8134 13.9173 92.9741 13.8827 93.1174 13.8127L97.8713 11.5161C98.2386 11.341 98.4765 10.9606 98.4765 10.5555V1.6721C98.4765 1.37528 98.2349 1.13458 97.9378 1.13458H96.8743ZM115.379 3.74223C115.379 3.16971 115.844 2.70187 116.421 2.70187C116.995 2.70187 117.461 3.16971 117.461 3.74223C117.461 4.31801 116.995 4.78222 116.421 4.78222C115.844 4.78222 115.379 4.31801 115.379 3.74223ZM113.805 3.74223C113.805 4.73663 114.386 5.65848 115.288 6.09133L115.348 6.12269V19.0345C115.348 19.3521 115.488 19.6522 115.733 19.8549L120.101 23.4957V25.6599C120.101 25.9564 120.343 26.197 120.644 26.197H121.704C122.001 26.197 122.246 25.9564 122.246 25.6599V22.9932C122.246 22.6752 122.106 22.3784 121.861 22.1727L117.492 18.532V6.12269L117.552 6.09133C118.454 5.65848 119.035 4.73658 119.035 3.74223C119.035 2.30359 117.863 1.13453 116.421 1.13453C114.977 1.13453 113.805 2.30359 113.805 3.74223ZM111.136 0.373502C110.839 0.373502 110.594 0.614146 110.594 0.914659V13.6973C110.594 13.9938 110.839 14.2385 111.136 14.2385H112.196C112.497 14.2385 112.738 13.9938 112.738 13.6973V0.914659C112.738 0.614146 112.497 0.373502 112.196 0.373502H111.136ZM106.382 9.96842e-05C106.085 9.96842e-05 105.84 0.240737 105.84 0.537611V11.0477L103.23 9.46333V0.914659C103.23 0.614146 102.989 0.373502 102.692 0.373502H101.628C101.331 0.373502 101.086 0.614146 101.086 0.914659V10.0635C101.086 10.4337 101.286 10.7863 101.604 10.9781L106.354 13.8647C106.694 14.0671 107.138 14.0671 107.474 13.861C107.788 13.6692 107.984 13.3028 107.984 12.9012V0.537526C107.984 0.240699 107.743 0 107.442 0L106.382 9.96842e-05ZM113.805 27.0138C111.248 26.2875 109.953 27.2035 108.311 28.3617C108.114 28.5018 107.91 28.6422 107.699 28.7896C107.436 26.7464 107.406 24.3912 107.436 22.9017C107.437 22.8516 107.44 22.8016 107.445 22.7517L107.509 22.1133C108.169 23.1095 108.522 24.4347 108.412 26.041C109.095 24.4966 109.071 23.0904 108.594 21.8415C109.401 22.7854 110.022 23.8913 110.304 25.2736C110.595 23.5195 110.099 22.0942 109.186 20.9836C110.07 21.6175 110.825 22.4184 111.355 23.5004C111.231 21.8415 110.39 20.769 109.224 19.9969C110.232 20.3211 111.049 20.8692 111.785 21.8415C111.293 20.1208 110.223 19.4297 108.895 19.0435C109.798 18.9768 110.657 19.0769 111.503 19.6013C110.586 18.3667 109.349 18.1617 108.097 18.2999C108.623 18.033 109.215 17.8995 109.85 17.9949C109.134 17.4705 108.178 17.4181 107.357 17.8614L106.922 16.7698L106.487 17.8614C105.67 17.4181 104.71 17.4705 103.994 17.9949C104.629 17.8995 105.221 18.033 105.752 18.2999C104.495 18.1617 103.263 18.3667 102.341 19.6013C103.191 19.0769 104.046 18.9768 104.954 19.0435C103.626 19.4297 102.551 20.1208 102.059 21.8415C102.795 20.8692 103.616 20.3211 104.619 19.9969C103.459 20.769 102.613 21.8415 102.489 23.5004C103.019 22.4184 103.779 21.6176 104.658 20.9836C103.75 22.0943 103.253 23.5195 103.545 25.2736C103.822 23.8913 104.447 22.7854 105.25 21.8415C104.777 23.0904 104.749 24.4966 105.432 26.041C105.322 24.4347 105.675 23.1095 106.334 22.1133L106.399 22.7519C106.404 22.8017 106.407 22.8517 106.408 22.9018C106.438 24.3906 106.408 26.744 106.145 28.7896C105.934 28.6459 105.73 28.5018 105.533 28.3617C103.89 27.2035 102.596 26.2908 100.036 27.0138C99.9937 27.0245 99.9653 27.0667 99.9688 27.1122C99.9724 27.158 100.011 27.1929 100.057 27.2C102.582 27.4106 103.778 28.3511 105.04 29.3407C105.322 29.5618 105.606 29.7863 105.913 30.004C105.044 30.5725 104.115 31.1095 103.162 31.2814C103.116 31.292 103.078 31.3304 103.071 31.3798C103.067 31.4182 103.095 31.4779 103.131 31.4954C104.481 32.2151 105.649 31.5727 106.922 30.7094C107.808 31.313 108.645 31.8079 109.528 31.8079C109.911 31.8079 110.305 31.7131 110.713 31.4954C110.748 31.4779 110.776 31.4182 110.773 31.3798C110.762 31.3305 110.727 31.292 110.678 31.2814C109.725 31.1095 108.796 30.5725 107.931 30.004C108.234 29.7863 108.522 29.5618 108.8 29.3443C110.066 28.3512 111.258 27.4106 113.787 27.2C113.833 27.1929 113.868 27.158 113.875 27.1122C113.878 27.0667 113.85 27.0245 113.805 27.0138Z" fill="white"/>
    </mask>
    <g mask="url(#mask0_5118_68475)">
      <path d="M404.287 -207.199H-379.192V232.573H404.287V-207.199Z" fill="url(#paint1_linear_5118_68475)"/>
    </g>
  </g>
  <defs>
    <linearGradient id="paint0_linear_5118_68475" x1="127.137" y1="0.496641" x2="83.6206" y2="42.7896" gradientUnits="userSpaceOnUse">
      <stop offset="0.0379" stop-color="#283B81"/>
      <stop offset="0.8018" stop-color="#0EAFA2"/>
    </linearGradient>
    <linearGradient id="paint1_linear_5118_68475" x1="77.7019" y1="-50.3681" x2="34.1857" y2="-8.07516" gradientUnits="userSpaceOnUse">
      <stop offset="0.0726" stop-color="#283B81"/>
      <stop offset="0.8501" stop-color="#0EAFA2"/>
    </linearGradient>
    <clipPath id="clip0_5118_68475">
      <rect width="127" height="48" fill="white"/>
    </clipPath>
  </defs>
</svg>
