<svg width="184" height="45" viewBox="0 0 184 45" fill="none" xmlns="http://www.w3.org/2000/svg">
<path d="M174.154 37.1475H171.849V39.4548H174.154V37.1475Z" fill="black"/>
<path d="M174.154 41.7583H171.849V44.0657H174.154V41.7583Z" fill="black"/>
<path d="M153.418 32.5366V41.7622H151.112V37.1514H139.591V44.0696H169.543V37.1514H158.026V41.7622H155.72V34.844H174.154V32.5366H153.418ZM148.806 41.7583H141.893V39.4549H148.806V41.7583ZM160.327 39.4549H167.241V41.7583H160.327V39.4549Z" fill="black"/>
<path d="M178.762 9.47852H176.456V11.7859H178.762V9.47852Z" fill="black"/>
<path d="M183.374 9.47852H181.068V11.7859H183.374V9.47852Z" fill="black"/>
<path d="M176.46 14.0855V25.6185H181.068V27.9219H174.154V9.47461H171.849V30.2293H181.068V32.5328H176.46V44.0618H183.37V14.0815H176.46V14.0855ZM181.068 41.7584H178.762V34.8441H181.068V41.7584ZM181.068 23.3111H178.762V16.3968H181.068V23.3111Z" fill="black"/>
<path d="M151.112 4.86377H148.807V7.17116H151.112V4.86377Z" fill="black"/>
<path d="M151.112 0.25293H148.807V2.56032H151.112V0.25293Z" fill="black"/>
<path d="M153.418 0.25293V7.17116H164.936V2.56032H167.241V9.47855H148.807V11.7859H169.543V2.56032H171.849V7.17116H183.37V0.25293H153.418ZM162.634 4.86377H155.72V2.56032H162.634V4.86377ZM181.068 4.86377H174.155V2.56032H181.068V4.86377Z" fill="black"/>
<path d="M146.504 32.5366H144.198V34.844H146.504V32.5366Z" fill="black"/>
<path d="M141.893 32.5366H139.587V34.844H141.893V32.5366Z" fill="black"/>
<path d="M141.893 14.0855V11.782H146.5V0.25293H139.591V30.2332H146.5V18.7042H141.893V16.4007H148.806V34.848H151.108V14.0933H141.893V14.0855ZM141.893 2.56032H144.199V9.47461H141.893V2.56032ZM144.199 27.9219H141.893V21.0076H144.199V27.9219Z" fill="black"/>
<path d="M164.423 19.4366C164.652 19.917 164.781 20.4485 164.84 20.9486C164.286 20.228 163.605 19.5902 162.881 19.1137C162.944 19.1925 163.003 19.2791 163.058 19.3657C163.652 20.3304 163.55 21.6101 163.207 22.6457C162.991 21.6731 162.625 20.7242 162.141 19.9091C162.031 19.724 161.913 19.539 161.787 19.3618L161.96 23.7206C161.96 23.8742 161.779 24.1498 161.476 24.1498C161.173 24.1498 160.992 23.8742 160.992 23.7206L161.161 19.3657C161.032 19.5429 160.917 19.724 160.807 19.9091C160.323 20.7242 159.957 21.6692 159.741 22.6457C159.399 21.614 159.296 20.3343 159.89 19.3657C159.945 19.2752 160.005 19.1925 160.067 19.1137C159.347 19.5902 158.667 20.228 158.108 20.9486C158.222 19.9445 158.627 18.8145 159.524 18.2475C159.824 18.0585 160.146 17.9364 160.477 17.8655C160.477 17.8458 160.477 17.8537 160.477 17.8301C160.284 17.8419 160.095 17.8616 159.902 17.8891C159.072 18.0151 158.265 18.2553 157.502 18.6136C158.061 17.7592 158.95 17.1174 159.784 17.0071C159.918 16.9874 160.06 16.9835 160.201 16.9874C159.698 16.7315 159.159 16.5189 158.592 16.3693C159.355 16.1645 160.178 16.2078 160.894 16.5268C161.102 15.6448 161.476 15.125 161.476 15.125C161.476 15.125 161.846 15.6448 162.059 16.5268C162.771 16.2078 163.597 16.1684 164.36 16.3693C163.798 16.5189 163.255 16.7315 162.751 16.9874C162.893 16.9796 163.034 16.9874 163.164 17.0071C163.581 17.0623 164.014 17.2513 164.408 17.5308C164.805 17.8104 165.167 18.1884 165.446 18.6136C164.679 18.2553 163.876 18.0151 163.046 17.8891C162.853 17.8576 162.664 17.8419 162.472 17.8301C162.472 17.8537 162.472 17.8458 162.472 17.8655C162.802 17.9364 163.125 18.0585 163.424 18.2475C163.872 18.531 164.195 18.9562 164.423 19.4366Z" fill="#7D7150"/>
<path d="M169.543 22.4488C168.654 22.3504 167.725 22.5315 166.903 23.0355L162.224 25.8981L164.101 27.0439L164.361 26.6186C164.361 26.6186 164.345 26.6108 164.337 26.6108C164.129 26.4808 164.062 26.2052 164.191 25.9965C164.321 25.7878 164.593 25.7209 164.801 25.8508C165.01 25.9808 165.077 26.2524 164.947 26.4611L164.455 27.2683L164.703 27.4219L165.262 27.7645C165.451 27.8826 165.675 27.8905 165.864 27.8078C165.872 27.9062 165.856 28.0086 165.821 28.1031C165.809 28.1385 165.789 28.17 165.769 28.2055C165.58 28.5165 165.171 28.615 164.86 28.422L164.054 27.9298L163.794 28.359C163.794 28.359 163.806 28.363 163.81 28.3669C164.018 28.4968 164.085 28.7685 163.959 28.9772C163.829 29.1859 163.554 29.2568 163.346 29.1268C163.137 28.9969 163.07 28.7213 163.2 28.5126L163.696 27.7054L161.48 26.3509L159.265 27.7054L159.761 28.5126C159.887 28.7213 159.82 28.9969 159.611 29.1268C159.403 29.2568 159.127 29.1859 159.001 28.9772C158.872 28.7685 158.938 28.4968 159.147 28.3669C159.155 28.3669 159.159 28.359 159.167 28.3551L158.907 27.9298L158.1 28.422C157.786 28.615 157.38 28.5165 157.187 28.2055C157.168 28.174 157.152 28.1385 157.136 28.1031C157.101 28.0086 157.085 27.9062 157.093 27.8078C157.286 27.8905 157.51 27.8786 157.699 27.7645L158.258 27.4219L158.51 27.2683L158.014 26.4611C157.884 26.2524 157.955 25.9768 158.163 25.8508C158.372 25.7209 158.643 25.7878 158.773 25.9965C158.903 26.2052 158.836 26.4808 158.628 26.6108C158.62 26.6108 158.616 26.6186 158.608 26.6186L158.868 27.0439L160.745 25.8981L156.066 23.0355C155.244 22.5315 154.315 22.3504 153.426 22.4488C154.311 21.8464 155.496 21.7794 156.471 22.374L161.488 25.4413L166.505 22.374C167.477 21.7794 168.665 21.8464 169.551 22.4488" fill="#7D7150"/>
<path d="M29.0767 34.2104C29.0216 34.2104 28.9783 34.1789 28.9547 34.1159L27.6837 31.5053H26.279C26.2436 31.5053 26.2239 31.525 26.2239 31.5605V34.1159C26.2239 34.1789 26.1924 34.2104 26.1295 34.2104H25.4724C25.4094 34.2104 25.3779 34.1789 25.3779 34.1159V27.9143C25.3779 27.8513 25.4094 27.8198 25.4724 27.8198H27.786C28.0851 27.8198 28.3605 27.8631 28.6045 27.9498C28.8485 28.0364 29.0609 28.1624 29.2341 28.3199C29.4111 28.4813 29.5449 28.6743 29.6433 28.9026C29.7417 29.131 29.7889 29.383 29.7889 29.6586C29.7889 30.0918 29.6748 30.458 29.4505 30.7572C29.2262 31.0565 28.9193 31.2691 28.5297 31.3951L29.8912 34.0923C29.9109 34.1238 29.9148 34.1514 29.8991 34.1711C29.8873 34.1947 29.8636 34.2026 29.8322 34.2026H29.0727L29.0767 34.2104ZM27.7664 30.7257C28.1402 30.7257 28.4314 30.6352 28.636 30.4501C28.8406 30.265 28.9429 30.0052 28.9429 29.6665C28.9429 29.3279 28.8406 29.068 28.636 28.883C28.4314 28.6979 28.1402 28.6073 27.7664 28.6073H26.279C26.2436 28.6073 26.2239 28.627 26.2239 28.6625V30.6745C26.2239 30.7139 26.2436 30.7297 26.279 30.7297H27.7664V30.7257Z" fill="#7D7150"/>
<path d="M33.4252 34.3126C32.8861 34.3126 32.4296 34.1866 32.0598 33.9385C31.686 33.6865 31.4184 33.3164 31.2571 32.8203C31.2256 32.7258 31.198 32.6273 31.1784 32.5289C31.1548 32.4305 31.139 32.3123 31.1272 32.1785C31.1154 32.0446 31.1036 31.8832 31.0997 31.6942C31.0918 31.5052 31.0918 31.2807 31.0918 31.0169C31.0918 30.7531 31.0918 30.5286 31.0997 30.3396C31.1075 30.1506 31.1154 29.9892 31.1272 29.8553C31.139 29.7215 31.1587 29.6033 31.1784 29.5049C31.202 29.4065 31.2256 29.308 31.2571 29.2135C31.4184 28.7174 31.686 28.3473 32.0598 28.0953C32.4336 27.8433 32.8861 27.7212 33.4252 27.7212C33.9642 27.7212 34.4285 27.8472 34.8024 28.0953C35.1762 28.3473 35.4437 28.7174 35.6051 29.2135C35.6365 29.308 35.6641 29.4065 35.6838 29.5049C35.7074 29.6033 35.7231 29.7215 35.7349 29.8553C35.7467 29.9892 35.7585 30.1506 35.7625 30.3396C35.7664 30.5286 35.7703 30.7531 35.7703 31.0169C35.7703 31.2807 35.7703 31.5052 35.7625 31.6942C35.7546 31.8832 35.7467 32.0446 35.7349 32.1785C35.7231 32.3123 35.7034 32.4305 35.6838 32.5289C35.6601 32.6273 35.6365 32.7258 35.6051 32.8203C35.4437 33.3164 35.1762 33.6865 34.8024 33.9385C34.4285 34.1905 33.9721 34.3126 33.4252 34.3126ZM33.4252 33.533C33.7832 33.533 34.0744 33.4503 34.2987 33.2889C34.523 33.1274 34.6882 32.8912 34.7866 32.584C34.8063 32.5289 34.822 32.458 34.8378 32.3714C34.8535 32.2848 34.8692 32.1824 34.885 32.0564C34.9007 31.9304 34.9125 31.7847 34.9165 31.6154C34.9204 31.4461 34.9243 31.2453 34.9243 31.013C34.9243 30.7806 34.9243 30.5798 34.9165 30.4105C34.9086 30.2412 34.9007 30.0955 34.885 29.9695C34.8692 29.8435 34.8535 29.7411 34.8378 29.6545C34.822 29.5718 34.8063 29.501 34.7866 29.4419C34.6882 29.1348 34.523 28.8985 34.2987 28.7371C34.0744 28.5756 33.7832 28.4929 33.4252 28.4929C33.0671 28.4929 32.7798 28.5756 32.5556 28.7371C32.3313 28.8985 32.1699 29.1348 32.0716 29.4419C32.0519 29.497 32.0362 29.5679 32.0204 29.6545C32.0047 29.7372 31.9889 29.8435 31.9732 29.9695C31.9575 30.0955 31.9457 30.2412 31.9417 30.4105C31.9378 30.5798 31.9339 30.7806 31.9339 31.013C31.9339 31.2453 31.9339 31.4461 31.9417 31.6154C31.9496 31.7847 31.9575 31.9304 31.9732 32.0564C31.9889 32.1824 32.0047 32.2848 32.0204 32.3714C32.0362 32.458 32.0519 32.525 32.0716 32.584C32.1699 32.8912 32.3313 33.1274 32.5556 33.2889C32.7759 33.4503 33.0671 33.533 33.4252 33.533Z" fill="#7D7150"/>
<path d="M38.6267 34.2104C38.5638 34.2104 38.5323 34.1789 38.5323 34.1159V31.5959L36.6436 27.9222C36.6199 27.8553 36.6436 27.8198 36.7183 27.8198H37.3833C37.4384 27.8198 37.4856 27.8513 37.525 27.9143L38.9533 30.6509H38.973L40.3895 27.9143C40.4131 27.8513 40.4564 27.8198 40.5194 27.8198H41.1686C41.2434 27.8198 41.267 27.8553 41.2434 27.9222L39.3547 31.5959V34.1159C39.3547 34.1789 39.3232 34.2104 39.2602 34.2104H38.6228H38.6267Z" fill="#7D7150"/>
<path d="M43.447 27.9143C43.4667 27.8513 43.5021 27.8198 43.5611 27.8198H44.1711C44.234 27.8198 44.2734 27.8513 44.293 27.9143L46.4808 34.1159C46.5005 34.1789 46.4808 34.2104 46.4139 34.2104H45.7568C45.6938 34.2104 45.6545 34.1789 45.6348 34.1159L45.1469 32.726H42.5656L42.0777 34.1159C42.0541 34.1789 42.0108 34.2104 41.9557 34.2104H41.2986C41.2357 34.2104 41.216 34.1789 41.2317 34.1159L43.447 27.9143ZM44.8715 31.9463L43.8681 29.0523H43.8484L42.8332 31.9463H44.8715Z" fill="#7D7150"/>
<path d="M47.6338 27.9143C47.6338 27.8513 47.6653 27.8198 47.7282 27.8198H48.3853C48.4483 27.8198 48.4798 27.8513 48.4798 27.9143V33.3757C48.4798 33.415 48.4995 33.4308 48.5349 33.4308H51.5765C51.6395 33.4308 51.6709 33.4623 51.6709 33.5253V34.1159C51.6709 34.1789 51.6395 34.2104 51.5765 34.2104H47.7282C47.6653 34.2104 47.6338 34.1789 47.6338 34.1159V27.9143Z" fill="#7D7150"/>
<path d="M55.1653 32.8124C55.1338 32.7179 55.1062 32.6234 55.0866 32.525C55.063 32.4266 55.0472 32.3124 55.0354 32.1785C55.0236 32.0446 55.0118 31.8832 55.0079 31.6942C55 31.5052 55 31.2807 55 31.0169C55 30.7531 55 30.5287 55.0079 30.3397C55.0157 30.1507 55.0236 29.9892 55.0354 29.8554C55.0472 29.7215 55.0669 29.6034 55.0866 29.5089C55.1102 29.4104 55.1338 29.3159 55.1653 29.2214C55.3266 28.7135 55.5902 28.3355 55.9522 28.0874C56.3142 27.8393 56.7589 27.7173 57.2861 27.7173C57.7623 27.7173 58.1754 27.8275 58.5296 28.052C58.8837 28.2764 59.1513 28.5914 59.3323 29.0049C59.3519 29.06 59.3401 29.1033 59.2929 29.1269L58.7302 29.3986C58.6673 29.4301 58.624 29.4144 58.6004 29.3514C58.4745 29.0994 58.3092 28.8946 58.1046 28.7371C57.896 28.5757 57.6245 28.4969 57.2861 28.4969C56.9478 28.4969 56.6526 28.5796 56.4402 28.741C56.2277 28.9025 56.0663 29.1348 55.9601 29.438C55.9404 29.5089 55.9247 29.5797 55.909 29.6585C55.8932 29.7372 55.8814 29.8357 55.8696 29.9499C55.8617 30.064 55.8539 30.2097 55.846 30.383C55.8381 30.5562 55.8381 30.7649 55.8381 31.0169C55.8381 31.2689 55.8381 31.4776 55.846 31.6509C55.8539 31.8241 55.8617 31.9659 55.8696 32.084C55.8775 32.1982 55.8932 32.3006 55.909 32.3793C55.9247 32.462 55.9404 32.5329 55.9601 32.5959C56.0663 32.8951 56.2277 33.1274 56.4402 33.2928C56.6526 33.4543 56.9359 33.5369 57.2861 33.5369C57.6363 33.5369 57.896 33.4582 58.1046 33.2968C58.3131 33.1353 58.4784 32.9306 58.6004 32.6825C58.624 32.6195 58.6712 32.6038 58.7302 32.6353L59.2929 32.9069C59.3362 32.9306 59.348 32.9739 59.3323 33.029C59.1513 33.4424 58.8837 33.7614 58.5296 33.9819C58.1754 34.2063 57.7623 34.3166 57.2861 34.3166C56.7589 34.3166 56.3142 34.1945 55.9522 33.9464C55.5902 33.6984 55.3266 33.3204 55.1653 32.8124Z" fill="#7D7150"/>
<path d="M62.7904 34.3126C62.2513 34.3126 61.7949 34.1866 61.425 33.9385C61.0512 33.6865 60.7836 33.3164 60.6223 32.8203C60.5908 32.7258 60.5633 32.6273 60.5436 32.5289C60.52 32.4305 60.5042 32.3123 60.4924 32.1785C60.4806 32.0446 60.4688 31.8832 60.4649 31.6942C60.457 31.5052 60.457 31.2807 60.457 31.0169C60.457 30.7531 60.457 30.5286 60.4649 30.3396C60.4728 30.1506 60.4806 29.9892 60.4924 29.8553C60.5042 29.7215 60.5239 29.6033 60.5436 29.5049C60.5672 29.4065 60.5908 29.308 60.6223 29.2135C60.7836 28.7174 61.0512 28.3473 61.425 28.0953C61.7988 27.8433 62.2513 27.7212 62.7904 27.7212C63.3295 27.7212 63.7938 27.8472 64.1676 28.0953C64.5414 28.3473 64.809 28.7174 64.9703 29.2135C65.0018 29.308 65.0293 29.4065 65.049 29.5049C65.0726 29.6033 65.0883 29.7215 65.1001 29.8553C65.1119 29.9892 65.1237 30.1506 65.1277 30.3396C65.1316 30.5286 65.1356 30.7531 65.1356 31.0169C65.1356 31.2807 65.1356 31.5052 65.1277 31.6942C65.1198 31.8832 65.1119 32.0446 65.1001 32.1785C65.0883 32.3123 65.0687 32.4305 65.049 32.5289C65.0254 32.6273 65.0018 32.7258 64.9703 32.8203C64.809 33.3164 64.5414 33.6865 64.1676 33.9385C63.7938 34.1905 63.3373 34.3126 62.7904 34.3126ZM62.7904 33.533C63.1485 33.533 63.4396 33.4503 63.6639 33.2889C63.8882 33.1274 64.0535 32.8912 64.1518 32.584C64.1715 32.5289 64.1873 32.458 64.203 32.3714C64.2187 32.2848 64.2345 32.1824 64.2502 32.0564C64.266 31.9304 64.2778 31.7847 64.2817 31.6154C64.2856 31.4461 64.2896 31.2453 64.2896 31.013C64.2896 30.7806 64.2896 30.5798 64.2817 30.4105C64.2738 30.2412 64.266 30.0955 64.2502 29.9695C64.2345 29.8435 64.2187 29.7411 64.203 29.6545C64.1873 29.5718 64.1715 29.501 64.1518 29.4419C64.0535 29.1348 63.8882 28.8985 63.6639 28.7371C63.4396 28.5756 63.1485 28.4929 62.7904 28.4929C62.4323 28.4929 62.1451 28.5756 61.9208 28.7371C61.6965 28.8985 61.5352 29.1348 61.4368 29.4419C61.4171 29.497 61.4014 29.5679 61.3857 29.6545C61.3699 29.7372 61.3542 29.8435 61.3384 29.9695C61.3227 30.0955 61.3109 30.2412 61.307 30.4105C61.303 30.5798 61.2991 30.7806 61.2991 31.013C61.2991 31.2453 61.2991 31.4461 61.307 31.6154C61.3148 31.7847 61.3227 31.9304 61.3384 32.0564C61.3542 32.1824 61.3699 32.2848 61.3857 32.3714C61.4014 32.458 61.4171 32.525 61.4368 32.584C61.5352 32.8912 61.6965 33.1274 61.9208 33.2889C62.1411 33.4503 62.4323 33.533 62.7904 33.533Z" fill="#7D7150"/>
<path d="M66.6309 27.9143C66.6309 27.8513 66.6623 27.8198 66.7253 27.8198H67.3352C67.41 27.8198 67.4611 27.8513 67.4847 27.9143L69.3931 32.218H69.4207L71.2936 27.9143C71.3172 27.8513 71.3684 27.8198 71.4432 27.8198H72.0531C72.116 27.8198 72.1475 27.8513 72.1475 27.9143V34.1159C72.1475 34.1789 72.116 34.2104 72.0531 34.2104H71.455C71.392 34.2104 71.3605 34.1789 71.3605 34.1159V29.6705H71.333L69.7512 33.1867C69.7197 33.2615 69.6646 33.3009 69.582 33.3009H69.2082C69.1216 33.3009 69.0626 33.2615 69.0311 33.1867L67.4493 29.6705H67.4218V34.1159C67.4218 34.1789 67.3903 34.2104 67.3273 34.2104H66.7292C66.6663 34.2104 66.6348 34.1789 66.6348 34.1159V27.9143H66.6309Z" fill="#7D7150"/>
<path d="M73.8633 27.9143C73.8633 27.8513 73.8948 27.8198 73.9577 27.8198H74.5676C74.6424 27.8198 74.6935 27.8513 74.7171 27.9143L76.6255 32.218H76.6531L78.5261 27.9143C78.5497 27.8513 78.6008 27.8198 78.6756 27.8198H79.2855C79.3484 27.8198 79.3799 27.8513 79.3799 27.9143V34.1159C79.3799 34.1789 79.3484 34.2104 79.2855 34.2104H78.6874C78.6244 34.2104 78.593 34.1789 78.593 34.1159V29.6705H78.5654L76.9836 33.1867C76.9521 33.2615 76.897 33.3009 76.8144 33.3009H76.4406C76.354 33.3009 76.295 33.2615 76.2635 33.1867L74.6817 29.6705H74.6542V34.1159C74.6542 34.1789 74.6227 34.2104 74.5597 34.2104H73.9617C73.8987 34.2104 73.8672 34.1789 73.8672 34.1159V27.9143H73.8633Z" fill="#7D7150"/>
<path d="M81.0957 27.9143C81.0957 27.8513 81.1272 27.8198 81.1901 27.8198H81.8473C81.9102 27.8198 81.9417 27.8513 81.9417 27.9143V34.1159C81.9417 34.1789 81.9102 34.2104 81.8473 34.2104H81.1901C81.1272 34.2104 81.0957 34.1789 81.0957 34.1159V27.9143Z" fill="#7D7150"/>
<path d="M85.5856 34.3125C85.3613 34.3125 85.137 34.2889 84.9166 34.2456C84.6963 34.2023 84.4917 34.1432 84.2989 34.0724C84.1061 34.0015 83.9251 33.9149 83.7637 33.8204C83.6024 33.7219 83.4607 33.6235 83.3427 33.5132C83.2994 33.4699 83.2955 33.4227 83.3348 33.3715L83.748 32.8832C83.7873 32.8399 83.8306 32.836 83.8778 32.8753C84.0864 33.0368 84.3421 33.1904 84.6491 33.3282C84.956 33.466 85.2944 33.5369 85.6643 33.5369C86.1089 33.5369 86.4552 33.4384 86.7031 33.2376C86.9509 33.0368 87.0729 32.773 87.0729 32.4501C87.0729 32.3123 87.0493 32.1863 87.006 32.076C86.9628 31.9618 86.888 31.8634 86.7857 31.7768C86.6834 31.6902 86.5457 31.6153 86.3765 31.5523C86.2073 31.4893 85.9948 31.4421 85.739 31.4106L85.4203 31.3633C84.169 31.194 83.5434 30.6073 83.5434 29.5954C83.5434 29.3119 83.5906 29.0559 83.689 28.8236C83.7873 28.5913 83.9251 28.3944 84.1061 28.233C84.2871 28.0716 84.5074 27.9456 84.7632 27.8589C85.0189 27.7723 85.3062 27.729 85.6288 27.729C86.0027 27.729 86.3647 27.7841 86.7031 27.8944C87.0454 28.0046 87.3326 28.1464 87.5726 28.3236C87.6238 28.3629 87.6277 28.4063 87.5923 28.4535L87.2736 28.9693C87.2343 29.0126 87.191 29.0205 87.1438 28.989C86.8801 28.8276 86.6283 28.7055 86.3843 28.6268C86.1404 28.548 85.8807 28.5086 85.6052 28.5086C85.2117 28.5086 84.9088 28.6031 84.7042 28.7961C84.4956 28.989 84.3933 29.2371 84.3933 29.5442C84.3933 29.812 84.4917 30.0364 84.6923 30.2057C84.893 30.379 85.2393 30.4971 85.7351 30.568L86.0459 30.6152C86.6716 30.7018 87.1398 30.8908 87.4546 31.1783C87.7694 31.4657 87.9229 31.8752 87.9229 32.3989C87.9229 32.6824 87.8756 32.9383 87.7773 33.1746C87.6789 33.4109 87.5333 33.6117 87.3366 33.781C87.1398 33.9503 86.8959 34.0842 86.6047 34.1787C86.3135 34.2771 85.9751 34.3244 85.5934 34.3244L85.5856 34.3125Z" fill="#7D7150"/>
<path d="M91.275 34.3125C91.0507 34.3125 90.8264 34.2889 90.6061 34.2456C90.3857 34.2023 90.1811 34.1432 89.9883 34.0724C89.7955 34.0015 89.6145 33.9149 89.4532 33.8204C89.2919 33.7219 89.1502 33.6235 89.0322 33.5132C88.9889 33.4699 88.9849 33.4227 89.0243 33.3715L89.4374 32.8832C89.4768 32.8399 89.5201 32.836 89.5673 32.8753C89.7758 33.0368 90.0316 33.1904 90.3385 33.3282C90.6454 33.466 90.9838 33.5369 91.3537 33.5369C91.7983 33.5369 92.1446 33.4384 92.3925 33.2376C92.6404 33.0368 92.7624 32.773 92.7624 32.4501C92.7624 32.3123 92.7388 32.1863 92.6955 32.076C92.6522 31.9618 92.5774 31.8634 92.4751 31.7768C92.3728 31.6902 92.2351 31.6153 92.0659 31.5523C91.8967 31.4893 91.6842 31.4421 91.4285 31.4106L91.1097 31.3633C89.8585 31.194 89.2328 30.6073 89.2328 29.5954C89.2328 29.3119 89.28 29.0559 89.3784 28.8236C89.4768 28.5913 89.6145 28.3944 89.7955 28.233C89.9765 28.0716 90.1969 27.9456 90.4526 27.8589C90.7084 27.7723 90.9956 27.729 91.3183 27.729C91.6921 27.729 92.0541 27.7841 92.3925 27.8944C92.7348 28.0046 93.0221 28.1464 93.2621 28.3236C93.3133 28.3629 93.3172 28.4063 93.2818 28.4535L92.9631 28.9693C92.9237 29.0126 92.8804 29.0205 92.8332 28.989C92.5696 28.8276 92.3177 28.7055 92.0738 28.6268C91.8298 28.548 91.5701 28.5086 91.2947 28.5086C90.9012 28.5086 90.5982 28.6031 90.3936 28.7961C90.1851 28.989 90.0828 29.2371 90.0828 29.5442C90.0828 29.812 90.1811 30.0364 90.3818 30.2057C90.5825 30.379 90.9287 30.4971 91.4245 30.568L91.7354 30.6152C92.361 30.7018 92.8293 30.8908 93.1441 31.1783C93.4588 31.4657 93.6123 31.8752 93.6123 32.3989C93.6123 32.6824 93.5651 32.9383 93.4667 33.1746C93.3683 33.4109 93.2228 33.6117 93.026 33.781C92.8293 33.9503 92.5853 34.0842 92.2941 34.1787C92.003 34.2771 91.6646 34.3244 91.2829 34.3244L91.275 34.3125Z" fill="#7D7150"/>
<path d="M95.0332 27.9143C95.0332 27.8513 95.0647 27.8198 95.1276 27.8198H95.7847C95.8477 27.8198 95.8792 27.8513 95.8792 27.9143V34.1159C95.8792 34.1789 95.8477 34.2104 95.7847 34.2104H95.1276C95.0647 34.2104 95.0332 34.1789 95.0332 34.1159V27.9143Z" fill="#7D7150"/>
<path d="M99.6996 34.3126C99.1605 34.3126 98.7041 34.1866 98.3342 33.9385C97.9604 33.6865 97.6928 33.3164 97.5315 32.8203C97.5 32.7258 97.4725 32.6273 97.4528 32.5289C97.4292 32.4305 97.4134 32.3123 97.4016 32.1785C97.3898 32.0446 97.378 31.8832 97.3741 31.6942C97.3662 31.5052 97.3662 31.2807 97.3662 31.0169C97.3662 30.7531 97.3662 30.5286 97.3741 30.3396C97.3819 30.1506 97.3898 29.9892 97.4016 29.8553C97.4134 29.7215 97.4331 29.6033 97.4528 29.5049C97.4764 29.4065 97.5 29.308 97.5315 29.2135C97.6928 28.7174 97.9604 28.3473 98.3342 28.0953C98.708 27.8433 99.1605 27.7212 99.6996 27.7212C100.239 27.7212 100.703 27.8472 101.077 28.0953C101.451 28.3473 101.718 28.7174 101.879 29.2135C101.911 29.308 101.938 29.4065 101.958 29.5049C101.982 29.6033 101.998 29.7215 102.009 29.8553C102.021 29.9892 102.033 30.1506 102.037 30.3396C102.041 30.5286 102.045 30.7531 102.045 31.0169C102.045 31.2807 102.045 31.5052 102.037 31.6942C102.029 31.8832 102.021 32.0446 102.009 32.1785C101.998 32.3123 101.978 32.4305 101.958 32.5289C101.935 32.6273 101.911 32.7258 101.879 32.8203C101.718 33.3164 101.451 33.6865 101.077 33.9385C100.703 34.1905 100.247 34.3126 99.6996 34.3126ZM99.6996 33.533C100.058 33.533 100.349 33.4503 100.573 33.2889C100.797 33.1274 100.963 32.8912 101.061 32.584C101.081 32.5289 101.096 32.458 101.112 32.3714C101.128 32.2848 101.144 32.1824 101.159 32.0564C101.175 31.9304 101.187 31.7847 101.191 31.6154C101.195 31.4461 101.199 31.2453 101.199 31.013C101.199 30.7806 101.199 30.5798 101.191 30.4105C101.183 30.2412 101.175 30.0955 101.159 29.9695C101.144 29.8435 101.128 29.7411 101.112 29.6545C101.096 29.5718 101.081 29.501 101.061 29.4419C100.963 29.1348 100.797 28.8985 100.573 28.7371C100.349 28.5756 100.058 28.4929 99.6996 28.4929C99.3415 28.4929 99.0543 28.5756 98.83 28.7371C98.6057 28.8985 98.4444 29.1348 98.346 29.4419C98.3263 29.497 98.3106 29.5679 98.2948 29.6545C98.2791 29.7372 98.2634 29.8435 98.2476 29.9695C98.2319 30.0955 98.2201 30.2412 98.2161 30.4105C98.2122 30.5798 98.2083 30.7806 98.2083 31.013C98.2083 31.2453 98.2083 31.4461 98.2161 31.6154C98.224 31.7847 98.2319 31.9304 98.2476 32.0564C98.2634 32.1824 98.2791 32.2848 98.2948 32.3714C98.3106 32.458 98.3263 32.525 98.346 32.584C98.4444 32.8912 98.6057 33.1274 98.83 33.2889C99.0503 33.4503 99.3415 33.533 99.6996 33.533Z" fill="#7D7150"/>
<path d="M103.54 27.9143C103.54 27.8513 103.572 27.8198 103.634 27.8198H104.237C104.311 27.8198 104.366 27.8513 104.398 27.9143L107.29 32.7063H107.329V27.9143C107.329 27.8513 107.361 27.8198 107.424 27.8198H108.022C108.085 27.8198 108.116 27.8513 108.116 27.9143V34.1159C108.116 34.1789 108.085 34.2104 108.022 34.2104H107.42C107.345 34.2104 107.29 34.1789 107.258 34.1159L104.358 29.3436H104.331V34.1159C104.331 34.1789 104.299 34.2104 104.237 34.2104H103.638C103.575 34.2104 103.544 34.1789 103.544 34.1159V27.9143H103.54Z" fill="#7D7150"/>
<path d="M112.216 27.9143C112.216 27.8513 112.247 27.8198 112.31 27.8198H116.159C116.221 27.8198 116.253 27.8513 116.253 27.9143V28.505C116.253 28.568 116.221 28.5995 116.159 28.5995H113.117C113.081 28.5995 113.062 28.6191 113.062 28.6546V30.5997C113.062 30.6391 113.081 30.6548 113.117 30.6548H115.698C115.761 30.6548 115.793 30.6863 115.793 30.7493V31.34C115.793 31.403 115.761 31.4345 115.698 31.4345H113.117C113.081 31.4345 113.062 31.4542 113.062 31.4896V34.112C113.062 34.175 113.03 34.2065 112.967 34.2065H112.31C112.247 34.2065 112.216 34.175 112.216 34.112V27.9104V27.9143Z" fill="#7D7150"/>
<path d="M119.693 34.3126C119.154 34.3126 118.697 34.1866 118.327 33.9385C117.954 33.6865 117.686 33.3164 117.525 32.8203C117.493 32.7258 117.466 32.6273 117.446 32.5289C117.422 32.4305 117.407 32.3123 117.395 32.1785C117.383 32.0446 117.371 31.8832 117.367 31.6942C117.359 31.5052 117.359 31.2807 117.359 31.0169C117.359 30.7531 117.359 30.5286 117.367 30.3396C117.375 30.1506 117.383 29.9892 117.395 29.8553C117.407 29.7215 117.426 29.6033 117.446 29.5049C117.47 29.4065 117.493 29.308 117.525 29.2135C117.686 28.7174 117.954 28.3473 118.327 28.0953C118.701 27.8433 119.154 27.7212 119.693 27.7212C120.232 27.7212 120.696 27.8472 121.07 28.0953C121.444 28.3473 121.711 28.7174 121.873 29.2135C121.904 29.308 121.932 29.4065 121.951 29.5049C121.975 29.6033 121.991 29.7215 122.002 29.8553C122.014 29.9892 122.026 30.1506 122.03 30.3396C122.034 30.5286 122.038 30.7531 122.038 31.0169C122.038 31.2807 122.038 31.5052 122.03 31.6942C122.022 31.8832 122.014 32.0446 122.002 32.1785C121.991 32.3123 121.971 32.4305 121.951 32.5289C121.928 32.6273 121.904 32.7258 121.873 32.8203C121.711 33.3164 121.444 33.6865 121.07 33.9385C120.696 34.1905 120.24 34.3126 119.693 34.3126ZM119.693 33.533C120.051 33.533 120.342 33.4503 120.566 33.2889C120.791 33.1274 120.956 32.8912 121.054 32.584C121.074 32.5289 121.09 32.458 121.105 32.3714C121.121 32.2848 121.137 32.1824 121.153 32.0564C121.168 31.9304 121.18 31.7847 121.184 31.6154C121.188 31.4461 121.192 31.2453 121.192 31.013C121.192 30.7806 121.192 30.5798 121.184 30.4105C121.176 30.2412 121.168 30.0955 121.153 29.9695C121.137 29.8435 121.121 29.7411 121.105 29.6545C121.09 29.5718 121.074 29.501 121.054 29.4419C120.956 29.1348 120.791 28.8985 120.566 28.7371C120.342 28.5756 120.051 28.4929 119.693 28.4929C119.335 28.4929 119.047 28.5756 118.823 28.7371C118.599 28.8985 118.438 29.1348 118.339 29.4419C118.319 29.497 118.304 29.5679 118.288 29.6545C118.272 29.7372 118.257 29.8435 118.241 29.9695C118.225 30.0955 118.213 30.2412 118.209 30.4105C118.205 30.5798 118.201 30.7806 118.201 31.013C118.201 31.2453 118.201 31.4461 118.209 31.6154C118.217 31.7847 118.225 31.9304 118.241 32.0564C118.257 32.1824 118.272 32.2848 118.288 32.3714C118.304 32.458 118.319 32.525 118.339 32.584C118.438 32.8912 118.599 33.1274 118.823 33.2889C119.043 33.4503 119.335 33.533 119.693 33.533Z" fill="#7D7150"/>
<path d="M127.236 34.2104C127.181 34.2104 127.137 34.1789 127.114 34.1159L125.843 31.5053H124.438C124.403 31.5053 124.383 31.525 124.383 31.5605V34.1159C124.383 34.1789 124.352 34.2104 124.289 34.2104H123.632C123.569 34.2104 123.537 34.1789 123.537 34.1159V27.9143C123.537 27.8513 123.569 27.8198 123.632 27.8198H125.945C126.244 27.8198 126.52 27.8631 126.764 27.9498C127.008 28.0364 127.22 28.1624 127.393 28.3199C127.57 28.4813 127.704 28.6743 127.802 28.9026C127.901 29.131 127.948 29.383 127.948 29.6586C127.948 30.0918 127.834 30.458 127.61 30.7572C127.385 31.0565 127.078 31.2691 126.689 31.3951L128.05 34.0923C128.07 34.1238 128.074 34.1514 128.058 34.1711C128.046 34.1947 128.023 34.2026 127.991 34.2026H127.232L127.236 34.2104ZM125.922 30.7257C126.295 30.7257 126.587 30.6352 126.791 30.4501C126.996 30.265 127.098 30.0052 127.098 29.6665C127.098 29.3279 126.996 29.068 126.791 28.883C126.587 28.6979 126.295 28.6073 125.922 28.6073H124.434C124.399 28.6073 124.379 28.627 124.379 28.6625V30.6745C124.379 30.7139 124.399 30.7297 124.434 30.7297H125.922V30.7257Z" fill="#7D7150"/>
<path d="M0.592773 37.7424C0.592773 37.6794 0.624253 37.6479 0.68721 37.6479H1.29711C1.37187 37.6479 1.42302 37.6794 1.44663 37.7424L3.35503 42.0462H3.38257L5.25556 37.7424C5.27917 37.6794 5.33032 37.6479 5.40508 37.6479H6.01498C6.07794 37.6479 6.10942 37.6794 6.10942 37.7424V43.9441C6.10942 44.0071 6.07794 44.0386 6.01498 44.0386H5.41689C5.35393 44.0386 5.32245 44.0071 5.32245 43.9441V39.4986H5.29491L3.7131 43.0148C3.68162 43.0896 3.62653 43.129 3.5439 43.129H3.17009C3.08353 43.129 3.0245 43.0896 2.99303 43.0148L1.41122 39.4986H1.38368V43.9441C1.38368 44.0071 1.3522 44.0386 1.28924 44.0386H0.691144C0.628187 44.0386 0.596708 44.0071 0.596708 43.9441V37.7424H0.592773Z" fill="#7D7150"/>
<path d="M9.47731 37.7424C9.49699 37.6794 9.5324 37.6479 9.59142 37.6479H10.2013C10.2643 37.6479 10.3036 37.6794 10.3233 37.7424L12.5111 43.9441C12.5307 44.0071 12.5111 44.0386 12.4442 44.0386H11.7871C11.7241 44.0386 11.6848 44.0071 11.6651 43.9441L11.1772 42.5541H8.59591L8.10799 43.9441C8.08438 44.0071 8.0411 44.0386 7.98601 44.0386H7.32889C7.26593 44.0386 7.24626 44.0071 7.262 43.9441L9.47731 37.7424ZM10.9057 41.7745L9.90228 38.8804H9.8826L8.86741 41.7745H10.9057Z" fill="#7D7150"/>
<path d="M13.668 37.7424C13.668 37.6794 13.6994 37.6479 13.7624 37.6479H14.4195C14.4825 37.6479 14.514 37.6794 14.514 37.7424V41.0697L17.229 37.7346C17.2683 37.6794 17.3156 37.6519 17.3785 37.6519H18.1498C18.1812 37.6519 18.2009 37.6637 18.2127 37.6834C18.2206 37.707 18.2127 37.7306 18.1891 37.7621L16.1981 40.1601L18.3858 43.9362C18.4291 44.007 18.4094 44.0386 18.3308 44.0386H17.5792C17.5241 44.0386 17.4808 44.011 17.4493 43.9559L15.6551 40.8058L14.5179 42.1761V43.9441C14.5179 44.0071 14.4864 44.0386 14.4235 44.0386H13.7663C13.7034 44.0386 13.6719 44.0071 13.6719 43.9441V37.7424H13.668Z" fill="#7D7150"/>
<path d="M19.5938 37.7424C19.5938 37.6794 19.6252 37.6479 19.6882 37.6479H20.3453C20.4083 37.6479 20.4397 37.6794 20.4397 37.7424V41.0697L23.1548 37.7346C23.1941 37.6794 23.2413 37.6519 23.3043 37.6519H24.0755C24.107 37.6519 24.1267 37.6637 24.1385 37.6834C24.1464 37.707 24.1385 37.7306 24.1149 37.7621L22.1239 40.1601L24.3116 43.9362C24.3549 44.007 24.3352 44.0386 24.2565 44.0386H23.505C23.4499 44.0386 23.4066 44.011 23.3751 43.9559L21.5808 40.8058L20.4437 42.1761V43.9441C20.4437 44.0071 20.4122 44.0386 20.3492 44.0386H19.6921C19.6292 44.0386 19.5977 44.0071 19.5977 43.9441V37.7424H19.5938Z" fill="#7D7150"/>
<path d="M27.1726 37.7424C27.1923 37.6794 27.2277 37.6479 27.2867 37.6479H27.8966C27.9596 37.6479 27.9989 37.6794 28.0186 37.7424L30.2064 43.9441C30.2261 44.0071 30.2064 44.0386 30.1395 44.0386H29.4824C29.4194 44.0386 29.3801 44.0071 29.3604 43.9441L28.8725 42.5541H26.2912L25.8033 43.9441C25.7797 44.0071 25.7364 44.0386 25.6813 44.0386H25.0242C24.9612 44.0386 24.9416 44.0071 24.9573 43.9441L27.1726 37.7424ZM28.597 41.7745L27.5937 38.8804H27.574L26.5588 41.7745H28.597Z" fill="#7D7150"/>
<path d="M31.3594 37.7424C31.3594 37.6794 31.3909 37.6479 31.4538 37.6479H32.1109C32.1739 37.6479 32.2054 37.6794 32.2054 37.7424V40.3648C32.2054 40.4042 32.225 40.42 32.2605 40.42H35.0227C35.0581 40.42 35.0778 40.4003 35.0778 40.3648V37.7424C35.0778 37.6794 35.1093 37.6479 35.1722 37.6479H35.8294C35.8923 37.6479 35.9238 37.6794 35.9238 37.7424V43.9441C35.9238 44.0071 35.8923 44.0386 35.8294 44.0386H35.1722C35.1093 44.0386 35.0778 44.0071 35.0778 43.9441V41.2547C35.0778 41.2153 35.0581 41.1996 35.0227 41.1996H32.2605C32.225 41.1996 32.2054 41.2193 32.2054 41.2547V43.9441C32.2054 44.0071 32.1739 44.0386 32.1109 44.0386H31.4538C31.3909 44.0386 31.3594 44.0071 31.3594 43.9441V37.7424Z" fill="#7D7150"/>
<path d="M39.9729 42.6367C39.9414 42.5422 39.9139 42.4477 39.8942 42.3492C39.8706 42.2508 39.8548 42.1366 39.843 42.0027C39.8312 41.8688 39.8194 41.7074 39.8155 41.5184C39.8076 41.3294 39.8076 41.105 39.8076 40.8411C39.8076 40.5773 39.8076 40.3529 39.8155 40.1639C39.8234 39.9749 39.8312 39.8135 39.843 39.6796C39.8548 39.5457 39.8745 39.4276 39.8942 39.3331C39.9178 39.2346 39.9414 39.1401 39.9729 39.0456C40.1342 38.5377 40.3978 38.1597 40.7598 37.9116C41.1219 37.6636 41.5665 37.5415 42.0938 37.5415C42.5699 37.5415 42.983 37.6518 43.3372 37.8762C43.6913 38.1006 43.9589 38.4156 44.1399 38.8291C44.1596 38.8842 44.1477 38.9275 44.1005 38.9511L43.5378 39.2228C43.4749 39.2543 43.4316 39.2386 43.408 39.1756C43.2821 38.9236 43.1168 38.7188 42.9122 38.5613C42.7037 38.3999 42.4322 38.3211 42.0938 38.3211C41.7554 38.3211 41.4602 38.4038 41.2478 38.5653C41.0353 38.7267 40.874 38.959 40.7677 39.2622C40.748 39.3331 40.7323 39.404 40.7166 39.4827C40.7008 39.5615 40.689 39.6599 40.6772 39.7741C40.6693 39.8883 40.6615 40.034 40.6536 40.2072C40.6457 40.3805 40.6457 40.5891 40.6457 40.8411C40.6457 41.0931 40.6457 41.3018 40.6536 41.4751C40.6615 41.6483 40.6693 41.7901 40.6772 41.9082C40.6851 42.0224 40.7008 42.1248 40.7166 42.2035C40.7323 42.2862 40.748 42.3571 40.7677 42.4201C40.874 42.7193 41.0353 42.9517 41.2478 43.117C41.4602 43.2785 41.7436 43.3612 42.0938 43.3612C42.444 43.3612 42.7037 43.2824 42.9122 43.121C43.1207 42.9595 43.286 42.7548 43.408 42.5067C43.4316 42.4437 43.4788 42.428 43.5378 42.4595L44.1005 42.7312C44.1438 42.7548 44.1556 42.7981 44.1399 42.8532C43.9589 43.2667 43.6913 43.5856 43.3372 43.8061C42.983 44.0305 42.5699 44.1408 42.0938 44.1408C41.5665 44.1408 41.1219 44.0187 40.7598 43.7707C40.3978 43.5226 40.1342 43.1446 39.9729 42.6367Z" fill="#7D7150"/>
<path d="M45.4854 37.7424C45.4854 37.6794 45.5168 37.6479 45.5798 37.6479H46.2369C46.2999 37.6479 46.3313 37.6794 46.3313 37.7424V43.9441C46.3313 44.0071 46.2999 44.0386 46.2369 44.0386H45.5798C45.5168 44.0386 45.4854 44.0071 45.4854 43.9441V37.7424Z" fill="#7D7150"/>
<path d="M49.4481 44.0386C49.3851 44.0386 49.3536 44.0071 49.3536 43.9441V38.4827C49.3536 38.4433 49.334 38.4276 49.2985 38.4276H47.5515C47.4885 38.4276 47.457 38.3961 47.457 38.3331V37.7424C47.457 37.6794 47.4885 37.6479 47.5515 37.6479H52.0018C52.0647 37.6479 52.0962 37.6794 52.0962 37.7424V38.3331C52.0962 38.3961 52.0647 38.4276 52.0018 38.4276H50.2547C50.2154 38.4276 50.1996 38.4473 50.1996 38.4827V43.9441C50.1996 44.0071 50.1681 44.0386 50.1052 44.0386H49.4481Z" fill="#7D7150"/>
<path d="M54.5828 44.0386C54.5198 44.0386 54.4883 44.0071 54.4883 43.9441V41.424L52.5996 37.7503C52.576 37.6834 52.5996 37.6479 52.6744 37.6479H53.3394C53.3944 37.6479 53.4417 37.6794 53.481 37.7424L54.9094 40.479H54.929L56.3456 37.7424C56.3692 37.6794 56.4125 37.6479 56.4754 37.6479H57.1247C57.1994 37.6479 57.223 37.6834 57.1994 37.7503L55.3107 41.424V43.9441C55.3107 44.0071 55.2792 44.0386 55.2163 44.0386H54.5788H54.5828Z" fill="#7D7150"/>
<path d="M62.1804 37.7424C62.2001 37.6794 62.2355 37.6479 62.2945 37.6479H62.9044C62.9674 37.6479 63.0068 37.6794 63.0264 37.7424L65.2142 43.9441C65.2339 44.0071 65.2142 44.0386 65.1473 44.0386H64.4902C64.4272 44.0386 64.3879 44.0071 64.3682 43.9441L63.8803 42.5541H61.299L60.8111 43.9441C60.7875 44.0071 60.7442 44.0386 60.6891 44.0386H60.032C59.9691 44.0386 59.9494 44.0071 59.9651 43.9441L62.1804 37.7424ZM63.6088 41.7745L62.6054 38.8804H62.5857L61.5705 41.7745H63.6088Z" fill="#7D7150"/>
<path d="M66.3711 37.7424C66.3711 37.6794 66.4026 37.6479 66.4655 37.6479H67.0676C67.1423 37.6479 67.1974 37.6794 67.2289 37.7424L70.121 42.5344H70.1603V37.7424C70.1603 37.6794 70.1918 37.6479 70.2548 37.6479H70.8529C70.9158 37.6479 70.9473 37.6794 70.9473 37.7424V43.9441C70.9473 44.0071 70.9158 44.0386 70.8529 44.0386H70.2508C70.1761 44.0386 70.121 44.0071 70.0895 43.9441L67.1895 39.1718H67.162V43.9441C67.162 44.0071 67.1305 44.0386 67.0676 44.0386H66.4695C66.4065 44.0386 66.375 44.0071 66.375 43.9441V37.7424H66.3711Z" fill="#7D7150"/>
<path d="M72.6514 37.7424C72.6514 37.6794 72.6828 37.6479 72.7458 37.6479H74.8982C75.992 37.6479 76.6885 38.1008 76.9836 39.0103C77.0072 39.097 77.0308 39.1875 77.0545 39.282C77.0781 39.3765 77.0938 39.4907 77.1095 39.6285C77.1253 39.7663 77.1371 39.9317 77.141 40.1247C77.1489 40.3176 77.1489 40.5578 77.1489 40.8373C77.1489 41.1169 77.1489 41.3571 77.141 41.55C77.1332 41.743 77.1253 41.9123 77.1095 42.0462C77.0938 42.184 77.0741 42.2982 77.0545 42.3927C77.0348 42.4872 77.0072 42.5777 76.9836 42.6644C76.6885 43.5739 75.996 44.0267 74.8982 44.0267H72.7458C72.6828 44.0267 72.6514 43.9952 72.6514 43.9322V37.7306V37.7424ZM73.4974 43.1999C73.4974 43.2392 73.517 43.255 73.5524 43.255H74.7211C75.1067 43.255 75.4215 43.188 75.6576 43.0542C75.8937 42.9203 76.0668 42.6959 76.1731 42.3809C76.1927 42.3257 76.2085 42.2588 76.2281 42.184C76.2478 42.1092 76.2596 42.0147 76.2714 41.8965C76.2793 41.7824 76.2872 41.6367 76.295 41.4673C76.3029 41.298 76.3029 41.0893 76.3029 40.8373C76.3029 40.5853 76.3029 40.3767 76.295 40.2073C76.2872 40.038 76.2793 39.8963 76.2714 39.7781C76.2636 39.664 76.2478 39.5655 76.2281 39.4907C76.2085 39.4159 76.1888 39.349 76.1731 39.2938C76.0668 38.9788 75.8937 38.7583 75.6576 38.6205C75.4215 38.4866 75.1067 38.4197 74.7211 38.4197H73.5524C73.517 38.4197 73.4974 38.4394 73.4974 38.4748V43.192V43.1999Z" fill="#7D7150"/>
<path d="M81.0371 37.7424C81.0371 37.6794 81.0686 37.6479 81.1315 37.6479H81.7887C81.8516 37.6479 81.8831 37.6794 81.8831 37.7424V40.3648C81.8831 40.4042 81.9028 40.42 81.9382 40.42H84.7004C84.7359 40.42 84.7555 40.4003 84.7555 40.3648V37.7424C84.7555 37.6794 84.787 37.6479 84.85 37.6479H85.5071C85.57 37.6479 85.6015 37.6794 85.6015 37.7424V43.9441C85.6015 44.0071 85.57 44.0386 85.5071 44.0386H84.85C84.787 44.0386 84.7555 44.0071 84.7555 43.9441V41.2547C84.7555 41.2153 84.7359 41.1996 84.7004 41.1996H81.9382C81.9028 41.1996 81.8831 41.2193 81.8831 41.2547V43.9441C81.8831 44.0071 81.8516 44.0386 81.7887 44.0386H81.1315C81.0686 44.0386 81.0371 44.0071 81.0371 43.9441V37.7424Z" fill="#7D7150"/>
<path d="M89.4261 44.1407C88.8871 44.1407 88.4306 44.0147 88.0607 43.7667C87.6869 43.5147 87.4194 43.1445 87.258 42.6484C87.2266 42.5539 87.199 42.4555 87.1793 42.357C87.1557 42.2586 87.14 42.1405 87.1282 42.0066C87.1164 41.8727 87.1046 41.7113 87.1006 41.5223C87.0928 41.3333 87.0928 41.1088 87.0928 40.845C87.0928 40.5812 87.0928 40.3568 87.1006 40.1678C87.1085 39.9788 87.1164 39.8173 87.1282 39.6835C87.14 39.5496 87.1597 39.4315 87.1793 39.333C87.2029 39.2346 87.2266 39.1361 87.258 39.0416C87.4194 38.5455 87.6869 38.1754 88.0607 37.9234C88.4346 37.6714 88.8871 37.5493 89.4261 37.5493C89.9652 37.5493 90.4295 37.6753 90.8033 37.9234C91.1771 38.1754 91.4447 38.5455 91.606 39.0416C91.6375 39.1361 91.6651 39.2346 91.6847 39.333C91.7083 39.4315 91.7241 39.5496 91.7359 39.6835C91.7477 39.8173 91.7595 39.9788 91.7634 40.1678C91.7674 40.3568 91.7713 40.5812 91.7713 40.845C91.7713 41.1088 91.7713 41.3333 91.7634 41.5223C91.7555 41.7113 91.7477 41.8727 91.7359 42.0066C91.7241 42.1405 91.7044 42.2586 91.6847 42.357C91.6611 42.4555 91.6375 42.5539 91.606 42.6484C91.4447 43.1445 91.1771 43.5147 90.8033 43.7667C90.4295 44.0187 89.9731 44.1407 89.4261 44.1407ZM89.4261 43.3611C89.7842 43.3611 90.0754 43.2784 90.2997 43.117C90.524 42.9555 90.6892 42.7193 90.7876 42.4122C90.8073 42.357 90.823 42.2862 90.8387 42.1995C90.8545 42.1129 90.8702 42.0105 90.886 41.8845C90.9017 41.7585 90.9135 41.6128 90.9174 41.4435C90.9214 41.2742 90.9253 41.0734 90.9253 40.8411C90.9253 40.6088 90.9253 40.408 90.9174 40.2386C90.9096 40.0693 90.9017 39.9236 90.886 39.7976C90.8702 39.6716 90.8545 39.5693 90.8387 39.4826C90.823 39.4 90.8073 39.3291 90.7876 39.27C90.6892 38.9629 90.524 38.7266 90.2997 38.5652C90.0754 38.4038 89.7842 38.3211 89.4261 38.3211C89.0681 38.3211 88.7808 38.4038 88.5565 38.5652C88.3322 38.7266 88.1709 38.9629 88.0725 39.27C88.0529 39.3251 88.0371 39.396 88.0214 39.4826C88.0057 39.5653 87.9899 39.6716 87.9742 39.7976C87.9584 39.9236 87.9466 40.0693 87.9427 40.2386C87.9388 40.408 87.9348 40.6088 87.9348 40.8411C87.9348 41.0734 87.9348 41.2742 87.9427 41.4435C87.9506 41.6128 87.9584 41.7585 87.9742 41.8845C87.9899 42.0105 88.0057 42.1129 88.0214 42.1995C88.0371 42.2862 88.0529 42.3531 88.0725 42.4122C88.1709 42.7193 88.3322 42.9555 88.5565 43.117C88.7769 43.2784 89.0681 43.3611 89.4261 43.3611Z" fill="#7D7150"/>
<path d="M93.2656 37.7424C93.2656 37.6794 93.2971 37.6479 93.3601 37.6479H94.0172C94.0801 37.6479 94.1116 37.6794 94.1116 37.7424V43.2038C94.1116 43.2432 94.1313 43.2589 94.1667 43.2589H97.2083C97.2713 43.2589 97.3028 43.2904 97.3028 43.3534V43.9441C97.3028 44.0071 97.2713 44.0386 97.2083 44.0386H93.3601C93.2971 44.0386 93.2656 44.0071 93.2656 43.9441V37.7424Z" fill="#7D7150"/>
<path d="M98.9754 44.0386C98.9124 44.0386 98.8809 44.0071 98.8809 43.9441V41.424L96.9922 37.7503C96.9686 37.6834 96.9922 37.6479 97.067 37.6479H97.7319C97.787 37.6479 97.8342 37.6794 97.8736 37.7424L99.3019 40.479H99.3216L100.738 37.7424C100.762 37.6794 100.805 37.6479 100.868 37.6479H101.517C101.592 37.6479 101.616 37.6834 101.592 37.7503L99.7033 41.424V43.9441C99.7033 44.0071 99.6718 44.0386 99.6089 44.0386H98.9714H98.9754Z" fill="#7D7150"/>
<path d="M106.853 44.1407C106.629 44.1407 106.405 44.117 106.184 44.0737C105.964 44.0304 105.759 43.9714 105.566 43.9005C105.374 43.8296 105.193 43.743 105.031 43.6485C104.87 43.55 104.728 43.4516 104.61 43.3414C104.567 43.298 104.563 43.2508 104.602 43.1996L105.016 42.7113C105.055 42.668 105.098 42.6641 105.145 42.7035C105.354 42.8649 105.61 43.0185 105.917 43.1563C106.224 43.2941 106.562 43.365 106.932 43.365C107.376 43.365 107.723 43.2665 107.971 43.0657C108.219 42.8649 108.34 42.6011 108.34 42.2782C108.34 42.1404 108.317 42.0144 108.274 41.9042C108.23 41.79 108.156 41.6915 108.053 41.6049C107.951 41.5183 107.813 41.4435 107.644 41.3805C107.475 41.3175 107.262 41.2702 107.007 41.2387L106.688 41.1915C105.437 41.0222 104.811 40.4355 104.811 39.4235C104.811 39.14 104.858 38.8841 104.957 38.6518C105.055 38.4194 105.193 38.2226 105.374 38.0611C105.555 37.8997 105.775 37.7737 106.031 37.6871C106.287 37.6004 106.574 37.5571 106.896 37.5571C107.27 37.5571 107.632 37.6123 107.971 37.7225C108.313 37.8328 108.6 37.9745 108.84 38.1517C108.891 38.1911 108.895 38.2344 108.86 38.2816L108.541 38.7974C108.502 38.8408 108.459 38.8486 108.411 38.8171C108.148 38.6557 107.896 38.5336 107.652 38.4549C107.408 38.3761 107.148 38.3368 106.873 38.3368C106.479 38.3368 106.176 38.4313 105.972 38.6242C105.763 38.8171 105.661 39.0652 105.661 39.3723C105.661 39.6401 105.759 39.8645 105.96 40.0338C106.161 40.2071 106.507 40.3252 107.003 40.3961L107.314 40.4433C107.939 40.53 108.407 40.719 108.722 41.0064C109.037 41.2938 109.19 41.7033 109.19 42.227C109.19 42.5105 109.143 42.7665 109.045 43.0027C108.946 43.239 108.801 43.4398 108.604 43.6091C108.407 43.7784 108.163 43.9123 107.872 44.0068C107.581 44.1052 107.243 44.1525 106.861 44.1525L106.853 44.1407Z" fill="#7D7150"/>
<path d="M110.611 37.7424C110.611 37.6794 110.643 37.6479 110.706 37.6479H111.363C111.426 37.6479 111.457 37.6794 111.457 37.7424V43.9441C111.457 44.0071 111.426 44.0386 111.363 44.0386H110.706C110.643 44.0386 110.611 44.0071 110.611 43.9441V37.7424Z" fill="#7D7150"/>
<path d="M114.573 44.0386C114.51 44.0386 114.479 44.0071 114.479 43.9441V38.4827C114.479 38.4433 114.459 38.4276 114.424 38.4276H112.676C112.614 38.4276 112.582 38.3961 112.582 38.3331V37.7424C112.582 37.6794 112.614 37.6479 112.676 37.6479H117.127C117.19 37.6479 117.221 37.6794 117.221 37.7424V38.3331C117.221 38.3961 117.19 38.4276 117.127 38.4276H115.38C115.34 38.4276 115.325 38.4473 115.325 38.4827V43.9441C115.325 44.0071 115.293 44.0386 115.23 44.0386H114.573Z" fill="#7D7150"/>
<path d="M118.351 37.7424C118.351 37.6794 118.382 37.6479 118.445 37.6479H122.293C122.356 37.6479 122.388 37.6794 122.388 37.7424V38.3331C122.388 38.3961 122.356 38.4276 122.293 38.4276H119.252C119.216 38.4276 119.197 38.4473 119.197 38.4827V40.3609C119.197 40.4003 119.216 40.416 119.252 40.416H121.833C121.896 40.416 121.927 40.4475 121.927 40.5105V41.1012C121.927 41.1642 121.896 41.1957 121.833 41.1957H119.252C119.216 41.1957 119.197 41.2153 119.197 41.2508V43.1959C119.197 43.2353 119.216 43.251 119.252 43.251H122.293C122.356 43.251 122.388 43.2825 122.388 43.3455V43.9362C122.388 43.9992 122.356 44.0307 122.293 44.0307H118.445C118.382 44.0307 118.351 43.9992 118.351 43.9362V37.7346V37.7424Z" fill="#7D7150"/>
<path d="M125.712 44.1407C125.488 44.1407 125.264 44.117 125.044 44.0737C124.823 44.0304 124.619 43.9714 124.426 43.9005C124.233 43.8296 124.052 43.743 123.891 43.6485C123.729 43.55 123.588 43.4516 123.47 43.3414C123.426 43.298 123.422 43.2508 123.462 43.1996L123.875 42.7113C123.914 42.668 123.958 42.6641 124.005 42.7035C124.213 42.8649 124.469 43.0185 124.776 43.1563C125.083 43.2941 125.421 43.365 125.791 43.365C126.236 43.365 126.582 43.2665 126.83 43.0657C127.078 42.8649 127.2 42.6011 127.2 42.2782C127.2 42.1404 127.176 42.0144 127.133 41.9042C127.09 41.79 127.015 41.6915 126.913 41.6049C126.81 41.5183 126.673 41.4435 126.503 41.3805C126.334 41.3175 126.122 41.2702 125.866 41.2387L125.547 41.1915C124.296 41.0222 123.67 40.4355 123.67 39.4235C123.67 39.14 123.718 38.8841 123.816 38.6518C123.914 38.4194 124.052 38.2226 124.233 38.0611C124.414 37.8997 124.634 37.7737 124.89 37.6871C125.146 37.6004 125.433 37.5571 125.756 37.5571C126.13 37.5571 126.492 37.6123 126.83 37.7225C127.172 37.8328 127.46 37.9745 127.7 38.1517C127.751 38.1911 127.755 38.2344 127.719 38.2816L127.401 38.7974C127.361 38.8408 127.318 38.8486 127.271 38.8171C127.007 38.6557 126.755 38.5336 126.511 38.4549C126.267 38.3761 126.008 38.3368 125.732 38.3368C125.339 38.3368 125.036 38.4313 124.831 38.6242C124.623 38.8171 124.52 39.0652 124.52 39.3723C124.52 39.6401 124.619 39.8645 124.819 40.0338C125.02 40.2071 125.366 40.3252 125.862 40.3961L126.173 40.4433C126.799 40.53 127.267 40.719 127.582 41.0064C127.896 41.2938 128.05 41.7033 128.05 42.227C128.05 42.5105 128.003 42.7665 127.904 43.0027C127.806 43.239 127.66 43.4398 127.464 43.6091C127.267 43.7784 127.023 43.9123 126.732 44.0068C126.44 44.1052 126.102 44.1525 125.72 44.1525L125.712 44.1407Z" fill="#7D7150"/>
<path d="M4.22088 0.937988C3.83133 0.937988 3.51261 1.2648 3.51261 1.64674C3.51261 2.02868 3.81952 2.3555 4.22088 2.3555C4.62223 2.3555 4.92522 2.02868 4.92522 1.64674C4.92522 1.2648 4.59862 0.937988 4.22088 0.937988ZM2.48168 0.937988C2.09213 0.937988 1.77734 1.2648 1.77734 1.64674C1.77734 2.02868 2.06852 2.3555 2.48168 2.3555C2.89484 2.3555 3.18602 2.04049 3.18602 1.64674C3.18602 1.25299 2.87516 0.937988 2.48168 0.937988Z" fill="black"/>
<path d="M18.0751 2.95016C16.1942 2.95016 15.2499 4.21017 15.2499 5.58831C15.2499 6.35612 15.4545 6.84044 15.8519 7.13969C15.8008 7.12788 15.5843 7.06488 15.2499 7.06488H13.4792C13.373 4.97799 12.4483 3.89123 11.0789 3.27304L13.7271 1.67441V0.249023L9.42632 2.94623V4.00148C11.1576 4.40311 12.0233 5.37962 12.0784 7.06488H5.76691V3.32423C5.76691 3.32423 4.77927 2.94623 3.48471 2.94623C1.49368 2.94623 0.616211 4.24955 0.616211 5.67099C0.616211 7.2145 1.41105 8.19495 3.51619 8.19495H20.5304V5.44262C20.5304 3.9188 19.771 2.94229 18.0751 2.94229M4.37398 7.06882H3.68145C2.54035 7.06882 2.05243 6.53331 2.05243 5.54499C2.05243 4.69843 2.52854 4.08023 3.34305 4.08023C3.96476 4.08023 4.37398 4.27317 4.37398 4.27317V7.06882ZM19.1296 7.06882H18.3033C17.174 7.06882 16.6782 6.56875 16.6782 5.54499C16.6782 4.69843 17.1543 4.08023 17.9689 4.08023C18.6968 4.08023 19.1296 4.53699 19.1296 5.62374V7.06882Z" fill="black"/>
<path d="M27.7551 0.937988C27.3655 0.937988 27.0468 1.2648 27.0468 1.64674C27.0468 2.02868 27.3498 2.3555 27.7551 2.3555C28.1604 2.3555 28.4594 2.02868 28.4594 1.64674C28.4594 1.2648 28.1328 0.937988 27.7551 0.937988ZM26.0159 0.937988C25.6263 0.937988 25.3076 1.2648 25.3076 1.64674C25.3076 2.02868 25.6027 2.3555 26.0159 2.3555C26.429 2.3555 26.7242 2.04049 26.7242 1.64674C26.7242 1.25299 26.4054 0.937988 26.0159 0.937988Z" fill="black"/>
<path d="M34.814 0.930176C34.4166 0.930176 34.0664 1.27668 34.0664 1.67831C34.0664 2.07993 34.4009 2.43037 34.814 2.43037C35.2272 2.43037 35.5656 2.09568 35.5656 1.67831C35.5656 1.26093 35.2193 0.930176 34.814 0.930176Z" fill="black"/>
<path d="M39.3234 8.99414C38.9339 8.99414 38.6152 9.30521 38.6152 9.69896C38.6152 10.0927 38.9182 10.4077 39.3234 10.4077C39.7287 10.4077 40.0278 10.0809 40.0278 9.69896C40.0278 9.31702 39.7012 8.99414 39.3234 8.99414ZM37.5842 8.99414C37.1947 8.99414 36.876 9.30521 36.876 9.69896C36.876 10.0927 37.1829 10.4077 37.5842 10.4077C37.9856 10.4077 38.2886 10.0809 38.2886 9.69896C38.2886 9.31702 37.962 8.99414 37.5842 8.99414Z" fill="black"/>
<path d="M37.7689 3.08801V7.06885H35.5339V3.08801H34.0977V7.06885H29.2972V3.3282C29.2972 3.3282 28.3095 2.9502 27.015 2.9502C25.024 2.9502 24.1465 4.25352 24.1465 5.67496C24.1465 7.21847 24.9413 8.19892 27.0465 8.19892H39.2051V3.08801H37.7689ZM27.9043 7.06885H27.2117C26.0706 7.06885 25.5827 6.53334 25.5827 5.54502C25.5827 4.69846 26.0588 4.08027 26.8733 4.08027C27.495 4.08027 27.9043 4.2732 27.9043 4.2732V7.06885Z" fill="black"/>
<path d="M54.6452 0.532715V7.06901H52.064V5.45068C52.064 3.92686 51.3046 2.95035 49.6086 2.95035C47.7278 2.95035 46.7834 4.21036 46.7834 5.5885C46.7834 6.70675 46.3624 7.06901 45.7092 7.06901H45.1898C45.06 4.64349 43.8126 3.41498 41.5737 2.82829L41.2274 4.0253C42.9391 4.45843 43.7261 5.45856 43.789 7.06507H40.5703V8.19907H45.8587C46.7716 8.19907 47.2084 7.86045 47.4012 7.36038C47.7829 7.86045 48.2747 8.19907 49.8329 8.19907H56.0775V0.532715H54.6413H54.6452ZM50.6632 7.06901H49.8369C48.7076 7.06901 48.2118 6.56894 48.2118 5.54518C48.2118 4.69862 48.6879 4.08042 49.5063 4.08042C50.2343 4.08042 50.6671 4.53718 50.6671 5.62393V7.06901H50.6632Z" fill="black"/>
<path d="M63.4796 0.937988C63.0901 0.937988 62.7753 1.2648 62.7753 1.64674C62.7753 2.02868 63.0783 2.3555 63.4796 2.3555C63.881 2.3555 64.1879 2.02868 64.1879 1.64674C64.1879 1.2648 63.8613 0.937988 63.4796 0.937988ZM61.7404 0.937988C61.3509 0.937988 61.04 1.2648 61.04 1.64674C61.04 2.02868 61.3312 2.3555 61.7404 2.3555C62.1497 2.3555 62.4487 2.04049 62.4487 1.64674C62.4487 1.25299 62.1379 0.937988 61.7404 0.937988Z" fill="black"/>
<path d="M69.4007 8.99414C69.0072 8.99414 68.6924 9.30521 68.6924 9.69896C68.6924 10.0927 68.9954 10.4077 69.4007 10.4077C69.8059 10.4077 70.105 10.0809 70.105 9.69896C70.105 9.31702 69.7784 8.99414 69.4007 8.99414ZM71.1399 8.99414C70.7464 8.99414 70.4355 9.30521 70.4355 9.69896C70.4355 10.0927 70.7385 10.4077 71.1399 10.4077C71.5412 10.4077 71.8442 10.0809 71.8442 9.69896C71.8442 9.31702 71.5176 8.99414 71.1399 8.99414Z" fill="black"/>
<path d="M89.5555 0.532494V7.06879H87.2694V5.45046C87.2694 3.92664 86.51 2.95013 84.814 2.95013C82.9371 2.95013 81.9928 4.21014 81.9928 5.58827C81.9928 6.70653 81.5678 7.06879 80.9186 7.06879H79.8876V0.532494H78.4514V7.06879H76.6807C76.5706 4.9819 75.6498 3.89514 74.2765 3.27695L76.9247 1.67831V0.25293L72.6239 2.95013V4.00539C74.3552 4.40702 75.2209 5.38352 75.276 7.06879H70.9988V3.08795H69.5626V7.06879H65.0218V3.32814C65.0218 3.32814 64.0342 2.95013 62.7396 2.95013C60.7486 2.95013 59.8711 4.25345 59.8711 5.6749C59.8711 7.21841 60.6659 8.19885 62.775 8.19885H81.0641C81.9731 8.19885 82.4099 7.86023 82.6066 7.36016C82.9843 7.86023 83.4723 8.19885 85.0383 8.19885H90.9839V0.532494H89.5476H89.5555ZM63.6328 7.06879H62.9403C61.7992 7.06879 61.3112 6.53328 61.3112 5.54496C61.3112 4.6984 61.7874 4.0802 62.6019 4.0802C63.2236 4.0802 63.6328 4.27314 63.6328 4.27314V7.06879ZM85.8646 7.06879H85.0423C83.909 7.06879 83.4132 6.56872 83.4132 5.54496C83.4132 4.6984 83.8894 4.0802 84.7039 4.0802C85.4318 4.0802 85.8646 4.53696 85.8646 5.62371V7.06879Z" fill="black"/>
<path d="M94.1589 0.536621H92.7227V8.19904H94.1589V0.536621Z" fill="black"/>
<path d="M101.27 0.937988C100.88 0.937988 100.561 1.2648 100.561 1.64674C100.561 2.02868 100.864 2.3555 101.27 2.3555C101.675 2.3555 101.978 2.02868 101.978 1.64674C101.978 1.2648 101.647 0.937988 101.27 0.937988ZM99.5344 0.937988C99.1449 0.937988 98.8262 1.2648 98.8262 1.64674C98.8262 2.02868 99.1213 2.3555 99.5344 2.3555C99.9476 2.3555 100.239 2.04049 100.239 1.64674C100.239 1.25299 99.924 0.937988 99.5344 0.937988Z" fill="black"/>
<path d="M108.647 1.79635C108.041 1.79635 107.86 1.64278 107.86 1.39472C107.86 1.18997 108.026 1.02459 108.396 1.02459C108.679 1.02459 108.927 1.07972 108.986 1.08759L109.124 0.327649C109.049 0.315836 108.777 0.264648 108.482 0.264648C107.341 0.264648 106.889 0.85134 106.889 1.38291C106.889 1.57584 106.999 1.77272 107.16 1.85935C107.007 1.82391 106.743 1.79241 106.507 1.79241V2.57204H109.312V1.79241H108.647V1.79635Z" fill="black"/>
<path d="M112.897 8.99414C112.507 8.99414 112.192 9.30521 112.192 9.69896C112.192 10.0927 112.495 10.4077 112.897 10.4077C113.298 10.4077 113.605 10.0809 113.605 9.69896C113.605 9.31702 113.278 8.99414 112.897 8.99414ZM111.161 8.99414C110.772 8.99414 110.453 9.30521 110.453 9.69896C110.453 10.0927 110.756 10.4077 111.161 10.4077C111.567 10.4077 111.87 10.0809 111.87 9.69896C111.87 9.31702 111.543 8.99414 111.161 8.99414Z" fill="black"/>
<path d="M123.462 0.532746V7.06904H121.428V7.03754C121.428 3.85995 119.885 2.56845 117.17 2.56845C116.297 2.56845 115.309 2.7417 114.53 2.9937L114.668 4.11196C115.352 3.88358 116.245 3.6867 116.993 3.6867C119.141 3.6867 120.058 4.68683 120.058 6.93516V7.0651H118.972V6.8131C118.972 5.58459 118.429 4.52146 116.973 4.52146C115.659 4.52146 114.888 5.29321 114.888 6.34847C114.888 6.80522 115.104 7.06116 115.151 7.11629C115.108 7.10841 114.915 7.0651 114.66 7.0651H112.755V3.08426H111.323V7.0651H108.785V3.08426H107.353V7.0651H102.812V3.32445C102.812 3.32445 101.824 2.94645 100.526 2.94645C98.5425 2.94645 97.6611 4.24977 97.6611 5.67122C97.6611 7.21473 98.456 8.19517 100.561 8.19517H124.89V0.528809H123.458L123.462 0.532746ZM101.423 7.06904H100.73C99.5853 7.06904 99.1013 6.53353 99.1013 5.54522C99.1013 4.69865 99.5774 4.07652 100.392 4.07652C101.014 4.07652 101.423 4.27339 101.423 4.27339V7.06904ZM117.8 7.11235H117.083C116.529 7.11235 116.049 6.86429 116.049 6.25397C116.049 5.79722 116.367 5.51765 116.863 5.51765C117.505 5.51765 117.8 5.96259 117.8 6.80129V7.11235Z" fill="black"/>
<path d="M128.066 0.536621H126.634V8.19904H128.066V0.536621Z" fill="black"/>
<path d="M4.22479 12.8726C3.83524 12.8726 3.51651 13.1994 3.51651 13.5774C3.51651 13.9554 3.82343 14.2861 4.22479 14.2861C4.62614 14.2861 4.93306 13.9593 4.93306 13.5774C4.93306 13.1954 4.60646 12.8726 4.22479 12.8726ZM2.48559 12.8726C2.09604 12.8726 1.78125 13.1994 1.78125 13.5774C1.78125 13.9554 2.07243 14.2861 2.48559 14.2861C2.89874 14.2861 3.19386 13.9751 3.19386 13.5774C3.19386 13.1797 2.88301 12.8726 2.48559 12.8726Z" fill="black"/>
<path d="M15.2263 14.5894L13.8255 14.7862C14.0104 15.6131 14.1442 16.6132 14.1442 17.7C14.1442 18.0386 14.1206 18.5663 14.0773 19.0073H13.7822C12.7788 19.0073 12.4916 18.834 12.4916 17.9756V15.2469H11.1144V17.7039C11.1144 18.7592 10.7956 19.0978 10.233 19.0978C9.59158 19.0978 9.4814 18.6726 9.4814 17.6921V15.684H8.04519V17.6646C8.04519 18.7277 7.77368 19.0151 7.06935 19.0151H5.76691V15.2745C5.76691 15.2745 4.77927 14.8925 3.48471 14.8925C1.49368 14.8925 0.616211 16.1998 0.616211 17.6212C0.616211 19.1648 1.41105 20.1413 3.51619 20.1413H7.05754C7.85238 20.1413 8.28521 19.8814 8.50163 19.3813C8.67476 19.9011 9.25318 20.2279 9.95752 20.2279C10.8074 20.2279 11.3819 19.8578 11.5983 19.3892C11.9131 19.9877 12.4916 20.1413 13.6327 20.1413H15.423C15.5214 19.3695 15.5765 18.4009 15.5765 17.6055C15.5765 16.5306 15.4387 15.4674 15.2302 14.5933M4.37398 19.0033H3.68145C2.54035 19.0033 2.05243 18.4678 2.05243 17.4795C2.05243 16.629 2.52854 16.0108 3.34305 16.0108C3.96476 16.0108 4.37398 16.2077 4.37398 16.2077V19.0033Z" fill="black"/>
<path d="M25.3469 12.8726C24.9574 12.8726 24.6387 13.1994 24.6387 13.5774C24.6387 13.9554 24.9338 14.2861 25.3469 14.2861C25.7601 14.2861 26.0513 13.9751 26.0513 13.5774C26.0513 13.1797 25.7365 12.8726 25.3469 12.8726ZM27.0861 12.8726C26.6966 12.8726 26.3818 13.1994 26.3818 13.5774C26.3818 13.9554 26.6848 14.2861 27.0861 14.2861C27.4875 14.2861 27.7944 13.9593 27.7944 13.5774C27.7944 13.1954 27.4639 12.8726 27.0861 12.8726Z" fill="black"/>
<path d="M37.985 12.4712V19.0035H35.7775V17.3813C35.7775 15.8614 35.0181 14.881 33.3222 14.881C31.4413 14.881 30.493 16.1449 30.493 17.523C30.493 18.6413 30.072 19.0035 29.4188 19.0035H29.0411C28.6594 19.0035 28.2029 19.0547 28.2029 19.0547C28.6161 18.7082 28.8325 18.0428 28.8325 17.4128C28.8325 15.6803 27.8449 14.877 26.3142 14.877C24.6616 14.877 23.5441 16.0189 23.5441 17.586C23.5441 18.2082 23.7172 18.7122 24.0556 19.0547C24.0556 19.0547 23.7172 19.0035 23.3788 19.0035H21.6869C21.557 16.578 20.3097 15.3495 18.0707 14.7628L17.7245 15.9598C19.4401 16.393 20.2231 17.397 20.2861 19.0035H17.0713V20.1336H29.5723C30.4852 20.1336 30.9219 19.7989 31.1147 19.2949C31.4964 19.7989 31.9883 20.1336 33.5465 20.1336H39.4212V12.4712H37.985ZM26.1844 19.0035C25.3895 19.0035 24.9882 18.4917 24.9882 17.4679C24.9882 16.4442 25.5863 16.015 26.208 16.015C27.0225 16.015 27.4002 16.5347 27.4002 17.4915C27.4002 18.5035 26.873 19.0035 26.1844 19.0035ZM34.3728 19.0035H33.5425C32.4172 19.0035 31.9174 18.4995 31.9174 17.4797C31.9174 16.6292 32.3935 16.011 33.2081 16.011C33.936 16.011 34.3688 16.4678 34.3688 17.5506V18.9996L34.3728 19.0035Z" fill="black"/>
<path d="M42.5934 12.4712H41.1572V20.1336H42.5934V12.4712Z" fill="black"/>
<path d="M55.4753 19.0035V20.1335H48.7546V20.1769C48.7546 21.5707 48.2785 22.8977 46.0711 22.8977C45.7366 22.8977 45.4218 22.8544 45.1621 22.7874L45.2723 21.6416C45.532 21.7204 45.8074 21.7755 46.1537 21.7755C46.8895 21.7755 47.3223 21.4251 47.3223 20.2517V15.0226H48.7586V18.9995H51.5562C51.0801 18.7121 50.7181 18.1057 50.7181 17.3773C50.7181 16.0306 51.6428 14.877 53.5551 14.877C54.2949 14.877 54.9048 15.0856 54.9048 15.0856L54.6529 16.2275C54.6529 16.2275 54.1532 15.9991 53.5236 15.9991C52.7091 15.9991 52.1543 16.5425 52.1543 17.3773C52.1543 18.3026 52.9059 18.9995 54.6293 18.9995H55.4793L55.4753 19.0035Z" fill="black"/>
<path d="M63.8372 12.9278C63.4476 12.9278 63.1289 13.2546 63.1289 13.6366C63.1289 14.0185 63.4476 14.3453 63.8372 14.3453C64.2267 14.3453 64.5455 14.0185 64.5455 13.6366C64.5455 13.2546 64.2189 12.9278 63.8372 12.9278ZM64.7383 11.5024C64.3487 11.5024 64.03 11.8293 64.03 12.2073C64.03 12.5853 64.3487 12.916 64.7383 12.916C65.1278 12.916 65.4465 12.5853 65.4465 12.2073C65.4465 11.8293 65.1317 11.5024 64.7383 11.5024ZM65.6315 12.9278C65.2498 12.9278 64.9232 13.2546 64.9232 13.6366C64.9232 14.0185 65.2498 14.3453 65.6315 14.3453C66.0131 14.3453 66.3319 14.0185 66.3319 13.6366C66.3319 13.2546 66.021 12.9278 65.6315 12.9278Z" fill="black"/>
<path d="M77.8609 12.4712V19.0035H75.8698V17.3813C75.8698 15.8614 75.1104 14.881 73.4145 14.881C71.5336 14.881 70.5853 16.1449 70.5853 17.523C70.5853 18.6413 70.1643 19.0035 69.5111 19.0035H68.5274C68.5589 18.5232 68.5707 18.0349 68.5707 17.5978C68.5707 16.5229 68.4291 15.4598 68.2205 14.5856L66.8197 14.7825C67.0046 15.6094 67.1384 16.6095 67.1384 17.6963C67.1384 18.0349 67.1188 18.5625 67.0755 19.0035H66.7804C65.7809 19.0035 65.4897 18.8303 65.4897 17.9719V15.2432H64.1125V17.7002C64.1125 18.7555 63.7978 19.0941 63.2311 19.0941C62.5898 19.0941 62.4796 18.6689 62.4796 17.6884V15.6803H61.0434V17.6608C61.0434 18.724 60.7758 19.0114 60.0675 19.0114H58.1237V12.4791H56.6875V20.1415H60.0518C60.8427 20.1415 61.2795 19.8816 61.4959 19.3815C61.6729 19.9013 62.2474 20.2281 62.9518 20.2281C63.8017 20.2281 64.3762 19.858 64.5926 19.3894C64.9074 19.9879 65.4858 20.1415 66.6269 20.1415H69.6725C70.5814 20.1415 71.0182 19.8068 71.211 19.3028C71.5927 19.8068 72.0845 20.1415 73.6427 20.1415H79.2931V12.4791H77.8609V12.4712ZM74.473 19.0035H73.6427C72.5174 19.0035 72.0176 18.4995 72.0176 17.4797C72.0176 16.6292 72.4937 16.011 73.3083 16.011C74.0362 16.011 74.469 16.4678 74.469 17.5506V18.9996L74.473 19.0035Z" fill="black"/>
<path d="M82.4645 12.4712H81.0322V20.1336H82.4645V12.4712Z" fill="black"/>
<path d="M83.9997 22.7323L84.0863 21.5589C84.0863 21.5589 84.9323 21.7439 85.7822 21.7439C86.9115 21.7439 87.663 21.3187 87.663 20.2989V20.1374H86.8052C84.6962 20.1374 83.9053 19.1609 83.9053 17.6135C83.9053 16.1881 84.7867 14.8848 86.7738 14.8848C88.0683 14.8848 89.056 15.2667 89.056 15.2667V20.161C89.056 21.6612 88.0762 22.8779 85.6563 22.8779C84.8418 22.8779 84.0036 22.7362 84.0036 22.7362M87.663 16.2078C87.663 16.2078 87.2499 16.0109 86.6321 16.0109C85.8176 16.0109 85.3376 16.6291 85.3376 17.4796C85.3376 18.4679 85.8255 19.0034 86.9666 19.0034H87.663V16.2078Z" fill="black"/>
<path d="M96.1506 12.8726C95.761 12.8726 95.4423 13.1994 95.4423 13.5774C95.4423 13.9554 95.7492 14.2861 96.1506 14.2861C96.5519 14.2861 96.8588 13.9593 96.8588 13.5774C96.8588 13.1954 96.5323 12.8726 96.1506 12.8726ZM94.4114 12.8726C94.0218 12.8726 93.707 13.1994 93.707 13.5774C93.707 13.9554 93.9982 14.2861 94.4114 14.2861C94.8245 14.2861 95.1157 13.9751 95.1157 13.5774C95.1157 13.1797 94.8049 12.8726 94.4114 12.8726Z" fill="black"/>
<path d="M102.607 14.8848C100.726 14.8848 99.7821 16.1488 99.7821 17.5269C99.7821 18.2947 99.9867 18.7751 100.384 19.0744C100.333 19.0625 100.117 19.0035 99.7821 19.0035H97.6927V15.2628C97.6927 15.2628 96.705 14.8809 95.4144 14.8809C93.4234 14.8809 92.5459 16.1881 92.5459 17.6096C92.5459 19.1531 93.3368 20.1296 95.4459 20.1296H105.067V17.3773C105.067 15.8574 104.307 14.877 102.611 14.877M96.2997 19.0035H95.6072C94.4661 19.0035 93.9782 18.468 93.9782 17.4797C93.9782 16.6292 94.4543 16.011 95.2688 16.011C95.8905 16.011 96.2997 16.2078 96.2997 16.2078V19.0035ZM103.662 19.0035H102.835C101.706 19.0035 101.21 18.4995 101.21 17.4797C101.21 16.6292 101.687 16.011 102.501 16.011C103.229 16.011 103.662 16.4677 103.662 17.5505V18.9995V19.0035Z" fill="black"/>
<path d="M123.458 12.471V19.0034H121.471V17.3811C121.471 15.8612 120.711 14.8808 119.015 14.8808C117.135 14.8808 116.19 16.1447 116.19 17.5228C116.19 18.6411 115.769 19.0034 115.116 19.0034H114.553C114.443 16.9165 113.522 15.8258 112.153 15.2076L114.805 13.6129V12.1875L110.5 14.8808V15.936C112.232 16.3416 113.097 17.3181 113.153 19.0034H108.659V15.0265H107.227V20.2555C107.227 21.4249 106.79 21.7793 106.05 21.7793C105.704 21.7793 105.428 21.7242 105.169 21.6454L105.059 22.7913C105.318 22.8582 105.637 22.9015 105.968 22.9015C108.175 22.9015 108.651 21.5746 108.651 20.1807V20.1374H115.262C116.175 20.1374 116.611 19.8027 116.804 19.2987C117.186 19.8027 117.678 20.1374 119.236 20.1374H124.886V12.4749H123.45L123.458 12.471ZM120.074 19.0034H119.248C118.118 19.0034 117.619 18.4994 117.619 17.4795C117.619 16.629 118.099 16.0108 118.917 16.0108C119.645 16.0108 120.078 16.4676 120.078 17.5504V18.9994L120.074 19.0034Z" fill="black"/>
<path d="M128.066 12.4712H126.634V20.1336H128.066V12.4712Z" fill="black"/>
</svg>
